<?xml version="1.0" encoding="UTF-8" standalone="no"?><!DOCTYPE svg PUBLIC "-//W3C//DTD SVG 1.1//EN" "http://www.w3.org/Graphics/SVG/1.1/DTD/svg11.dtd"><svg width="100%" height="100%" viewBox="0 0 400 150" version="1.1" xmlns="http://www.w3.org/2000/svg" xmlns:xlink="http://www.w3.org/1999/xlink" xml:space="preserve" xmlns:serif="http://www.serif.com/" style="fill-rule:evenodd;clip-rule:evenodd;stroke-linecap:round;stroke-linejoin:round;stroke-miterlimit:1.5;"><rect id="Artboard1" x="0" y="0" width="400" height="150" style="fill:none;"/><clipPath id="_clip1"><rect x="0" y="0" width="400" height="150"/></clipPath><g clip-path="url(#_clip1)"><g id="grid"><rect x="297.5" y="98" width="6" height="0.25" style="fill:#fff;"/><rect x="279.5" y="98" width="6" height="0.25" style="fill:#fff;"/><rect x="288" y="98" width="2" height="0.25" style="fill:#fff;"/><rect x="294.5" y="98" width="1" height="0.25" style="fill:#fff;"/><rect x="274.5" y="98" width="1" height="0.25" style="fill:#fff;"/><rect x="96.5" y="98" width="16.5" height="0.25" style="fill:#fff;"/><rect x="115" y="98" width="6.5" height="0.25" style="fill:#fff;"/><rect x="123.5" y="98" width="147.5" height="0.25" style="fill:#fff;"/><rect x="131.5" y="83" width="158.5" height="0.25" style="fill:#fff;"/><rect x="107" y="83" width="12.5" height="0.25" style="fill:#fff;"/><rect x="120.5" y="83" width="1" height="0.25" style="fill:#fff;"/><rect x="102" y="83" width="2.5" height="0.25" style="fill:#fff;"/><rect x="99.5" y="83" width="1" height="0.25" style="fill:#fff;"/><rect x="125" y="83" width="3.5" height="0.25" style="fill:#fff;"/><rect x="88.5" y="68" width="208" height="0.25" style="fill:#fff;"/><rect x="108" y="53" width="178.5" height="0.25" style="fill:#fff;"/><rect x="129.5" y="38" width="142" height="0.25" style="fill:#fff;"/><rect x="146.5" y="23" width="93.5" height="0.25" style="fill:#fff;"/><path d="M237.375,14.125l0.25,0l0,99l-0.25,0l0,-99Z" style="fill:#fff;"/><path d="M222.375,9.125l0.25,0l0,104l-0.25,0l0,-104Z" style="fill:#fff;"/><path d="M207.375,19.625l0.25,0l0,93.5l-0.25,0l0,-93.5Z" style="fill:#fff;"/><path d="M192.375,11.625l0.25,0l0,101.5l-0.25,0l0,-101.5Z" style="fill:#fff;"/><path d="M177.375,13.125l0.25,0l0,100l-0.25,0l0,-100Z" style="fill:#fff;"/><path d="M162.375,9.125l0.25,0l0,104l-0.25,0l0,-104Z" style="fill:#fff;"/><path d="M148.375,19.625l0.25,0l0,93.5l-0.25,0l0,-93.5Z" style="fill:#fff;"/><path d="M133.375,35.625l0.25,0l0,77.5l-0.25,0l0,-77.5Z" style="fill:#fff;"/><path d="M118.375,43.625l0.25,0l0,69.5l-0.25,0l0,-69.5Z" style="fill:#fff;"/><path d="M103.375,59.125l0.25,0l0,54l-0.25,0l0,-54Z" style="fill:#fff;"/><path d="M281.875,47.625l0.25,0l0,65.5l-0.25,0l0,-65.5Z" style="fill:#fff;"/><path d="M266.875,25.625l0.25,0l0,87.5l-0.25,0l0,-87.5Z" style="fill:#fff;"/><path d="M251.875,32.125l0.25,0l0,81l-0.25,0l0,-81Z" style="fill:#fff;"/><circle cx="148.5" cy="83" r="0.5" style="fill:#fff;"/><circle cx="148.5" cy="98" r="0.5" style="fill:#fff;"/><circle cx="148.5" cy="68" r="0.5" style="fill:#fff;"/><circle cx="148.5" cy="53" r="0.5" style="fill:#fff;"/><circle cx="133.5" cy="83" r="0.5" style="fill:#fff;"/><circle cx="133.5" cy="98" r="0.5" style="fill:#fff;"/><circle cx="133.5" cy="68" r="0.5" style="fill:#fff;"/><circle cx="133.5" cy="53" r="0.5" style="fill:#fff;"/><circle cx="118.5" cy="83" r="0.5" style="fill:#fff;"/><circle cx="118.5" cy="98" r="0.5" style="fill:#fff;"/><circle cx="118.5" cy="68" r="0.5" style="fill:#fff;"/><circle cx="118.5" cy="53" r="0.5" style="fill:#fff;"/><circle cx="103.5" cy="83" r="0.5" style="fill:#fff;"/><circle cx="103.5" cy="98" r="0.5" style="fill:#fff;"/><circle cx="103.5" cy="68" r="0.5" style="fill:#fff;"/><circle cx="162.5" cy="83" r="0.5" style="fill:#fff;"/><circle cx="162.5" cy="98" r="0.5" style="fill:#fff;"/><circle cx="162.5" cy="68" r="0.5" style="fill:#fff;"/><circle cx="162.5" cy="53" r="0.5" style="fill:#fff;"/><circle cx="222.5" cy="83" r="0.5" style="fill:#fff;"/><circle cx="222.5" cy="98" r="0.5" style="fill:#fff;"/><circle cx="222.5" cy="68" r="0.5" style="fill:#fff;"/><circle cx="222.5" cy="53" r="0.5" style="fill:#fff;"/><circle cx="237.5" cy="83" r="0.5" style="fill:#fff;"/><circle cx="237.5" cy="98" r="0.5" style="fill:#fff;"/><circle cx="237.5" cy="68" r="0.5" style="fill:#fff;"/><circle cx="237.5" cy="53" r="0.5" style="fill:#fff;"/><circle cx="252" cy="83" r="0.5" style="fill:#fff;"/><circle cx="252" cy="98" r="0.5" style="fill:#fff;"/><circle cx="252" cy="68" r="0.5" style="fill:#fff;"/><circle cx="252" cy="53" r="0.5" style="fill:#fff;"/><circle cx="267" cy="83" r="0.5" style="fill:#fff;"/><circle cx="267" cy="98" r="0.5" style="fill:#fff;"/><circle cx="267" cy="68" r="0.5" style="fill:#fff;"/><circle cx="267" cy="53" r="0.5" style="fill:#fff;"/><circle cx="282" cy="83" r="0.5" style="fill:#fff;"/><circle cx="282" cy="98" r="0.5" style="fill:#fff;"/><circle cx="282" cy="68" r="0.5" style="fill:#fff;"/><circle cx="282" cy="53" r="0.5" style="fill:#fff;"/><circle cx="148.5" cy="38" r="0.5" style="fill:#fff;"/><circle cx="148.5" cy="23" r="0.5" style="fill:#fff;"/><circle cx="162.5" cy="38" r="0.5" style="fill:#fff;"/><circle cx="162.5" cy="23" r="0.5" style="fill:#fff;"/><circle cx="177.5" cy="38" r="0.5" style="fill:#fff;"/><circle cx="177.5" cy="23" r="0.5" style="fill:#fff;"/><circle cx="192.5" cy="38" r="0.5" style="fill:#fff;"/><circle cx="192.5" cy="23" r="0.5" style="fill:#fff;"/><circle cx="207.5" cy="38" r="0.5" style="fill:#fff;"/><circle cx="207.5" cy="23" r="0.5" style="fill:#fff;"/><circle cx="222.5" cy="38" r="0.5" style="fill:#fff;"/><circle cx="222.5" cy="23" r="0.5" style="fill:#fff;"/><circle cx="237.5" cy="38" r="0.5" style="fill:#fff;"/><circle cx="237.5" cy="23" r="0.5" style="fill:#fff;"/></g><path d="M221.476,93.884c5.752,7.249 3.48,37.116 3.48,37.116l-57.414,-0.58c0,0 -1.787,-28.127 3.48,-35.377c5.267,-7.249 14.204,-12.179 25.223,-12.179c10.924,0 19.48,3.77 25.232,11.019Z" style="fill:#fff1e0;"/><g id="soap-back" serif:id="soap back"><path d="M61.5,111.642c-0.584,0.531 -1.377,0.858 -2.25,0.858c-1.794,0 -3.25,-1.38 -3.25,-3.079c0,-1.699 1.456,-3.079 3.25,-3.079c0.103,0 0.204,0.005 0.305,0.013c0.281,-1.43 1.605,-2.513 3.195,-2.513c1.335,0 2.483,0.764 2.983,1.856c0.453,-0.227 0.969,-0.356 1.517,-0.356c0.103,0 0.204,0.005 0.305,0.013c0.281,-1.43 1.605,-2.513 3.195,-2.513c1.794,0 3.25,1.38 3.25,3.079c0,0.509 -0.131,0.989 -0.362,1.412c0.535,0.549 0.862,1.282 0.862,2.088c0,1.699 -1.456,3.079 -3.25,3.079c-1.086,0 -2.049,-0.506 -2.639,-1.283c-0.414,0.181 -0.875,0.283 -1.361,0.283c-0.34,0 -0.667,-0.049 -0.975,-0.141c-0.596,0.696 -1.506,1.141 -2.525,1.141c-0.873,0 -1.666,-0.327 -2.25,-0.858Z" style="fill:#fff;stroke:#000;stroke-width:0.3px;"/><path d="M236,111.142c-0.584,0.531 -1.377,0.858 -2.25,0.858c-1.794,0 -3.25,-1.38 -3.25,-3.079c0,-1.699 1.456,-3.079 3.25,-3.079c0.103,0 0.204,0.005 0.305,0.013c0.281,-1.43 1.605,-2.513 3.195,-2.513c1.335,0 2.483,0.764 2.983,1.856c0.453,-0.227 0.969,-0.356 1.517,-0.356c0.103,0 0.204,0.005 0.305,0.013c0.281,-1.43 1.605,-2.513 3.195,-2.513c1.794,0 3.25,1.38 3.25,3.079c0,0.509 -0.131,0.989 -0.362,1.412c0.535,0.549 0.862,1.282 0.862,2.088c0,1.699 -1.456,3.079 -3.25,3.079c-1.086,0 -2.049,-0.506 -2.639,-1.283c-0.414,0.181 -0.875,0.283 -1.361,0.283c-0.34,0 -0.667,-0.049 -0.975,-0.141c-0.596,0.696 -1.506,1.141 -2.525,1.141c-0.873,0 -1.666,-0.327 -2.25,-0.858Z" style="fill:#fff;stroke:#000;stroke-width:0.3px;"/><circle cx="78.25" cy="98.25" r="1.75" style="fill:#fff;stroke:#000;stroke-width:0.3px;"/><circle cx="145.25" cy="73.75" r="1.75" style="fill:#feecff;stroke:#000;stroke-width:0.3px;"/><circle cx="155.25" cy="90.75" r="1.75" style="fill:#fff;stroke:#000;stroke-width:0.3px;"/><circle cx="159.25" cy="47.75" r="1.75" style="fill:#fff;fill-opacity:0;stroke:#000;stroke-width:0.3px;"/><circle cx="132.75" cy="101.25" r="1.75" style="fill:#fff;fill-opacity:0;stroke:#000;stroke-width:0.3px;"/><circle cx="155.75" cy="78.75" r="0.75" style="fill:#fff;fill-opacity:0;stroke:#000;stroke-width:0.3px;"/><circle cx="159.75" cy="102.75" r="0.75" style="fill:#fff;stroke:#000;stroke-width:0.3px;"/><circle cx="165.25" cy="86.75" r="0.75" style="fill:#dbf6ff;stroke:#000;stroke-width:0.3px;"/><circle cx="123.25" cy="103.25" r="0.75" style="fill:#fff;stroke:#000;stroke-width:0.3px;"/><circle cx="180.75" cy="37.75" r="0.75" style="fill:#dbf6ff;stroke:#000;stroke-width:0.3px;"/><circle cx="247.25" cy="72.75" r="1.75" style="fill:#fff;stroke:#000;stroke-width:0.3px;"/><circle cx="237.25" cy="89.75" r="1.75" style="fill:#feecff;stroke:#000;stroke-width:0.3px;"/><circle cx="233.25" cy="46.75" r="1.75" style="fill:#dbf6ff;stroke:#000;stroke-width:0.3px;"/><circle cx="259.75" cy="100.25" r="1.75" style="fill:#fff;fill-opacity:0;stroke:#000;stroke-width:0.3px;"/><circle cx="236.75" cy="77.75" r="0.75" style="fill:#fff;fill-opacity:0;stroke:#000;stroke-width:0.3px;"/><circle cx="232.75" cy="101.75" r="0.75" style="fill:#fff;stroke:#000;stroke-width:0.3px;"/><circle cx="227.25" cy="85.75" r="0.75" style="fill:#feecff;stroke:#000;stroke-width:0.3px;"/><circle cx="269.25" cy="102.25" r="0.75" style="fill:#fff;stroke:#000;stroke-width:0.3px;"/><circle cx="211.75" cy="36.75" r="0.75" style="fill:#fff;stroke:#000;stroke-width:0.3px;"/><path d="M99.789,113.366c-0.721,0.702 -1.705,1.134 -2.789,1.134c-2.208,0 -4,-1.792 -4,-4c0,-1.733 1.104,-3.209 2.646,-3.765c0.572,-2.427 2.753,-4.235 5.354,-4.235c0.398,0 0.786,0.042 1.16,0.123c1.007,-1.292 2.577,-2.123 4.34,-2.123c1.45,0 2.769,0.562 3.752,1.48c0.687,-0.308 1.448,-0.48 2.248,-0.48c1.48,0 2.824,0.586 3.813,1.538c0.71,-0.645 1.653,-1.038 2.687,-1.038c1.916,0 3.52,1.35 3.909,3.151c0.347,-0.098 0.713,-0.151 1.091,-0.151c1.788,0 3.304,1.176 3.815,2.796c0.497,-0.492 1.181,-0.796 1.935,-0.796c1.518,0 2.75,1.232 2.75,2.75c0,1.518 -1.232,2.75 -2.75,2.75c-1.01,0 -1.894,-0.546 -2.372,-1.358c-0.71,1.117 -1.958,1.858 -3.378,1.858c-1.916,0 -3.52,-1.35 -3.909,-3.151c-0.347,0.098 -0.713,0.151 -1.091,0.151c-0.597,0 -1.163,-0.131 -1.672,-0.366c-0.934,1.707 -2.747,2.866 -4.828,2.866c-1.45,0 -2.769,-0.562 -3.752,-1.48c-0.687,0.308 -1.448,0.48 -2.248,0.48c-0.398,0 -0.786,-0.042 -1.16,-0.123c-1.007,1.292 -2.577,2.123 -4.34,2.123c-0.416,0 -0.821,-0.046 -1.211,-0.134Z" style="fill:#fff;stroke:#000;stroke-width:0.3px;"/><path d="M277.478,104.377c-0.759,-0.66 -1.766,-1.036 -2.849,-0.974c-2.204,0.125 -3.892,2.016 -3.767,4.22c0.098,1.73 1.284,3.142 2.855,3.609c0.708,2.39 2.989,4.073 5.585,3.925c0.397,-0.023 0.782,-0.087 1.151,-0.188c1.078,1.232 2.693,1.973 4.453,1.874c1.447,-0.082 2.733,-0.718 3.662,-1.69c0.703,0.269 1.472,0.397 2.272,0.352c1.478,-0.084 2.786,-0.745 3.72,-1.751c0.746,0.604 1.709,0.943 2.741,0.884c1.913,-0.108 3.438,-1.547 3.725,-3.367c0.352,0.078 0.72,0.11 1.097,0.089c1.785,-0.101 3.232,-1.361 3.651,-3.008c0.524,0.463 1.224,0.728 1.977,0.686c1.515,-0.086 2.676,-1.386 2.59,-2.901c-0.086,-1.515 -1.386,-2.676 -2.901,-2.59c-1.008,0.057 -1.86,0.652 -2.291,1.49c-0.772,-1.075 -2.06,-1.744 -3.478,-1.664c-1.913,0.108 -3.438,1.547 -3.725,3.367c-0.352,-0.078 -0.72,-0.11 -1.097,-0.089c-0.596,0.034 -1.154,0.197 -1.648,0.46c-1.029,-1.651 -2.905,-2.705 -4.983,-2.588c-1.447,0.082 -2.733,0.718 -3.662,1.69c-0.703,-0.269 -1.472,-0.397 -2.272,-0.352c-0.397,0.023 -0.782,0.087 -1.151,0.188c-1.078,-1.232 -2.693,-1.973 -4.453,-1.874c-0.415,0.024 -0.817,0.093 -1.201,0.202Z" style="fill:#fff;stroke:#000;stroke-width:0.3px;"/></g><g id="bathtub"><path d="M376.5,111l0,18.131c-0,22.847 -18.521,41.369 -41.369,41.369l-270.263,-0c-22.847,-0 -41.369,-18.521 -41.369,-41.369l-0,-18.131l353,0Z" style="fill:#b6e1c4;"/><path d="M381.75,109c0.597,-0 1.169,0.237 1.591,0.659c0.422,0.422 0.659,0.994 0.659,1.591c-0,0 -0,0 -0,0c-0,0.597 -0.237,1.169 -0.659,1.591c-0.422,0.422 -0.994,0.659 -1.591,0.659c-29.246,0 -334.254,0 -363.5,0c-0.597,0 -1.169,-0.237 -1.591,-0.659c-0.422,-0.422 -0.659,-0.994 -0.659,-1.591c0,-0 0,-0 0,-0c0,-0.597 0.237,-1.169 0.659,-1.591c0.422,-0.422 0.994,-0.659 1.591,-0.659c29.246,-0 334.254,-0 363.5,-0Z" style="fill:#e7d084;"/><rect x="20.5" y="113" width="256.5" height="0.25"/><rect x="330.5" y="113" width="50" height="0.25"/><rect x="19" y="109" width="22.5" height="0.25"/><rect x="281.5" y="113" width="5" height="0.25"/><rect x="306" y="113" width="5" height="0.25"/><rect x="322" y="113" width="5" height="0.25"/><rect x="289.5" y="113" width="1.5" height="0.25"/><rect x="316" y="113" width="1.5" height="0.25"/><rect x="295" y="113" width="1.5" height="0.25"/><rect x="63.5" y="109" width="5" height="0.25"/><rect x="79.5" y="109" width="5" height="0.25"/><rect x="73.5" y="109" width="1.5" height="0.25"/><rect x="52.5" y="109" width="1.5" height="0.25"/><path d="M23.625,113.505l0.25,0l0,6.87l-0.25,0l0,-6.87Z"/><path d="M23.625,126.76l0.25,0l0,1.527l-0.25,0l0,-1.527Z"/><path d="M23.625,121.875l0.25,0l0,1.527l-0.25,0l0,-1.527Z"/><path d="M23.625,124.776l0.25,0l0,0.458l-0.25,0l0,-0.458Z"/><path d="M23.625,131.188l0.25,0l0,0.458l-0.25,0l0,-0.458Z"/><path d="M376.125,113.505l0.25,0l0,6.87l-0.25,0l0,-6.87Z"/><path d="M376.125,126.76l0.25,0l0,1.527l-0.25,0l0,-1.527Z"/><path d="M376.125,121.875l0.25,0l0,1.527l-0.25,0l0,-1.527Z"/><path d="M376.125,124.776l0.25,0l0,0.458l-0.25,0l0,-0.458Z"/><path d="M376.125,131.188l0.25,0l0,0.458l-0.25,0l0,-0.458Z"/><rect x="346.5" y="109" width="8" height="0.25"/><rect x="359.3" y="109" width="2.4" height="0.25"/><rect x="368.1" y="109" width="2.4" height="0.25"/><rect x="87.5" y="109" width="256.5" height="0.25"/><path d="M25,113c2.194,0.243 20.62,1.42 58.987,2.978c25.976,1.055 61.506,-0.359 104.013,2.522c23.273,1.577 42.263,0.934 61.135,0.708c80.54,-0.964 124.865,-5.708 124.865,-5.708l-349,-0.5Z" style="fill:#954e2a;fill-opacity:0.19;"/></g><g id="pingvin"><g id="vinge"><path d="M187.332,89.964l-0.485,4.914c0,0 -2.71,-1.035 -6.015,4.642c-1.434,2.463 -1.485,9.801 -1.485,9.801l-2.074,-0.261c0,0 -1.511,-1.173 -5.728,-3.924c-0.964,-0.629 -2.576,-1.302 -2.576,-1.302c0,0 -2.057,-0.853 0,0c4.544,1.885 11.82,7.661 15.61,11.832c2.001,2.202 3.464,3.424 2.753,5.035c-2.086,4.726 -13.173,-0.128 -20.01,-3.087c-4.692,-2.031 -5.959,-6.623 -6.667,-8.512c-0.787,-2.099 -0.689,-10.184 2.195,-15.233c3.491,-6.112 9.984,-9.125 9.984,-9.125l14.499,5.219Z" style="fill:#45547c;"/><path d="M178.696,110.149l-0.146,0.251c0,0 -2.238,-1.919 -3.781,-2.97c-1.527,-1.04 -5.478,-3.335 -5.478,-3.335l0.146,-0.251c0,0 4.062,2.372 5.606,3.422c1.543,1.051 3.653,2.883 3.653,2.883Z"/><path d="M175.915,121.134l0.133,-0.257c0,0 -2.82,-0.86 -4.534,-1.6c-1.696,-0.732 -5.752,-2.836 -5.752,-2.836l-0.133,0.257c0,0 4.18,2.158 5.894,2.897c1.714,0.739 4.392,1.538 4.392,1.538Z"/><path d="M185.719,122.335l-0.177,-0.287c0,0 -1.26,0.317 -2.18,0.312c-0.91,-0.004 -3.118,-0.339 -3.118,-0.339l-0.043,0.287c0,0 2.275,0.335 3.194,0.339c0.92,0.004 2.324,-0.313 2.324,-0.313Z"/><path d="M179.227,110.616l-0.184,0.229l-0.304,-0.244l0.184,-0.229l0.304,0.244Z"/><path d="M179.813,111.151l-0.203,0.212l-0.282,-0.269l0.203,-0.212l0.282,0.269Z"/><path d="M160.686,107.744l-0.293,0.02l-0.026,-0.389l0.293,-0.02l0.026,0.389Z"/><path d="M160.878,108.601l-0.284,0.076l-0.1,-0.376l0.284,-0.076l0.1,0.376Z"/><path d="M163.781,114.611l-0.237,0.173l-0.229,-0.315l0.237,-0.173l0.229,0.315Z"/><path d="M185.309,116.467l-0.231,0.181l-0.241,-0.306l0.231,-0.181l0.241,0.306Z"/><path d="M184.933,116.024l-0.219,0.195l-0.529,-0.594l0.219,-0.195l0.529,0.594Z"/><path d="M178.458,121.601l-0.085,0.281l-2.166,-0.659l0.085,-0.281l2.166,0.659Z"/><path d="M165.559,116.366l-0.13,0.212c0,0 -0.721,-0.548 -0.993,-0.809c-0.238,-0.228 -0.641,-0.758 -0.641,-0.758l0.203,-0.212c0,0 0.436,0.562 0.691,0.806c0.272,0.261 0.869,0.76 0.869,0.76Z"/><path d="M160.577,106.826l-0.276,-0.1c0,0 -0.304,-8.502 2.543,-12.973c3.789,-5.951 9.683,-8.891 9.683,-8.891l0.203,0.173c0,0 -5.84,2.904 -9.672,8.901c-2.815,4.405 -2.48,12.89 -2.48,12.89Z"/><path d="M179.696,121.887l-0.066,0.286l-0.699,-0.162l0.066,-0.286l0.699,0.162Z"/><path d="M187.255,120.34l0.272,-0.078c0,0 -0.171,0.722 -0.54,1.073c-0.254,0.242 -0.868,0.744 -0.868,0.744l-0.199,-0.216c0,0 0.651,-0.471 0.871,-0.747c0.222,-0.278 0.464,-0.777 0.464,-0.777Z"/><path d="M187.518,119.943l-0.24,0.163c0,0 0.142,-0.586 -0.855,-1.878c-0.65,-0.842 -1.219,-1.426 -1.219,-1.426l0.24,-0.163c0,0 0.708,0.631 1.333,1.505c0.923,1.291 0.741,1.798 0.741,1.798Z"/></g><g id="vinge1" serif:id="vinge"><path d="M202.399,90.184l0.485,4.914c0,0 2.71,-1.035 6.015,4.642c1.434,2.463 1.485,9.801 1.485,9.801l2.074,-0.261c0,0 1.511,-1.173 5.728,-3.924c0.964,-0.629 2.576,-1.302 2.576,-1.302c0,0 2.057,-0.853 0,0c-4.544,1.885 -11.82,7.661 -15.61,11.832c-2.001,2.202 -3.464,3.424 -2.753,5.035c2.086,4.726 13.173,-0.128 20.01,-3.087c4.692,-2.031 5.959,-6.623 6.667,-8.512c0.787,-2.099 0.689,-10.184 -2.195,-15.233c-3.491,-6.112 -9.984,-9.125 -9.984,-9.125l-14.499,5.219Z" style="fill:#45547c;"/><path d="M211.036,110.369l0.146,0.251c0,0 2.238,-1.919 3.781,-2.97c1.527,-1.04 5.478,-3.335 5.478,-3.335l-0.146,-0.251c0,0 -4.062,2.372 -5.606,3.422c-1.543,1.051 -3.653,2.883 -3.653,2.883Z"/><path d="M213.816,121.354l-0.133,-0.257c0,0 2.82,-0.86 4.534,-1.6c1.696,-0.732 5.752,-2.836 5.752,-2.836l0.133,0.257c0,0 -4.18,2.158 -5.894,2.897c-1.714,0.739 -4.392,1.538 -4.392,1.538Z"/><path d="M204.013,122.555l0.177,-0.287c0,0 1.26,0.317 2.18,0.312c0.91,-0.004 3.118,-0.339 3.118,-0.339l0.043,0.287c0,0 -2.275,0.335 -3.194,0.339c-0.92,0.004 -2.324,-0.313 -2.324,-0.313Z"/><path d="M210.504,110.837l0.184,0.229l0.304,-0.244l-0.184,-0.229l-0.304,0.244Z"/><path d="M209.919,111.371l0.203,0.212l0.282,-0.269l-0.203,-0.212l-0.282,0.269Z"/><path d="M229.046,107.964l0.293,0.02l0.026,-0.389l-0.293,-0.02l-0.026,0.389Z"/><path d="M228.853,108.821l0.284,0.076l0.1,-0.376l-0.284,-0.076l-0.1,0.376Z"/><path d="M225.95,114.831l0.237,0.173l0.229,-0.315l-0.237,-0.173l-0.229,0.315Z"/><path d="M204.423,116.687l0.231,0.181l0.241,-0.306l-0.231,-0.181l-0.241,0.306Z"/><path d="M204.798,116.244l0.219,0.195l0.529,-0.594l-0.219,-0.195l-0.529,0.594Z"/><path d="M211.273,121.821l0.085,0.281l2.166,-0.659l-0.085,-0.281l-2.166,0.659Z"/><path d="M224.172,116.587l0.13,0.212c0,0 0.721,-0.548 0.993,-0.809c0.238,-0.228 0.641,-0.758 0.641,-0.758l-0.203,-0.212c0,0 -0.436,0.562 -0.691,0.806c-0.272,0.261 -0.869,0.76 -0.869,0.76Z"/><path d="M229.155,107.046l0.276,-0.1c0,0 0.304,-8.502 -2.543,-12.973c-3.789,-5.951 -9.683,-8.891 -9.683,-8.891l-0.203,0.173c0,0 5.84,2.904 9.672,8.901c2.815,4.405 2.48,12.89 2.48,12.89Z"/><path d="M210.035,122.107l0.066,0.286l0.699,-0.162l-0.066,-0.286l-0.699,0.162Z"/><path d="M202.476,120.56l-0.272,-0.078c0,0 0.171,0.722 0.54,1.073c0.254,0.242 0.868,0.744 0.868,0.744l0.199,-0.216c0,0 -0.651,-0.471 -0.871,-0.747c-0.222,-0.278 -0.464,-0.777 -0.464,-0.777Z"/><path d="M202.213,120.163l0.24,0.163c0,0 -0.142,-0.586 0.855,-1.878c0.65,-0.842 1.219,-1.426 1.219,-1.426l-0.24,-0.163c0,0 -0.708,0.631 -1.333,1.505c-0.923,1.291 -0.741,1.798 -0.741,1.798Z"/></g><path d="M215.676,88.664c0,0 -3.204,2.888 -4.64,4.64c-3.005,3.666 -17.108,5.316 -23.778,2.9c-1.624,-0.588 -11.019,-6.379 -11.019,-6.379l39.436,-1.16Z" style="fill:#954e2a;fill-opacity:0.19;"/><circle cx="194.655" cy="66.874" r="28.643" style="fill:#45547c;"/><path d="M195.423,95.649c-5.551,0.671 -16.389,-1.915 -21.67,-8.66c-9.077,-11.594 -3.212,-14.991 -2.437,-17.993c3.183,-12.33 8.759,-12.73 14.322,-12.73c5.562,0 9.017,4.643 9.017,11.67c0,1.209 -0.884,4.877 -0.618,6.614c0.208,1.361 1.573,1.765 2.994,2.189c3.001,-0.424 5.934,-0.828 6.142,-2.189c0.266,-1.737 -0.618,-5.405 -0.618,-6.614c0,-7.026 3.455,-11.67 9.017,-11.67c5.562,0 10.078,2.522 10.078,12.73c0,3.101 4.519,6.399 -4.558,17.993c-5.281,6.745 -16.119,9.331 -21.67,8.66Z" style="fill:#fff1e0;"/><path d="M166.111,68.986l0.22,0.001c0,0 -0.904,-9.522 4.159,-17.104c2.516,-3.768 7.177,-8.16 11.677,-10.271c5.979,-2.805 11.673,-2.779 11.673,-2.779l0,-0.632c0,0 -5.764,0.004 -11.829,3.007c-4.771,2.362 -9.986,7.509 -11.822,10.497c-5.13,8.351 -4.079,17.281 -4.079,17.281Z"/><path d="M223.171,68.839l-0.22,0.001c0,0 0.904,-9.522 -4.159,-17.104c-2.516,-3.768 -7.177,-8.16 -11.677,-10.271c-5.979,-2.805 -11.673,-2.779 -11.673,-2.779l-0,-0.632c0,0 5.764,0.004 11.829,3.007c4.771,2.362 9.986,7.509 11.822,10.497c5.13,8.351 4.079,17.281 4.079,17.281Z"/><g id="beek"><path d="M190.412,76.561c0,0 4.815,-7.123 9.283,-6.631c4.468,0.492 6.631,5.305 6.631,5.305c0,0 -0.683,3.526 -6.631,3.978c-5.948,0.452 -9.283,-2.652 -9.283,-2.652Z" style="fill:#dfb369;"/><path d="M206.325,75.123l0.001,0.318c0,0 -5.193,-0.848 -7.788,-0.635c-2.652,0.217 -8.126,1.938 -8.126,1.938l-0.001,-0.318c0,0 5.432,-1.718 8.084,-1.935c2.609,-0.214 7.829,0.632 7.829,0.632Z"/></g><g id="eyes"><path d="M187.229,66.636c0,0 1.061,0.526 1.061,1.849c0,1.468 -1.06,0.591 -1.06,0.591c0,0 -1.733,-0.857 -2.598,-0.65c-0.884,0.212 -2.706,1.923 -2.706,1.923c0,0 -1.061,1.027 -1.061,-0.441c-0,-1.374 1.061,-1.999 1.061,-1.999c0,0 1.808,-1.708 2.693,-1.92c0.87,-0.209 2.612,0.646 2.612,0.646Z"/><path d="M181.593,68.942c0,0 0.306,0.377 0.086,0.754c-0.243,0.418 -0.49,-0.059 -0.49,-0.059c0,0 -0.499,-0.616 -0.854,-0.742c-0.362,-0.129 -1.32,-0.033 -1.32,-0.033c0,0 -0.563,0.064 -0.32,-0.353c0.227,-0.391 0.723,-0.341 0.723,-0.341c0,0 0.952,-0.098 1.314,0.031c0.356,0.127 0.86,0.745 0.86,0.745Z"/><path d="M181.549,69.38c0,0 0.415,0.252 0.335,0.681c-0.088,0.475 -0.482,0.109 -0.482,0.109c0,0 -0.678,-0.412 -1.054,-0.412c-0.385,0 -1.254,0.413 -1.254,0.413c0,0 -0.508,0.25 -0.42,-0.225c0.083,-0.445 0.566,-0.565 0.566,-0.565c0,0 0.863,-0.413 1.248,-0.413c0.378,-0 1.06,0.412 1.06,0.412Z"/><path d="M182.406,69.417c0,0 0.053,0.483 -0.335,0.681c-0.43,0.22 -0.38,-0.315 -0.38,-0.315c0,0 -0.087,-0.788 -0.317,-1.086c-0.235,-0.305 -1.093,-0.741 -1.093,-0.741c0,0 -0.508,-0.25 -0.078,-0.47c0.403,-0.206 0.793,0.104 0.793,0.104c0,0 0.854,0.432 1.089,0.737c0.231,0.3 0.321,1.091 0.321,1.091Z"/><path d="M215.519,66.82c0,0 -0.306,0.377 -0.086,0.754c0.243,0.418 0.49,-0.059 0.49,-0.059c0,0 0.499,-0.616 0.854,-0.742c0.362,-0.129 1.32,-0.033 1.32,-0.033c0,0 0.563,0.064 0.32,-0.353c-0.227,-0.391 -0.723,-0.341 -0.723,-0.341c0,0 -0.952,-0.098 -1.314,0.031c-0.356,0.127 -0.86,0.745 -0.86,0.745Z"/><path d="M215.563,67.258c0,0 -0.415,0.252 -0.335,0.681c0.088,0.475 0.482,0.109 0.482,0.109c0,0 0.678,-0.412 1.054,-0.412c0.385,0 1.254,0.413 1.254,0.413c0,0 0.508,0.25 0.42,-0.225c-0.083,-0.445 -0.566,-0.565 -0.566,-0.565c0,0 -0.863,-0.413 -1.248,-0.413c-0.378,-0 -1.06,0.412 -1.06,0.412Z"/><path d="M214.707,67.295c0,0 -0.053,0.483 0.335,0.681c0.43,0.22 0.38,-0.315 0.38,-0.315c0,0 0.087,-0.788 0.317,-1.086c0.235,-0.305 1.093,-0.741 1.093,-0.741c0,0 0.508,-0.25 0.078,-0.47c-0.403,-0.206 -0.793,0.104 -0.793,0.104c0,0 -0.854,0.432 -1.089,0.737c-0.231,0.3 -0.321,1.091 -0.321,1.091Z"/><path d="M209.155,66.34c0,0 -0.884,0.788 -0.533,2.064c0.389,1.415 1.179,0.288 1.179,0.288c0,0 1.444,-1.287 2.333,-1.316c0.909,-0.03 3.12,1.137 3.12,1.137c0,0 1.296,0.708 0.906,-0.707c-0.364,-1.324 -1.553,-1.646 -1.553,-1.646c0,0 -2.197,-1.167 -3.105,-1.137c-0.894,0.029 -2.347,1.316 -2.347,1.316Z"/></g><path d="M194.167,46.923c0,0 -1.066,2.121 -3.186,1.903c-2.351,-0.242 -0.722,-2.304 -0.722,-2.304c0,0 1.739,-3.466 1.589,-5.3c-0.153,-1.875 -0.436,-3.495 -1.604,-5.396c-0.404,-0.658 -1.433,-2.337 -1.433,-2.337c0,0 2.108,0.279 4.436,2.184c1.3,1.064 2.354,4.045 2.507,5.92c0.151,1.844 -1.587,5.33 -1.587,5.33Z" style="fill:#45547c;"/><path d="M200.078,44.576c0,0 0.629,2.289 -1.091,3.547c-1.908,1.395 -2.079,-1.227 -2.079,-1.227c0,0 -1.03,-3.739 -2.369,-5c-1.37,-1.29 -4.586,-1.908 -5.848,-2.737c-0.838,-0.551 -1.496,-1.547 -1.72,-2.237c-0.242,-0.745 0.267,-2.235 0.267,-2.235c0,0 1.108,1.763 1.805,1.965c1.818,0.526 3.159,0.024 4.914,0.521c1.849,0.523 2.361,1.093 3.731,2.383c1.347,1.268 2.391,5.021 2.391,5.021Z" style="fill:#45547c;"/><path d="M190.822,48.039c0,0 -2.099,1.109 -3.699,-0.3c-1.774,-1.562 0.749,-2.295 0.749,-2.295c0,0 3.428,-1.812 4.371,-3.393c0.963,-1.616 1.87,-4.648 2.398,-5.915c0.705,-1.691 1.295,-3.07 1.295,-3.07c0,0 1.263,-0.011 1.438,3.303c0.088,1.678 -1.203,6.636 -2.167,8.252c-0.948,1.589 -4.386,3.418 -4.386,3.418Z" style="fill:#45547c;"/><path d="M187.862,37.761l1.339,1.386l-0.293,0.283l-1.339,-1.386l0.293,-0.283Z"/><path d="M187.397,36.872l0.27,0.649l-0.376,0.156l-0.27,-0.649l0.376,-0.156Z"/><path d="M187.387,35.645l-0.126,0.691l-0.4,-0.073l0.126,-0.691l0.4,0.073Z"/><path d="M187.381,34.889l0.405,0.574l-0.333,0.234l-0.405,-0.574l0.333,-0.234Z"/><path d="M190.348,33.928l0.629,0.313l-0.182,0.364l-0.629,-0.313l0.182,-0.364Z"/><path d="M197.273,37.317l-0.085,0.697l-0.404,-0.049l0.085,-0.697l0.404,0.049Z"/><path d="M191.449,34.515c0,0 1.018,0.541 1.441,0.874c0.414,0.327 1.095,1.127 1.095,1.127l-0.182,0.364c0,0 -0.747,-0.851 -1.169,-1.185c-0.407,-0.321 -1.367,-0.816 -1.367,-0.816l0.182,-0.364Z"/><path d="M196.726,33.522c0,0 0.441,1.065 0.555,1.591c0.111,0.515 0.128,1.566 0.128,1.566l-0.372,0.165c0,0 -0.034,-1.132 -0.147,-1.658c-0.109,-0.506 -0.535,-1.5 -0.535,-1.5l0.372,-0.165Z"/><path d="M188.009,35.774c0,0 0.577,0.653 0.976,0.832c0.417,0.188 1.527,0.295 1.527,0.295l-0.313,0.26c0,0 -1.052,-0.081 -1.467,-0.268c-0.417,-0.188 -1.035,-0.859 -1.035,-0.859l0.313,-0.26Z"/><path d="M189.656,33.915l1.508,2.706l-0.356,0.198l-1.508,-2.706l0.356,-0.198Z"/><path d="M195.763,34.297l-1.146,2.878l-0.378,-0.151l1.146,-2.878l0.378,0.151Z"/></g><g id="soap-front" serif:id="soap front"><path d="M72.992,112.994c-0.504,0.321 -1.101,0.506 -1.742,0.506c-1.794,0 -3.25,-1.456 -3.25,-3.25c0,-1.367 0.845,-2.537 2.041,-3.017c0.248,-1.548 1.591,-2.733 3.209,-2.733c1.467,0 2.709,0.974 3.112,2.311c0.421,-0.199 0.892,-0.311 1.388,-0.311c1.548,0 2.845,1.085 3.171,2.535c0.208,0.035 0.408,0.097 0.595,0.18c0.141,-1.246 1.2,-2.215 2.484,-2.215c1.38,0 2.5,1.12 2.5,2.5c0,1.38 -1.12,2.5 -2.5,2.5c-0.362,-0 -0.706,-0.077 -1.016,-0.215c-0.141,1.246 -1.2,2.215 -2.484,2.215c-0.85,0 -1.602,-0.425 -2.054,-1.075c-0.224,0.049 -0.457,0.075 -0.696,0.075c-0.502,0 -0.977,-0.114 -1.402,-0.317c-0.457,0.502 -1.116,0.817 -1.848,0.817c-0.566,0 -1.089,-0.189 -1.508,-0.506Z" style="fill:#fff;stroke:#000;stroke-width:0.3px;"/><path d="M242.807,110.338c-0.592,0.077 -1.212,-0.008 -1.793,-0.279c-1.625,-0.76 -2.328,-2.696 -1.568,-4.32c0.579,-1.238 1.84,-1.941 3.127,-1.869c0.88,-1.297 2.599,-1.802 4.064,-1.117c1.329,0.621 2.041,2.03 1.841,3.411c0.466,-0.002 0.939,0.096 1.389,0.306c1.403,0.656 2.118,2.188 1.799,3.64c0.174,0.12 0.328,0.26 0.463,0.415c0.656,-1.069 2.026,-1.499 3.188,-0.955c1.25,0.584 1.79,2.073 1.206,3.323c-0.584,1.25 -2.073,1.79 -3.323,1.206c-0.328,-0.153 -0.607,-0.369 -0.829,-0.625c-0.656,1.069 -2.026,1.499 -3.188,0.955c-0.77,-0.36 -1.271,-1.064 -1.405,-1.843c-0.224,-0.051 -0.446,-0.126 -0.662,-0.227c-0.455,-0.212 -0.837,-0.517 -1.135,-0.881c-0.627,0.261 -1.357,0.268 -2.021,-0.042c-0.513,-0.24 -0.906,-0.632 -1.152,-1.097Z" style="fill:#fff;stroke:#000;stroke-width:0.3px;"/><path d="M293.446,113.911c-0.123,0.584 -0.409,1.141 -0.857,1.599c-1.255,1.282 -3.314,1.303 -4.596,0.048c-0.976,-0.956 -1.222,-2.379 -0.728,-3.569c-0.933,-1.26 -0.839,-3.049 0.293,-4.205c1.027,-1.048 2.591,-1.254 3.828,-0.607c0.152,-0.44 0.402,-0.855 0.749,-1.209c1.083,-1.106 2.766,-1.274 4.03,-0.492c0.171,-0.124 0.354,-0.224 0.545,-0.299c-0.791,-0.973 -0.743,-2.408 0.155,-3.325c0.965,-0.986 2.549,-1.003 3.535,-0.037c0.986,0.965 1.003,2.549 0.037,3.535c-0.253,0.258 -0.549,0.45 -0.865,0.575c0.791,0.973 0.743,2.408 -0.155,3.325c-0.595,0.608 -1.425,0.847 -2.205,0.715c-0.122,0.195 -0.266,0.379 -0.434,0.55c-0.351,0.359 -0.765,0.618 -1.207,0.779c0.039,0.678 -0.197,1.37 -0.709,1.893c-0.396,0.405 -0.896,0.646 -1.417,0.723Z" style="fill:#fff;stroke:#000;stroke-width:0.3px;"/><path d="M169.86,106.69c-0.391,0.079 -0.832,0.017 -1.233,-0.204c-0.817,-0.45 -1.164,-1.391 -0.773,-2.1c0.306,-0.557 0.976,-0.806 1.645,-0.671c0.641,-0.663 1.768,-0.8 2.731,-0.27c0.147,0.081 0.283,0.174 0.408,0.276c0.601,-0.21 1.329,-0.157 1.982,0.202c0.537,0.295 0.926,0.745 1.127,1.24c0.309,0.041 0.621,0.141 0.917,0.304c0.548,0.301 0.942,0.764 1.139,1.271c0.377,-0.062 0.795,0.003 1.178,0.214c0.709,0.39 1.064,1.151 0.89,1.809c0.146,0.039 0.29,0.097 0.43,0.174c0.662,0.364 1.015,1.051 0.918,1.676c0.271,-0.057 0.578,-0.015 0.857,0.138c0.562,0.309 0.8,0.956 0.532,1.444c-0.268,0.488 -0.942,0.633 -1.504,0.323c-0.374,-0.206 -0.604,-0.561 -0.638,-0.92c-0.46,0.214 -1.053,0.198 -1.579,-0.091c-0.709,-0.39 -1.064,-1.151 -0.89,-1.809c-0.146,-0.039 -0.29,-0.097 -0.43,-0.174c-0.221,-0.122 -0.407,-0.279 -0.554,-0.458c-0.648,0.358 -1.524,0.361 -2.294,-0.063c-0.537,-0.295 -0.926,-0.745 -1.127,-1.24c-0.309,-0.041 -0.621,-0.141 -0.917,-0.304c-0.147,-0.081 -0.283,-0.174 -0.408,-0.276c-0.601,0.21 -1.329,0.157 -1.982,-0.202c-0.154,-0.085 -0.296,-0.182 -0.424,-0.29Z" style="fill:#fff;stroke:#000;stroke-width:0.3px;"/><path d="M199.801,41.875c-0.403,0.084 -0.855,0.078 -1.312,-0.037c-1.279,-0.322 -2.118,-1.376 -1.872,-2.352c0.187,-0.744 0.95,-1.229 1.869,-1.275c0.389,-0.798 1.509,-1.201 2.663,-0.911c1.046,0.263 1.798,1.016 1.903,1.816c0.328,-0.033 0.678,-0.009 1.032,0.08c1.104,0.278 1.88,1.101 1.914,1.949c0.144,0.057 0.277,0.126 0.4,0.205c0.272,-0.653 1.159,-0.99 2.075,-0.759c0.984,0.248 1.629,1.058 1.44,1.809c-0.189,0.751 -1.141,1.159 -2.125,0.911c-0.258,-0.065 -0.493,-0.169 -0.695,-0.3c-0.272,0.653 -1.159,0.99 -2.075,0.759c-0.606,-0.153 -1.084,-0.519 -1.317,-0.954c-0.167,-0.014 -0.336,-0.041 -0.507,-0.084c-0.358,-0.09 -0.681,-0.237 -0.956,-0.424c-0.395,0.191 -0.908,0.244 -1.43,0.113c-0.404,-0.102 -0.751,-0.298 -1.006,-0.546Z" style="fill:#fff;stroke:#000;stroke-width:0.3px;"/><path d="M205.499,117.869c-0.24,0.379 -0.663,0.631 -1.145,0.631c-0.747,0 -1.354,-0.607 -1.354,-1.354c0,-0.65 0.46,-1.194 1.071,-1.325c0.13,-0.612 0.674,-1.071 1.325,-1.071c0.309,0 0.593,0.104 0.821,0.278c0.135,-0.045 0.279,-0.069 0.429,-0.069c0.747,0 1.354,0.607 1.354,1.354c0,0.48 -0.251,0.902 -0.628,1.143c-0.24,0.377 -0.663,0.628 -1.143,0.628c-0.269,0 -0.52,-0.079 -0.73,-0.214Z" style="fill:#fff;stroke:#000;stroke-width:0.3px;"/><path d="M220.915,91.235c-0.448,-0.023 -0.875,-0.268 -1.112,-0.687c-0.367,-0.651 -0.137,-1.478 0.514,-1.845c0.567,-0.319 1.266,-0.186 1.68,0.282c0.597,-0.187 1.264,0.061 1.584,0.627c0.152,0.269 0.201,0.568 0.162,0.852c0.105,0.095 0.197,0.209 0.271,0.339c0.367,0.651 0.137,1.478 -0.514,1.845c-0.418,0.236 -0.909,0.225 -1.304,0.014c-0.447,-0.024 -0.872,-0.269 -1.108,-0.687c-0.132,-0.234 -0.187,-0.491 -0.172,-0.741Z" style="fill:#fff;stroke:#000;stroke-width:0.3px;"/><path d="M123.268,106.321c0.418,-0.269 1.138,-0.078 1.689,0.472c0.602,0.602 0.774,1.408 0.384,1.798c-0.252,0.252 -0.677,0.27 -1.109,0.088c-0.418,0.269 -1.138,0.078 -1.689,-0.472c-0.602,-0.602 -0.774,-1.408 -0.384,-1.798c0.252,-0.252 0.677,-0.27 1.109,-0.088Z" style="fill:#dbf6ff;"/><path d="M242.268,108.235c0.418,0.269 1.138,0.078 1.689,-0.472c0.602,-0.602 0.774,-1.408 0.384,-1.798c-0.252,-0.252 -0.677,-0.27 -1.109,-0.088c-0.418,-0.269 -1.138,-0.078 -1.689,0.472c-0.602,0.602 -0.774,1.408 -0.384,1.798c0.252,0.252 0.677,0.27 1.109,0.088Z" style="fill:#dbf6ff;"/><path d="M274.268,107.735c0.418,0.269 1.138,0.078 1.689,-0.472c0.602,-0.602 0.774,-1.408 0.384,-1.798c-0.252,-0.252 -0.677,-0.27 -1.109,-0.088c-0.418,-0.269 -1.138,-0.078 -1.689,0.472c-0.602,0.602 -0.774,1.408 -0.384,1.798c0.252,0.252 0.677,0.27 1.109,0.088Z" style="fill:#dbf6ff;"/><path d="M289.902,114.688c0.302,0.373 0.822,0.109 1.22,-0.654c0.435,-0.834 0.559,-1.949 0.277,-2.49c-0.182,-0.349 -0.489,-0.373 -0.801,-0.122c-0.302,-0.373 -0.822,-0.109 -1.22,0.654c-0.435,0.834 -0.559,1.949 -0.277,2.49c0.182,0.349 0.489,0.373 0.801,0.122Z" style="fill:#dbf6ff;"/><path d="M253.902,112.768c0.302,0.195 0.822,0.057 1.22,-0.341c0.435,-0.435 0.559,-1.017 0.277,-1.299c-0.182,-0.182 -0.489,-0.195 -0.801,-0.064c-0.302,-0.195 -0.822,-0.057 -1.22,0.341c-0.435,0.435 -0.559,1.017 -0.277,1.299c0.182,0.182 0.489,0.195 0.801,0.064Z" style="fill:#dbf6ff;"/><path d="M171.022,105.533c0.319,0.317 1.028,0.492 1.667,0.397c0.699,-0.104 1.052,-0.492 0.788,-0.867c-0.171,-0.242 -0.558,-0.419 -0.999,-0.486c-0.319,-0.317 -1.028,-0.492 -1.667,-0.397c-0.699,0.104 -1.052,0.492 -0.788,0.867c0.171,0.242 0.558,0.419 0.999,0.486Z" style="fill:#dbf6ff;"/><path d="M104.146,103.588c-0.01,-0.635 0.683,-1.288 1.652,-1.514c1.06,-0.247 2.05,0.11 2.21,0.797c0.103,0.444 -0.165,0.917 -0.653,1.263c0.01,0.635 -0.683,1.288 -1.652,1.514c-1.06,0.247 -2.05,-0.11 -2.21,-0.797c-0.103,-0.444 0.165,-0.917 0.653,-1.263Z" style="fill:#dbf6ff;"/><path d="M71.354,108.473c-0.007,-0.454 0.488,-0.92 1.18,-1.081c0.757,-0.176 1.464,0.079 1.579,0.569c0.074,0.317 -0.118,0.655 -0.466,0.902c0.007,0.454 -0.488,0.92 -1.18,1.081c-0.757,0.176 -1.464,-0.079 -1.579,-0.569c-0.074,-0.317 0.118,-0.655 0.466,-0.902Z" style="fill:#dbf6ff;"/></g></g></svg>