<?xml version="1.0" encoding="UTF-8" standalone="no"?><!DOCTYPE svg PUBLIC "-//W3C//DTD SVG 1.1//EN" "http://www.w3.org/Graphics/SVG/1.1/DTD/svg11.dtd"><svg width="100%" height="100%" viewBox="0 0 400 58" version="1.1" xmlns="http://www.w3.org/2000/svg" xmlns:xlink="http://www.w3.org/1999/xlink" xml:space="preserve" xmlns:serif="http://www.serif.com/" style="fill-rule:evenodd;clip-rule:evenodd;stroke-linejoin:round;stroke-miterlimit:2;"><rect id="selfcare2" x="0" y="0" width="400" height="57.5" style="fill:none;"/><clipPath id="_clip1"><rect id="selfcare21" serif:id="selfcare2" x="0" y="0" width="400" height="57.5"/></clipPath><g clip-path="url(#_clip1)"><g id="grid"><rect x="147.734" y="12.887" width="2.923" height="0.299"/><rect x="156.504" y="12.887" width="2.923" height="0.299"/><rect x="154.311" y="12.887" width="0.974" height="0.299"/><rect x="151.632" y="12.887" width="0.487" height="0.299"/><rect x="161.375" y="12.887" width="0.487" height="0.299"/><rect x="240.544" y="12.887" width="8.039" height="0.299"/><rect x="236.402" y="12.887" width="3.167" height="0.299"/><rect x="163.568" y="12.887" width="71.86" height="0.299"/><rect x="154.311" y="20.195" width="77.219" height="0.299"/><rect x="237.377" y="20.195" width="6.09" height="0.299"/><rect x="236.402" y="20.195" width="0.487" height="0.299"/><rect x="244.685" y="20.195" width="1.218" height="0.299"/><rect x="246.633" y="20.195" width="0.487" height="0.299"/><rect x="232.992" y="20.195" width="1.705" height="0.299"/><rect x="151.145" y="27.502" width="101.335" height="0.299"/><rect x="156.016" y="34.81" width="86.963" height="0.299"/><rect x="163.324" y="42.118" width="69.181" height="0.299"/><rect x="178.671" y="49.426" width="45.552" height="0.299"/><path d="M179.949,54.048l-0.299,0l0,-41.069l0.299,-0l0,41.069Z"/><path d="M187.257,56.484l-0.299,0l0,-54.846l0.299,0l0,54.846Z"/><path d="M194.565,51.369l-0.299,0l0,-40.18l0.299,-0l0,40.18Z"/><path d="M201.873,55.266l-0.299,0l0,-39.9l0.299,0l0,39.9Z"/><path d="M209.181,54.536l-0.299,0l0,-45.138l0.299,0l0,45.138Z"/><path d="M216.489,56.484l-0.299,0l0,-50.668l0.299,-0l0,50.668Z"/><path d="M223.309,51.369l-0.299,0l0,-50.924l0.299,0l0,50.924Z"/><path d="M230.617,43.574l-0.299,0l0,-35.37l0.299,-0l0,35.37Z"/><path d="M237.925,39.676l-0.299,0l0,-26.697l0.299,0l0,26.697Z"/><path d="M245.233,32.125l-0.299,0l0,-26.308l0.299,-0l0,26.308Z"/><path d="M158.27,37.728l-0.299,0l0,-31.911l0.299,0l0,31.911Z"/><path d="M165.577,48.446l-0.299,0l0,-31.288l0.299,0l0,31.288Z"/><path d="M172.885,45.279l-0.299,0l0,-39.462l0.299,-0l0,39.462Z"/><circle cx="245.105" cy="20.309" r="0.545"/><circle cx="245.105" cy="13.048" r="0.545"/><circle cx="245.107" cy="27.749" r="0.542"/><circle cx="237.726" cy="20.309" r="0.545"/><circle cx="237.726" cy="13.048" r="0.545"/><circle cx="237.729" cy="27.749" r="0.542"/><circle cx="237.729" cy="35.01" r="0.542"/><circle cx="230.465" cy="20.309" r="0.545"/><circle cx="230.465" cy="13.048" r="0.545"/><circle cx="230.467" cy="27.749" r="0.542"/><circle cx="230.464" cy="35.01" r="0.542"/><circle cx="230.464" cy="42.272" r="0.542"/><circle cx="223.202" cy="35.01" r="0.542"/><circle cx="223.202" cy="42.272" r="0.542"/><circle cx="223.202" cy="49.651" r="0.542"/><circle cx="216.292" cy="35.01" r="0.542"/><circle cx="216.292" cy="42.272" r="0.542"/><circle cx="216.292" cy="49.651" r="0.542"/><circle cx="209.03" cy="35.01" r="0.542"/><circle cx="209.03" cy="42.272" r="0.542"/><circle cx="209.03" cy="49.651" r="0.542"/><circle cx="201.769" cy="35.01" r="0.542"/><circle cx="201.769" cy="42.272" r="0.542"/><circle cx="201.769" cy="49.651" r="0.542"/><circle cx="194.39" cy="35.01" r="0.542"/><circle cx="194.39" cy="42.272" r="0.542"/><circle cx="194.39" cy="49.651" r="0.542"/><circle cx="187.128" cy="35.01" r="0.542"/><circle cx="187.128" cy="42.272" r="0.542"/><circle cx="187.128" cy="49.651" r="0.542"/><circle cx="179.867" cy="35.01" r="0.542"/><circle cx="179.867" cy="42.272" r="0.542"/><circle cx="172.722" cy="35.01" r="0.542"/><circle cx="172.722" cy="42.272" r="0.542"/><circle cx="165.461" cy="35.01" r="0.542"/><circle cx="158.082" cy="35.01" r="0.542"/><circle cx="165.461" cy="42.272" r="0.542"/><circle cx="179.867" cy="49.651" r="0.542"/><circle cx="223.203" cy="20.309" r="0.545"/><circle cx="223.203" cy="13.048" r="0.545"/><circle cx="223.205" cy="27.749" r="0.542"/><circle cx="187.129" cy="20.309" r="0.545"/><circle cx="187.129" cy="13.048" r="0.545"/><circle cx="187.132" cy="27.749" r="0.542"/><circle cx="179.751" cy="20.309" r="0.545"/><circle cx="179.751" cy="13.048" r="0.545"/><circle cx="179.753" cy="27.749" r="0.542"/><circle cx="172.723" cy="20.309" r="0.545"/><circle cx="172.723" cy="13.048" r="0.545"/><circle cx="172.726" cy="27.749" r="0.542"/><circle cx="165.462" cy="20.309" r="0.545"/><circle cx="165.464" cy="27.749" r="0.542"/><circle cx="158.083" cy="20.309" r="0.545"/><circle cx="158.083" cy="13.048" r="0.545"/><circle cx="158.085" cy="27.749" r="0.542"/><circle cx="216.293" cy="20.309" r="0.545"/><circle cx="216.293" cy="13.048" r="0.545"/><circle cx="216.295" cy="27.749" r="0.542"/></g><g id="particles"><path d="M209.284,44.674c0.3,0 0.544,0.244 0.544,0.544c0,0.3 -0.244,0.544 -0.544,0.544c-0.3,0 -0.544,-0.244 -0.544,-0.544c0,-0.3 0.244,-0.544 0.544,-0.544Zm0,0.358c-0.103,0 -0.186,0.083 -0.186,0.186c0,0.103 0.083,0.186 0.186,0.186c0.103,0 0.186,-0.083 0.186,-0.186c0,-0.103 -0.083,-0.186 -0.186,-0.186Z"/><path d="M199.734,18.412c0.3,0 0.544,0.244 0.544,0.544c0,0.3 -0.244,0.544 -0.544,0.544c-0.3,0 -0.544,-0.244 -0.544,-0.544c0,-0.3 0.244,-0.544 0.544,-0.544Zm0,0.358c-0.103,0 -0.186,0.083 -0.186,0.186c0,0.103 0.083,0.186 0.186,0.186c0.103,0 0.186,-0.083 0.186,-0.186c0,-0.103 -0.083,-0.186 -0.186,-0.186Z"/><path d="M178.844,31.543c0.3,0 0.544,0.244 0.544,0.544c0,0.3 -0.244,0.544 -0.544,0.544c-0.3,0 -0.544,-0.244 -0.544,-0.544c0,-0.3 0.244,-0.544 0.544,-0.544Zm0,0.358c-0.103,0 -0.186,0.083 -0.186,0.186c0,0.103 0.083,0.186 0.186,0.186c0.103,0 0.186,-0.083 0.186,-0.186c0,-0.103 -0.083,-0.186 -0.186,-0.186Z"/><path d="M178.844,5.878c0.3,0 0.544,0.244 0.544,0.544c0,0.3 -0.244,0.544 -0.544,0.544c-0.3,0 -0.544,-0.244 -0.544,-0.544c0,-0.3 0.244,-0.544 0.544,-0.544Zm0,0.358c-0.103,0 -0.186,0.083 -0.186,0.186c0,0.103 0.083,0.186 0.186,0.186c0.103,0 0.186,-0.083 0.186,-0.186c0,-0.103 -0.083,-0.186 -0.186,-0.186Z"/><path d="M225.996,5.878c0.3,0 0.544,0.244 0.544,0.544c0,0.3 -0.244,0.544 -0.544,0.544c-0.3,0 -0.544,-0.244 -0.544,-0.544c0,-0.3 0.244,-0.544 0.544,-0.544Zm0,0.358c-0.103,0 -0.186,0.083 -0.186,0.186c0,0.103 0.083,0.186 0.186,0.186c0.103,0 0.186,-0.083 0.186,-0.186c0,-0.103 -0.083,-0.186 -0.186,-0.186Z"/><g id="partical_big"><circle cx="174.79" cy="28.871" r="0.853" style="fill:#fff;"/><path d="M174.79,27.84c0.569,0 1.032,0.462 1.032,1.032c0,0.569 -0.462,1.032 -1.032,1.032c-0.569,0 -1.032,-0.462 -1.032,-1.032c0,-0.569 0.462,-1.032 1.032,-1.032Zm0,0.358c-0.372,0 -0.674,0.302 -0.674,0.674c0,0.372 0.302,0.674 0.674,0.674c0.372,0 0.674,-0.302 0.674,-0.674c0,-0.372 -0.302,-0.674 -0.674,-0.674Z"/></g><g id="partical_big1" serif:id="partical_big"><circle cx="198.068" cy="21.709" r="0.853" style="fill:#fff;"/><path d="M198.068,20.677c0.569,0 1.032,0.462 1.032,1.032c0,0.569 -0.462,1.032 -1.032,1.032c-0.569,0 -1.032,-0.462 -1.032,-1.032c0,-0.569 0.462,-1.032 1.032,-1.032Zm0,0.358c-0.372,0 -0.674,0.302 -0.674,0.674c0,0.372 0.302,0.674 0.674,0.674c0.372,0 0.674,-0.302 0.674,-0.674c0,-0.372 -0.302,-0.674 -0.674,-0.674Z"/></g><g id="partical_big2" serif:id="partical_big"><circle cx="194.487" cy="4.996" r="0.853" style="fill:#fff;"/><path d="M194.487,3.965c0.569,0 1.032,0.462 1.032,1.032c0,0.569 -0.462,1.032 -1.032,1.032c-0.569,0 -1.032,-0.462 -1.032,-1.032c0,-0.569 0.462,-1.032 1.032,-1.032Zm0,0.358c-0.372,0 -0.674,0.302 -0.674,0.674c0,0.372 0.302,0.674 0.674,0.674c0.372,0 0.674,-0.302 0.674,-0.674c0,-0.372 -0.302,-0.674 -0.674,-0.674Z"/></g><g id="particle_small"><circle cx="208.65" cy="18.566" r="0.365" style="fill:#dbf6ff;"/><path d="M208.65,18.022c0.3,0 0.544,0.244 0.544,0.544c0,0.3 -0.244,0.544 -0.544,0.544c-0.3,0 -0.544,-0.244 -0.544,-0.544c0,-0.3 0.244,-0.544 0.544,-0.544Zm0,0.358c-0.103,0 -0.186,0.083 -0.186,0.186c0,0.103 0.083,0.186 0.186,0.186c0.103,0 0.186,-0.083 0.186,-0.186c0,-0.103 -0.083,-0.186 -0.186,-0.186Z"/></g><g id="particle_small1" serif:id="particle_small"><circle cx="200.891" cy="10.807" r="0.365" style="fill:#dbf6ff;"/><path d="M200.891,10.262c0.3,0 0.544,0.244 0.544,0.544c0,0.3 -0.244,0.544 -0.544,0.544c-0.3,0 -0.544,-0.244 -0.544,-0.544c0,-0.3 0.244,-0.544 0.544,-0.544Zm0,0.358c-0.103,0 -0.186,0.083 -0.186,0.186c0,0.103 0.083,0.186 0.186,0.186c0.103,0 0.186,-0.083 0.186,-0.186c0,-0.103 -0.083,-0.186 -0.186,-0.186Z"/></g><g id="particle_small2" serif:id="particle_small"><circle cx="195.519" cy="16.776" r="0.365" style="fill:#dbf6ff;"/><path d="M195.519,16.231c0.3,0 0.544,0.244 0.544,0.544c0,0.3 -0.244,0.544 -0.544,0.544c-0.3,0 -0.544,-0.244 -0.544,-0.544c0,-0.3 0.244,-0.544 0.544,-0.544Zm0,0.358c-0.103,0 -0.186,0.083 -0.186,0.186c0,0.103 0.083,0.186 0.186,0.186c0.103,0 0.186,-0.083 0.186,-0.186c0,-0.103 -0.083,-0.186 -0.186,-0.186Z"/></g><g id="particle_small3" serif:id="particle_small"><circle cx="168.66" cy="18.566" r="0.365" style="fill:#dbf6ff;"/><path d="M168.66,18.022c0.3,0 0.544,0.244 0.544,0.544c0,0.3 -0.244,0.544 -0.544,0.544c-0.3,0 -0.544,-0.244 -0.544,-0.544c0,-0.3 0.244,-0.544 0.544,-0.544Zm0,0.358c-0.103,0 -0.186,0.083 -0.186,0.186c0,0.103 0.083,0.186 0.186,0.186c0.103,0 0.186,-0.083 0.186,-0.186c0,-0.103 -0.083,-0.186 -0.186,-0.186Z"/></g><g id="particle_small4" serif:id="particle_small"><circle cx="178.807" cy="12.597" r="0.365" style="fill:#dbf6ff;"/><path d="M178.807,12.053c0.3,0 0.544,0.244 0.544,0.544c0,0.3 -0.244,0.544 -0.544,0.544c-0.3,0 -0.544,-0.244 -0.544,-0.544c0,-0.3 0.244,-0.544 0.544,-0.544Zm0,0.358c-0.103,0 -0.186,0.083 -0.186,0.186c0,0.103 0.083,0.186 0.186,0.186c0.103,0 0.186,-0.083 0.186,-0.186c0,-0.103 -0.083,-0.186 -0.186,-0.186Z"/></g><path d="M207.203,12.394c0.569,0 1.032,0.462 1.032,1.032c0,0.569 -0.462,1.032 -1.032,1.032c-0.569,0 -1.032,-0.462 -1.032,-1.032c0,-0.569 0.462,-1.032 1.032,-1.032Zm0,0.358c-0.372,0 -0.674,0.302 -0.674,0.674c0,0.372 0.302,0.674 0.674,0.674c0.372,0 0.674,-0.302 0.674,-0.674c0,-0.372 -0.302,-0.674 -0.674,-0.674Z"/><path d="M169.003,38.656c0.569,0 1.032,0.462 1.032,1.032c0,0.569 -0.462,1.032 -1.032,1.032c-0.569,0 -1.032,-0.462 -1.032,-1.032c0,-0.569 0.462,-1.032 1.032,-1.032Zm0,0.358c-0.372,0 -0.674,0.302 -0.674,0.674c0,0.372 0.302,0.674 0.674,0.674c0.372,0 0.674,-0.302 0.674,-0.674c0,-0.372 -0.302,-0.674 -0.674,-0.674Z"/><path d="M175.568,8.215c0.569,0 1.032,0.462 1.032,1.032c0,0.569 -0.462,1.032 -1.032,1.032c-0.569,0 -1.032,-0.462 -1.032,-1.032c0,-0.569 0.462,-1.032 1.032,-1.032Zm0,0.358c-0.372,0 -0.674,0.302 -0.674,0.674c0,0.372 0.302,0.674 0.674,0.674c0.372,0 0.674,-0.302 0.674,-0.674c0,-0.372 -0.302,-0.674 -0.674,-0.674Z"/></g><g id="duck"><path d="M172.984,23.16c-0.142,-0.069 -0.238,-0.206 -0.254,-0.363c-0.016,-0.157 0.049,-0.311 0.173,-0.408c1.126,-0.88 3.51,-2.744 3.51,-2.744l0.576,5.467c0,-0 -2.72,-1.326 -4.005,-1.953Z" style="fill:#ffa345;"/><path d="M173.033,23.383c-0.224,-0.109 -0.377,-0.327 -0.403,-0.575c-0.026,-0.248 0.077,-0.493 0.274,-0.646l3.399,-2.657c0.051,-0.04 0.12,-0.049 0.18,-0.024c0.06,0.025 0.101,0.081 0.108,0.146c0,0 -0.416,0.528 -0.325,2.585c0.04,0.915 0.9,2.882 0.9,2.882c0.007,0.065 -0.022,0.128 -0.075,0.165c-0.053,0.037 -0.123,0.043 -0.181,0.014l-3.877,-1.891Zm0.157,-0.322l3.587,1.749c0,0 -0.78,-2.338 -0.865,-3.142c-0.081,-0.765 0.357,-1.682 0.357,-1.682l-3.144,2.458c-0.099,0.078 -0.152,0.201 -0.139,0.327c0.013,0.126 0.09,0.235 0.204,0.291Z"/><path d="M182.922,29.934c-3.899,-1.122 -6.757,-4.716 -6.76,-8.975c-0.004,-5.158 4.18,-9.349 9.337,-9.354c5.158,-0.004 9.349,4.18 9.354,9.337c0.001,1.693 -0.448,3.282 -1.236,4.653c0.787,-0.173 1.592,-0.323 2.412,-0.451c2.996,-0.465 5.884,-0.385 8.541,-0.361c3.655,0.033 9.082,-1.065 13.974,-3c1.902,-0.752 -0.253,7.002 -0.812,10.562c-0.896,5.695 -7.404,11.72 -18.497,13.442c-11.093,1.722 -20.818,-1.504 -21.702,-7.201c-0.469,-3.023 1.644,-6.138 5.39,-8.653Z" style="fill:#ffbd4b;"/><path d="M217.321,22.056c0.388,-0.141 0.774,-0.287 1.157,-0.439c0.191,-0.076 0.352,-0.079 0.486,-0.034c0.139,0.047 0.254,0.15 0.339,0.309c0.132,0.245 0.193,0.65 0.189,1.17c-0.016,2.252 -1.191,6.813 -1.584,9.311c-0.904,5.747 -7.452,11.853 -18.646,13.591c-4.066,0.631 -7.949,0.6 -11.286,0.029l0.074,-0.349c3.298,0.563 7.137,0.591 11.157,-0.033c10.992,-1.707 17.46,-7.65 18.347,-13.293c0.391,-2.485 1.563,-7.019 1.579,-9.258c0.003,-0.361 -0.024,-0.659 -0.094,-0.873c-0.039,-0.119 -0.087,-0.209 -0.163,-0.252c-0.07,-0.039 -0.157,-0.027 -0.266,0.016c-0.381,0.151 -0.765,0.296 -1.152,0.437l-0.137,-0.331Zm-0.413,0.527c-0.236,0.082 -0.473,0.163 -0.71,0.241l-0.138,-0.332c0.237,-0.078 0.474,-0.159 0.71,-0.241l0.137,0.331Zm-1.266,0.422c-4.039,1.282 -8.128,1.984 -11.073,1.958c-0.517,-0.005 -1.042,-0.011 -1.575,-0.016l-0.014,-0.358c0.539,0.004 1.07,0.011 1.592,0.016c2.908,0.026 6.943,-0.668 10.932,-1.931l0.138,0.332Zm-16.815,2.023c-0.397,0.025 -0.796,0.056 -1.198,0.096l-0.044,-0.355c0.412,-0.041 0.822,-0.073 1.228,-0.098l0.014,0.358Zm-1.779,0.159c-0.198,0.023 -0.397,0.049 -0.596,0.077l-0.044,-0.356c0.199,-0.028 0.398,-0.053 0.596,-0.077l0.044,0.355Zm-1.174,0.164c-0.753,0.121 -1.493,0.261 -2.218,0.42c-0.069,0.015 -0.141,-0.012 -0.183,-0.069c-0.042,-0.057 -0.046,-0.134 -0.011,-0.195c0.772,-1.345 1.213,-2.903 1.212,-4.563c-0.004,-5.059 -4.115,-9.163 -9.174,-9.159c-5.059,0.004 -9.163,4.115 -9.159,9.174c0.002,2.445 0.963,4.666 2.526,6.309l-0.247,0.259c-1.632,-1.708 -2.635,-4.022 -2.637,-6.568c-0.005,-5.257 4.26,-9.528 9.516,-9.533c5.257,-0.005 9.528,4.26 9.533,9.516c0.001,1.585 -0.385,3.08 -1.07,4.396c0.613,-0.128 1.236,-0.243 1.868,-0.344l0.044,0.356Zm-11.935,19.593c-0.271,-0.099 -0.536,-0.203 -0.794,-0.311l0.131,-0.333c0.24,0.101 0.486,0.198 0.737,0.291l-0.075,0.354Zm-1.328,-0.547c-0.112,-0.052 -0.222,-0.104 -0.33,-0.158c-0.56,-0.275 -1.08,-0.574 -1.557,-0.895l0.215,-0.286c0.46,0.308 0.961,0.595 1.5,0.86c0.1,0.049 0.201,0.098 0.304,0.145l-0.132,0.334Zm-2.363,-1.391c-1.604,-1.208 -2.628,-2.695 -2.892,-4.391c-0.465,-2.996 1.538,-6.094 5.159,-8.619c-0.384,-0.127 -0.757,-0.278 -1.118,-0.451l0.172,-0.315c0.449,0.214 0.917,0.393 1.403,0.532c0.067,0.019 0.117,0.076 0.127,0.144c0.011,0.069 -0.019,0.138 -0.077,0.176c-3.675,2.468 -5.773,5.511 -5.312,8.477c0.25,1.611 1.229,3.015 2.752,4.16l-0.214,0.286Zm0.049,-14.083c-0.257,-0.169 -0.506,-0.349 -0.745,-0.541l0.248,-0.26c0.215,0.172 0.439,0.334 0.669,0.486l-0.172,0.315Z"/><g id="eye"><path d="M183.473,19.164c0.065,0.067 0.157,0.14 0.238,0.2c-0.006,-0.003 -0.013,-0.005 -0.018,-0.008c-0.071,-0.034 -0.152,-0.113 -0.22,-0.192Z" style="fill:#711e00;"/><path d="M183.473,19.164c0.065,0.067 0.157,0.14 0.238,0.2c-0.006,-0.003 -0.013,-0.005 -0.018,-0.008c-0.071,-0.034 -0.152,-0.113 -0.22,-0.192Z" style="fill:#711e00;"/></g><path d="M183.194,19.385c-0.054,0.036 -0.09,0.052 -0.09,0.052c0,0 -0.955,0.738 -1.392,0.798c-0.43,0.059 -1.23,-0.438 -1.23,-0.438c0,0 -0.487,-0.305 -0.424,-0.944c0.07,-0.709 0.54,-0.234 0.54,-0.234c0,0 0.796,0.497 1.224,0.439c0.437,-0.06 1.399,-0.799 1.399,-0.799c0,0 0.562,-0.445 0.491,0.264c-0,0.002 -0,0.004 -0.001,0.007c0.083,0.045 0.172,0.084 0.242,0.091c0.186,0.018 0.625,-0.139 0.625,-0.139c0,0 0.257,-0.096 0.192,0.129c-0.061,0.211 -0.301,0.246 -0.301,0.246c0,0 -0.432,0.156 -0.62,0.14c0.023,0.018 0.046,0.032 0.068,0.043c0.169,0.08 0.636,0.079 0.636,0.079c0,0 0.275,-0.004 0.137,0.186c-0.129,0.178 -0.366,0.13 -0.366,0.13c0,0 -0.433,0.002 -0.615,-0.07c-0.081,-0.06 -0.173,-0.133 -0.238,-0.2c-0.005,-0.006 -0.01,-0.012 -0.015,-0.018c-0,0 -0.001,0.001 -0.001,0.001c0.005,0.006 0.011,0.011 0.016,0.017c0.068,0.079 0.148,0.158 0.22,0.192c0.006,0.003 0.012,0.005 0.018,0.008c0.102,0.075 0.189,0.131 0.189,0.131c0,0 0.233,0.145 0.015,0.231c-0.204,0.08 -0.378,-0.088 -0.378,-0.088c0,0 -0.194,-0.123 -0.343,-0.252Z"/><path d="M212.558,30.847c0,0 1.21,9.522 -14.781,8.863c-5.543,-0.229 -4.292,-4.27 -4.564,-4.502c-0.847,-0.725 3.164,-0.462 3.164,-0.462c0,0 7.53,-1.095 11.086,-2.161c3.416,-1.025 5.095,-1.738 5.095,-1.738Z" style="fill:#954e2a;fill-opacity:0.19;"/><path d="M202.046,28.544c1.434,-0.223 2.817,-0.185 4.089,-0.173c1.75,0.016 4.348,-0.51 6.69,-1.436c0.91,-0.36 -0.121,3.352 -0.389,5.056c-0.429,2.726 -3.544,5.611 -8.855,6.435c-5.311,0.825 -9.966,-0.72 -10.39,-3.447c-0.423,-2.727 3.544,-5.611 8.855,-6.435Z" style="fill:#ffa345;"/><path d="M211.263,27.296c0.503,-0.157 1.005,-0.334 1.496,-0.528c0.144,-0.057 0.261,-0.044 0.353,0.007c0.086,0.048 0.157,0.136 0.201,0.269c0.041,0.123 0.06,0.294 0.058,0.503c-0.008,1.082 -0.571,3.272 -0.759,4.472c-0.266,1.692 -1.54,3.453 -3.718,4.762l-0.147,-0.324c2.051,-1.239 3.259,-2.889 3.511,-4.494c0.187,-1.186 0.747,-3.35 0.755,-4.419c0.001,-0.161 -0.009,-0.293 -0.041,-0.388c-0.006,-0.018 -0.012,-0.034 -0.02,-0.047c-0.005,-0.008 -0.006,-0.018 -0.013,-0.02c-0.014,-0.004 -0.03,0.004 -0.05,0.012c-0.512,0.203 -1.037,0.386 -1.563,0.549l-0.065,-0.355Zm-1.089,0.68c-0.221,0.056 -0.44,0.108 -0.657,0.156l-0.04,-0.357c0.209,-0.047 0.42,-0.097 0.632,-0.152l0.065,0.352Zm-1.833,0.383c-0.814,0.131 -1.568,0.197 -2.209,0.191c-1.263,-0.011 -2.636,-0.05 -4.06,0.171c-3.144,0.488 -5.814,1.703 -7.354,3.182c-0.992,0.952 -1.513,2.01 -1.352,3.049c0.161,1.04 0.979,1.889 2.213,2.496c1.672,0.822 4.101,1.192 6.781,0.949l0.038,0.356c-2.758,0.25 -5.257,-0.138 -6.977,-0.983c-1.356,-0.666 -2.231,-1.62 -2.409,-2.762c-0.177,-1.142 0.368,-2.316 1.458,-3.363c1.582,-1.519 4.319,-2.776 7.547,-3.277c1.444,-0.224 2.837,-0.187 4.118,-0.175c0.629,0.006 1.368,-0.059 2.165,-0.189l0.04,0.356Zm-2.173,9.644c-0.237,0.077 -0.48,0.149 -0.73,0.216l-0.068,-0.352c0.221,-0.06 0.438,-0.124 0.649,-0.191l0.148,0.327Zm-1.893,0.485c-0.218,0.042 -0.441,0.081 -0.667,0.116l-0.024,0.004l-0.038,-0.357l0.007,-0.001c0.222,-0.034 0.44,-0.073 0.655,-0.114l0.067,0.352Z"/></g><g id="soap1"><path d="M182.927,13.384c-0.285,0.259 -0.671,0.418 -1.096,0.418c-0.874,0 -1.583,-0.672 -1.583,-1.5c0,-0.828 0.709,-1.5 1.583,-1.5c0.05,0 0.1,0.002 0.148,0.007c0.137,-0.696 0.782,-1.224 1.557,-1.224c0.65,0 1.21,0.372 1.453,0.904c0.221,-0.111 0.472,-0.173 0.739,-0.173c0.05,0 0.1,0.002 0.148,0.007c0.137,-0.696 0.782,-1.224 1.557,-1.224c0.874,0 1.583,0.672 1.583,1.5c0,0.248 -0.064,0.482 -0.176,0.688c0.261,0.267 0.42,0.625 0.42,1.017c0,0.828 -0.709,1.5 -1.583,1.5c-0.529,0 -0.998,-0.247 -1.286,-0.625c-0.202,0.088 -0.426,0.138 -0.663,0.138c-0.165,0 -0.325,-0.024 -0.475,-0.069c-0.29,0.339 -0.734,0.556 -1.23,0.556c-0.425,0 -0.812,-0.159 -1.096,-0.418Z" style="fill:#fff;"/><path d="M182.927,13.616c-0.301,0.228 -0.682,0.365 -1.096,0.365c-0.975,0 -1.762,-0.755 -1.762,-1.679c0,-0.924 0.787,-1.679 1.762,-1.679l0.01,0c0.21,-0.701 0.888,-1.218 1.695,-1.218c0.658,0 1.232,0.345 1.534,0.852c0.203,-0.078 0.426,-0.121 0.659,-0.121l0.01,0c0.21,-0.701 0.888,-1.218 1.695,-1.218c0.975,0 1.762,0.755 1.762,1.679c0,0.234 -0.05,0.456 -0.141,0.658c0.241,0.287 0.385,0.651 0.385,1.047c0,0.924 -0.787,1.679 -1.762,1.679c-0.537,0 -1.018,-0.23 -1.341,-0.59c-0.189,0.066 -0.394,0.103 -0.608,0.103c-0.143,-0 -0.283,-0.016 -0.416,-0.047c-0.321,0.328 -0.78,0.535 -1.289,0.535c-0.415,0 -0.796,-0.137 -1.096,-0.365Zm0.121,-0.365c0.253,0.23 0.597,0.371 0.976,0.371c0.441,0 0.836,-0.192 1.094,-0.493c0.046,-0.054 0.119,-0.075 0.187,-0.055c0.134,0.04 0.276,0.061 0.424,0.061c0.211,0 0.411,-0.044 0.591,-0.123c0.076,-0.033 0.164,-0.01 0.214,0.056c0.256,0.336 0.673,0.554 1.143,0.554c0.772,0 1.404,-0.589 1.404,-1.321c0,-0.344 -0.14,-0.657 -0.369,-0.892c-0.055,-0.056 -0.067,-0.142 -0.029,-0.211c0.099,-0.18 0.154,-0.385 0.154,-0.602c0,-0.732 -0.632,-1.321 -1.404,-1.321c-0.686,0 -1.26,0.463 -1.381,1.08c-0.018,0.09 -0.1,0.152 -0.191,0.144c-0.044,-0.004 -0.088,-0.006 -0.133,-0.006c-0.238,0 -0.462,0.056 -0.659,0.154c-0.043,0.022 -0.094,0.025 -0.14,0.009c-0.046,-0.016 -0.083,-0.05 -0.103,-0.094c-0.216,-0.472 -0.714,-0.8 -1.29,-0.8c-0.686,0 -1.26,0.463 -1.381,1.08c-0.018,0.09 -0.1,0.152 -0.191,0.144c-0.044,-0.004 -0.088,-0.006 -0.133,-0.006c-0.772,0 -1.404,0.589 -1.404,1.321c0,0.732 0.632,1.321 1.404,1.321c0.378,0 0.722,-0.141 0.976,-0.371c0.068,-0.062 0.173,-0.062 0.241,-0Z"/></g><g id="razor"><path d="M226.994,18.788l-8.077,29.992c0,0 -1.43,2.681 -4.375,1.765c-3.397,-1.056 -3.035,-4.069 -3.035,-4.069l10.357,-29.283l5.129,1.595Z" style="fill:#b6e1c4;"/><path d="M218.507,26.148l3.189,-9.015c0.032,-0.091 0.13,-0.14 0.222,-0.111l5.129,1.595c0.092,0.029 0.145,0.125 0.12,0.218l-8.077,29.992c-0.004,0.013 -0.009,0.026 -0.015,0.038c0,0 -1.499,2.812 -4.586,1.851c-3.55,-1.104 -3.159,-4.261 -3.159,-4.261c0.002,-0.013 0.005,-0.026 0.009,-0.038l4.023,-11.374l0.338,0.12l-4.016,11.355c-0.022,0.254 -0.175,2.897 2.912,3.857c2.667,0.83 4.029,-1.441 4.154,-1.661l8.027,-29.804l-4.8,-1.493l-3.131,8.853l-0.338,-0.12Zm0.151,0.648l-0.255,0.72l-0.338,-0.12l0.255,-0.72l0.338,0.12Zm-0.442,1.249l-0.188,0.532l-0.338,-0.12l0.188,-0.532l0.338,0.12Zm-1.22,3.449l-0.481,1.36l-0.338,-0.12l0.481,-1.36l0.338,0.12Zm-0.879,2.485l-0.231,0.654l-0.338,-0.12l0.231,-0.654l0.338,0.12Z"/><path d="M235.102,13.022c0.506,0.046 0.881,0.489 0.844,0.995c-0.092,1.256 -0.258,3.502 -0.349,4.747c-0.037,0.498 -0.46,0.879 -0.959,0.862c-3.398,-0.114 -15.496,-0.521 -18.999,-0.639c-0.251,-0.008 -0.488,-0.118 -0.657,-0.304c-0.169,-0.186 -0.256,-0.433 -0.24,-0.684c0.093,-1.489 0.271,-4.344 0.363,-5.833c0.016,-0.251 0.132,-0.485 0.323,-0.648c0.191,-0.164 0.44,-0.243 0.69,-0.22c3.493,0.317 15.563,1.415 18.986,1.726Z" style="fill:#cbcbcb;"/><path d="M225.633,11.981l9.308,0.846c0.701,0.064 1.221,0.677 1.17,1.379l-0.324,4.397c-0.051,0.691 -0.638,1.218 -1.33,1.194l-18.641,-0.627c-0.348,-0.012 -0.677,-0.164 -0.911,-0.422c-0.234,-0.258 -0.354,-0.6 -0.333,-0.948l0.34,-5.463c0.022,-0.348 0.183,-0.672 0.448,-0.899c0.265,-0.227 0.61,-0.337 0.957,-0.306l0.382,0.035l-0.036,0.356l-0.378,-0.034c-0.251,-0.023 -0.5,0.057 -0.691,0.221c-0.191,0.164 -0.308,0.398 -0.323,0.649l-0.34,5.463c-0.016,0.251 0.071,0.498 0.24,0.684c0.169,0.186 0.407,0.296 0.658,0.305l18.641,0.627c0.5,0.017 0.924,-0.364 0.961,-0.863l0.324,-4.397c0.037,-0.507 -0.339,-0.95 -0.845,-0.996l-9.312,-0.846l0.036,-0.356Zm-6.547,-0.595l2.404,0.219l-0.036,0.356l-2.404,-0.219l0.036,-0.356Zm2.999,0.273l0.588,0.053l-0.036,0.356l-0.588,-0.053l0.036,-0.356Zm1.183,0.108l1.771,0.161l-0.036,0.356l-1.771,-0.161l0.036,-0.356Z"/><path d="M227.999,18.048l-0.583,-0.028l0.032,-0.298l0.583,0.028l-0.032,0.298Zm1.831,-0.213l1.177,0.056l-0.032,0.298l-1.177,-0.056l0.032,-0.298Zm1.775,0.084l1.261,0.059l-0.011,0.299l-1.282,-0.061l0.032,-0.298Zm-4.786,0.073l-9.09,-0.429l0.011,-0.299l9.112,0.43l-0.032,0.298Z"/><path d="M232.857,16.437l-0.018,0.298l-15.103,-1.213l0.018,-0.298l15.103,1.213Z"/><path d="M232.85,14.189l-0.022,0.298l-15.085,-1.49l0.022,-0.298l15.085,1.49Z"/></g><g id="soap2"><path d="M216.702,14.224c-0.351,0.342 -0.831,0.552 -1.359,0.552c-1.076,0 -1.949,-0.873 -1.949,-1.949c0,-0.844 0.538,-1.564 1.289,-1.834c0.279,-1.182 1.341,-2.063 2.608,-2.063c0.194,0 0.383,0.021 0.565,0.06c0.491,-0.629 1.256,-1.034 2.114,-1.034c0.706,0 1.349,0.274 1.828,0.721c0.334,-0.15 0.705,-0.234 1.095,-0.234c0.721,0 1.376,0.285 1.858,0.749c0.346,-0.314 0.805,-0.506 1.309,-0.506c0.934,0 1.715,0.658 1.905,1.535c0.169,-0.048 0.347,-0.073 0.531,-0.073c0.871,0 1.61,0.573 1.859,1.362c0.242,-0.24 0.575,-0.388 0.943,-0.388c0.739,0 1.34,0.6 1.34,1.34c0,0.739 -0.6,1.34 -1.34,1.34c-0.492,0 -0.923,-0.266 -1.156,-0.662c-0.346,0.544 -0.954,0.905 -1.646,0.905c-0.934,0 -1.715,-0.658 -1.905,-1.535c-0.169,0.048 -0.347,0.073 -0.531,0.073c-0.291,0 -0.567,-0.064 -0.814,-0.178c-0.455,0.832 -1.338,1.396 -2.352,1.396c-0.706,0 -1.349,-0.274 -1.828,-0.721c-0.334,0.15 -0.705,0.234 -1.095,0.234c-0.194,0 -0.383,-0.021 -0.565,-0.06c-0.491,0.629 -1.256,1.034 -2.114,1.034c-0.203,0 -0.4,-0.023 -0.59,-0.065Z" style="fill:#fff;"/><path d="M216.756,14.418c-0.376,0.334 -0.871,0.538 -1.413,0.538c-1.174,0 -2.128,-0.953 -2.128,-2.128c0,-0.888 0.545,-1.649 1.317,-1.968c0.33,-1.215 1.441,-2.109 2.759,-2.109c0.168,0 0.334,0.015 0.494,0.043c0.525,-0.622 1.309,-1.017 2.186,-1.017c0.711,0 1.362,0.26 1.862,0.691c0.328,-0.131 0.686,-0.204 1.061,-0.204c0.711,0 1.362,0.26 1.862,0.691c0.36,-0.28 0.813,-0.447 1.304,-0.447c0.956,0 1.765,0.632 2.033,1.5c0.13,-0.025 0.265,-0.038 0.403,-0.038c0.859,0 1.601,0.511 1.936,1.245c0.246,-0.171 0.544,-0.271 0.865,-0.271c0.838,0 1.519,0.681 1.519,1.519c0,0.838 -0.681,1.519 -1.519,1.519c-0.463,0 -0.878,-0.208 -1.157,-0.535c-0.39,0.475 -0.982,0.778 -1.645,0.778c-0.956,0 -1.765,-0.632 -2.033,-1.5c-0.13,0.025 -0.265,0.038 -0.403,0.038c-0.26,0 -0.509,-0.047 -0.739,-0.132c-0.505,0.81 -1.404,1.35 -2.428,1.35c-0.711,0 -1.362,-0.26 -1.862,-0.691c-0.328,0.131 -0.686,0.204 -1.061,0.204c-0.168,0 -0.334,-0.015 -0.494,-0.043c-0.525,0.622 -1.309,1.017 -2.186,1.017c-0.183,0 -0.362,-0.017 -0.536,-0.05Zm-0.015,-0.369c0.177,0.04 0.361,0.061 0.551,0.061c0.802,0 1.515,-0.378 1.973,-0.965c0.042,-0.054 0.112,-0.079 0.179,-0.065c0.17,0.037 0.347,0.056 0.527,0.056c0.364,0 0.71,-0.078 1.022,-0.218c0.066,-0.03 0.143,-0.017 0.196,0.032c0.447,0.417 1.047,0.673 1.706,0.673c0.946,0 1.771,-0.527 2.195,-1.303c0.045,-0.083 0.147,-0.116 0.232,-0.077c0.225,0.104 0.476,0.162 0.739,0.162c0.167,0 0.329,-0.023 0.483,-0.067c0.048,-0.013 0.099,-0.007 0.141,0.019c0.042,0.025 0.072,0.067 0.083,0.116c0.172,0.796 0.882,1.394 1.73,1.394c0.628,0 1.181,-0.328 1.495,-0.822c0.033,-0.053 0.092,-0.084 0.154,-0.083c0.062,0.001 0.12,0.034 0.151,0.088c0.202,0.343 0.575,0.573 1.001,0.573c0.641,0 1.161,-0.52 1.161,-1.161c0,-0.641 -0.52,-1.161 -1.161,-1.161c-0.318,0 -0.607,0.128 -0.817,0.336c-0.044,0.044 -0.108,0.062 -0.169,0.047c-0.061,-0.015 -0.109,-0.06 -0.128,-0.12c-0.226,-0.717 -0.897,-1.237 -1.688,-1.237c-0.167,0 -0.329,0.023 -0.483,0.067c-0.048,0.013 -0.099,0.007 -0.141,-0.019c-0.042,-0.025 -0.072,-0.067 -0.083,-0.116c-0.172,-0.796 -0.882,-1.394 -1.73,-1.394c-0.457,0 -0.874,0.174 -1.189,0.459c-0.07,0.063 -0.177,0.062 -0.245,-0.004c-0.45,-0.433 -1.061,-0.699 -1.733,-0.699c-0.364,0 -0.71,0.078 -1.022,0.218c-0.066,0.03 -0.143,0.017 -0.196,-0.032c-0.447,-0.417 -1.047,-0.673 -1.706,-0.673c-0.802,0 -1.515,0.378 -1.973,0.965c-0.042,0.054 -0.112,0.079 -0.179,0.065c-0.17,-0.037 -0.347,-0.056 -0.527,-0.056c-1.182,0 -2.174,0.822 -2.434,1.925c-0.014,0.059 -0.057,0.107 -0.114,0.127c-0.682,0.246 -1.171,0.899 -1.171,1.666c0,0.977 0.793,1.77 1.77,1.77c0.48,0 0.915,-0.191 1.234,-0.502c0.043,-0.042 0.105,-0.06 0.164,-0.046Z"/></g><g id="big-foam-left" serif:id="big foam left"><path d="M1.715,64.384c-1.407,1.279 -3.316,2.066 -5.418,2.066c-4.319,0 -7.826,-3.322 -7.826,-7.414c0,-4.092 3.507,-7.414 7.826,-7.414c0.248,0 0.492,0.011 0.734,0.032c0.676,-3.443 3.866,-6.053 7.694,-6.053c3.215,0 5.98,1.84 7.183,4.469c1.091,-0.547 2.334,-0.857 3.653,-0.857c0.248,0 0.492,0.011 0.734,0.032c0.676,-3.443 3.866,-6.053 7.694,-6.053c4.319,0 7.826,3.322 7.826,7.414c0,1.226 -0.315,2.382 -0.871,3.401c1.288,1.322 2.076,3.088 2.076,5.027c0,4.092 -3.507,7.414 -7.826,7.414c-2.616,0 -4.934,-1.218 -6.355,-3.089c-0.997,0.437 -2.107,0.68 -3.277,0.68c-0.818,0 -1.607,-0.119 -2.348,-0.34c-1.435,1.676 -3.627,2.748 -6.08,2.748c-2.102,0 -4.012,-0.787 -5.418,-2.066Z" style="fill:#fff;"/><g id="soap-back" serif:id="soap back"><path d="M10.177,25.217c0.386,0.078 0.637,0.455 0.559,0.841c-0.078,0.386 -0.455,0.637 -0.841,0.559c-0.386,-0.078 -0.637,-0.455 -0.559,-0.841c0.078,-0.386 0.455,-0.637 0.841,-0.559Z" style="fill:#fff;"/><path d="M10.207,25.07c0.468,0.094 0.77,0.551 0.676,1.018c-0.094,0.468 -0.551,0.77 -1.018,0.676c-0.468,-0.094 -0.77,-0.551 -0.676,-1.018c0.094,-0.468 0.551,-0.77 1.018,-0.676Zm-0.059,0.294c-0.305,-0.062 -0.603,0.136 -0.665,0.441c-0.062,0.305 0.136,0.603 0.441,0.665c0.305,0.062 0.603,-0.136 0.665,-0.441c0.062,-0.305 -0.136,-0.603 -0.441,-0.665Z"/><path d="M38.959,20.828c0.386,0.078 0.637,0.455 0.559,0.841c-0.078,0.386 -0.455,0.637 -0.841,0.559c-0.386,-0.078 -0.637,-0.455 -0.559,-0.841c0.078,-0.386 0.455,-0.637 0.841,-0.559Z" style="fill:#feecff;"/><path d="M38.989,20.681c0.468,0.094 0.77,0.551 0.676,1.018c-0.094,0.468 -0.551,0.77 -1.018,0.676c-0.468,-0.094 -0.77,-0.551 -0.676,-1.018c0.094,-0.468 0.551,-0.77 1.018,-0.676Zm-0.059,0.294c-0.305,-0.062 -0.603,0.136 -0.665,0.441c-0.062,0.305 0.136,0.603 0.441,0.665c0.305,0.062 0.603,-0.136 0.665,-0.441c0.062,-0.305 -0.136,-0.603 -0.441,-0.665Z"/><path d="M41.587,28.436c0.386,0.078 0.637,0.455 0.559,0.841c-0.078,0.386 -0.455,0.637 -0.841,0.559c-0.386,-0.078 -0.637,-0.455 -0.559,-0.841c0.078,-0.386 0.455,-0.637 0.841,-0.559Z" style="fill:#fff;"/><path d="M41.616,28.289c0.468,0.094 0.77,0.551 0.676,1.018c-0.094,0.468 -0.551,0.77 -1.018,0.676c-0.468,-0.094 -0.77,-0.551 -0.676,-1.018c0.094,-0.468 0.551,-0.77 1.018,-0.676Zm-0.059,0.294c-0.305,-0.062 -0.603,0.136 -0.665,0.441c-0.062,0.305 0.136,0.603 0.441,0.665c0.305,0.062 0.603,-0.136 0.665,-0.441c0.062,-0.305 -0.136,-0.603 -0.441,-0.665Z"/><path d="M59.587,32.436c0.386,0.078 0.637,0.455 0.559,0.841c-0.078,0.386 -0.455,0.637 -0.841,0.559c-0.386,-0.078 -0.637,-0.455 -0.559,-0.841c0.078,-0.386 0.455,-0.637 0.841,-0.559Z" style="fill:#fff;"/><path d="M59.616,32.289c0.468,0.094 0.77,0.551 0.676,1.018c-0.094,0.468 -0.551,0.77 -1.018,0.676c-0.468,-0.094 -0.77,-0.551 -0.676,-1.018c0.094,-0.468 0.551,-0.77 1.018,-0.676Zm-0.059,0.294c-0.305,-0.062 -0.603,0.136 -0.665,0.441c-0.062,0.305 0.136,0.603 0.441,0.665c0.305,0.062 0.603,-0.136 0.665,-0.441c0.062,-0.305 -0.136,-0.603 -0.441,-0.665Z"/><path d="M46.66,11.557c0.386,0.078 0.637,0.455 0.559,0.841c-0.078,0.386 -0.455,0.637 -0.841,0.559c-0.386,-0.078 -0.637,-0.455 -0.559,-0.841c0.078,-0.386 0.455,-0.637 0.841,-0.559Z" style="fill:#fff;fill-opacity:0;"/><path d="M31.69,13.41c0.468,0.094 0.77,0.551 0.676,1.018c-0.094,0.468 -0.551,0.77 -1.018,0.676c-0.468,-0.094 -0.77,-0.551 -0.676,-1.018c0.094,-0.468 0.551,-0.77 1.018,-0.676Zm-0.059,0.294c-0.305,-0.062 -0.603,0.136 -0.665,0.441c-0.062,0.305 0.136,0.603 0.441,0.665c0.305,0.062 0.603,-0.136 0.665,-0.441c0.062,-0.305 -0.136,-0.603 -0.441,-0.665Z"/><path d="M31.738,30.819c0.386,0.078 0.637,0.455 0.559,0.841c-0.078,0.386 -0.455,0.637 -0.841,0.559c-0.386,-0.078 -0.637,-0.455 -0.559,-0.841c0.078,-0.386 0.455,-0.637 0.841,-0.559Z" style="fill:#fff;fill-opacity:0;"/><path d="M31.767,30.672c0.468,0.094 0.77,0.551 0.676,1.018c-0.094,0.468 -0.551,0.77 -1.018,0.676c-0.468,-0.094 -0.77,-0.551 -0.676,-1.018c0.094,-0.468 0.551,-0.77 1.018,-0.676Zm-0.059,0.294c-0.305,-0.062 -0.603,0.136 -0.665,0.441c-0.062,0.305 0.136,0.603 0.441,0.665c0.305,0.062 0.603,-0.136 0.665,-0.441c0.062,-0.305 -0.136,-0.603 -0.441,-0.665Z"/><path d="M42.675,24.076c0.166,0.033 0.273,0.195 0.239,0.361c-0.033,0.166 -0.195,0.273 -0.361,0.239c-0.166,-0.033 -0.273,-0.195 -0.239,-0.361c0.033,-0.166 0.195,-0.273 0.361,-0.239Z" style="fill:#fff;fill-opacity:0;"/><path d="M42.705,23.929c0.247,0.05 0.407,0.291 0.357,0.537c-0.05,0.247 -0.291,0.407 -0.537,0.357c-0.247,-0.05 -0.407,-0.291 -0.357,-0.537c0.05,-0.247 0.291,-0.407 0.537,-0.357Zm-0.059,0.294c-0.084,-0.017 -0.167,0.038 -0.184,0.122c-0.017,0.084 0.038,0.167 0.122,0.184c0.084,0.017 0.167,-0.038 0.184,-0.122c0.017,-0.084 -0.038,-0.167 -0.122,-0.184Z"/><path d="M42.337,34c0.166,0.033 0.273,0.195 0.239,0.361c-0.033,0.166 -0.195,0.273 -0.361,0.239c-0.166,-0.033 -0.273,-0.195 -0.239,-0.361c0.033,-0.166 0.195,-0.273 0.361,-0.239Z" style="fill:#fff;"/><path d="M42.367,33.853c0.247,0.05 0.407,0.291 0.357,0.537c-0.05,0.247 -0.291,0.407 -0.537,0.357c-0.247,-0.05 -0.407,-0.291 -0.357,-0.537c0.05,-0.247 0.291,-0.407 0.537,-0.357Zm-0.059,0.294c-0.084,-0.017 -0.167,0.038 -0.184,0.122c-0.017,0.084 0.038,0.167 0.122,0.184c0.084,0.017 0.167,-0.038 0.184,-0.122c0.017,-0.084 -0.038,-0.167 -0.122,-0.184Z"/><path d="M45.83,28.044c0.166,0.033 0.273,0.195 0.239,0.361c-0.033,0.166 -0.195,0.273 -0.361,0.239c-0.166,-0.033 -0.273,-0.195 -0.239,-0.361c0.033,-0.166 0.195,-0.273 0.361,-0.239Z" style="fill:#dbf6ff;"/><path d="M45.859,27.897c0.247,0.05 0.407,0.291 0.357,0.537c-0.05,0.247 -0.291,0.407 -0.537,0.357c-0.247,-0.05 -0.407,-0.291 -0.357,-0.537c0.05,-0.247 0.291,-0.407 0.537,-0.357Zm-0.059,0.294c-0.084,-0.017 -0.167,0.038 -0.184,0.122c-0.017,0.084 0.038,0.167 0.122,0.184c0.084,0.017 0.167,-0.038 0.184,-0.122c0.017,-0.084 -0.038,-0.167 -0.122,-0.184Z"/><path d="M27.695,31.252c0.166,0.033 0.273,0.195 0.239,0.361c-0.033,0.166 -0.195,0.273 -0.361,0.239c-0.166,-0.033 -0.273,-0.195 -0.239,-0.361c0.033,-0.166 0.195,-0.273 0.361,-0.239Z" style="fill:#fff;"/><path d="M27.725,31.105c0.247,0.05 0.407,0.291 0.357,0.537c-0.05,0.247 -0.291,0.407 -0.537,0.357c-0.247,-0.05 -0.407,-0.291 -0.357,-0.537c0.05,-0.247 0.291,-0.407 0.537,-0.357Zm-0.059,0.294c-0.084,-0.017 -0.167,0.038 -0.184,0.122c-0.017,0.084 0.038,0.167 0.122,0.184c0.084,0.017 0.167,-0.038 0.184,-0.122c0.017,-0.084 -0.038,-0.167 -0.122,-0.184Z"/><path d="M40.988,11.693c0.166,0.033 0.273,0.195 0.239,0.361c-0.033,0.166 -0.195,0.273 -0.361,0.239c-0.166,-0.033 -0.273,-0.195 -0.239,-0.361c0.033,-0.166 0.195,-0.273 0.361,-0.239Z" style="fill:#dbf6ff;"/><path d="M41.018,11.546c0.247,0.05 0.407,0.291 0.357,0.537c-0.05,0.247 -0.291,0.407 -0.537,0.357c-0.247,-0.05 -0.407,-0.291 -0.357,-0.537c0.05,-0.247 0.291,-0.407 0.537,-0.357Zm-0.059,0.294c-0.084,-0.017 -0.167,0.038 -0.184,0.122c-0.017,0.084 0.038,0.167 0.122,0.184c0.084,0.017 0.167,-0.038 0.184,-0.122c0.017,-0.084 -0.038,-0.167 -0.122,-0.184Z"/><path d="M15.991,14.506c0.394,-0.014 0.703,-0.345 0.689,-0.739c-0.014,-0.394 -0.345,-0.703 -0.739,-0.689c-0.394,0.014 -0.703,0.345 -0.689,0.739c0.014,0.394 0.345,0.703 0.739,0.689Z" style="fill:#fff;"/><path d="M15.996,14.655c-0.477,0.017 -0.877,-0.357 -0.894,-0.833c-0.017,-0.477 0.357,-0.877 0.833,-0.894c0.477,-0.017 0.877,0.357 0.894,0.833c0.017,0.477 -0.357,0.877 -0.833,0.894Zm-0.011,-0.3c0.311,-0.011 0.555,-0.272 0.544,-0.584c-0.011,-0.311 -0.272,-0.555 -0.584,-0.544c-0.311,0.011 -0.555,0.272 -0.544,0.584c0.011,0.311 0.272,0.555 0.584,0.544Z"/><path d="M19.827,7.429c0.394,-0.014 0.703,-0.345 0.689,-0.739c-0.014,-0.394 -0.345,-0.703 -0.739,-0.689c-0.394,0.014 -0.703,0.345 -0.689,0.739c0.014,0.394 0.345,0.703 0.739,0.689Z" style="fill:#feecff;"/><path d="M19.832,7.579c-0.477,0.017 -0.877,-0.357 -0.894,-0.833c-0.017,-0.477 0.357,-0.877 0.833,-0.894c0.477,-0.017 0.877,0.357 0.894,0.833c0.017,0.477 -0.357,0.877 -0.833,0.894Zm-0.011,-0.3c0.311,-0.011 0.555,-0.272 0.544,-0.584c-0.011,-0.311 -0.272,-0.555 -0.584,-0.544c-0.311,0.011 -0.555,0.272 -0.544,0.584c0.011,0.311 0.272,0.555 0.584,0.544Z"/><path d="M22.073,24.91c0.394,-0.014 0.703,-0.345 0.689,-0.739c-0.014,-0.394 -0.345,-0.703 -0.739,-0.689c-0.394,0.014 -0.703,0.345 -0.689,0.739c0.014,0.394 0.345,0.703 0.739,0.689Z" style="fill:#dbf6ff;"/><path d="M22.078,25.06c-0.477,0.017 -0.877,-0.357 -0.894,-0.833c-0.017,-0.477 0.357,-0.877 0.833,-0.894c0.477,-0.017 0.877,0.357 0.894,0.833c0.017,0.477 -0.357,0.877 -0.833,0.894Zm-0.011,-0.3c0.311,-0.011 0.555,-0.272 0.544,-0.584c-0.011,-0.311 -0.272,-0.555 -0.584,-0.544c-0.311,0.011 -0.555,0.272 -0.544,0.584c0.011,0.311 0.272,0.555 0.584,0.544Z"/><path d="M82.624,40.677c-0.386,-0.078 -0.763,0.172 -0.841,0.559c-0.078,0.386 0.172,0.763 0.559,0.841c0.386,0.078 0.763,-0.172 0.841,-0.559c0.078,-0.386 -0.172,-0.763 -0.559,-0.841Z" style="fill:#fff;fill-opacity:0;"/><path d="M10.505,3.618c-0.477,0.017 -0.877,-0.357 -0.894,-0.833c-0.017,-0.477 0.357,-0.877 0.833,-0.894c0.477,-0.017 0.877,0.357 0.894,0.833c0.017,0.477 -0.357,0.877 -0.833,0.894Zm-0.011,-0.3c0.311,-0.011 0.555,-0.272 0.544,-0.584c-0.011,-0.311 -0.272,-0.555 -0.584,-0.544c-0.311,0.011 -0.555,0.272 -0.544,0.584c0.011,0.311 0.272,0.555 0.584,0.544Z"/><path d="M75.16,30.218c-0.166,-0.033 -0.327,0.074 -0.361,0.239c-0.033,0.166 0.074,0.327 0.239,0.361c0.166,0.033 0.327,-0.074 0.361,-0.239c0.033,-0.166 -0.074,-0.327 -0.239,-0.361Z" style="fill:#fff;fill-opacity:0;"/><path d="M20.193,12.058c-0.252,0.009 -0.463,-0.188 -0.472,-0.44c-0.009,-0.252 0.188,-0.463 0.44,-0.472c0.252,-0.009 0.463,0.188 0.472,0.44c0.009,0.252 -0.188,0.463 -0.44,0.472Zm-0.011,-0.3c0.086,-0.003 0.154,-0.075 0.151,-0.161c-0.003,-0.086 -0.075,-0.154 -0.161,-0.151c-0.086,0.003 -0.154,0.075 -0.151,0.161c0.003,0.086 0.075,0.154 0.161,0.151Z"/><path d="M21.476,2.062c0.169,-0.006 0.301,-0.148 0.295,-0.317c-0.006,-0.169 -0.148,-0.301 -0.317,-0.295c-0.169,0.006 -0.301,0.148 -0.295,0.317c0.006,0.169 0.148,0.301 0.317,0.295Z" style="fill:#fff;"/><path d="M21.482,2.212c-0.252,0.009 -0.463,-0.188 -0.472,-0.44c-0.009,-0.252 0.188,-0.463 0.44,-0.472c0.252,-0.009 0.463,0.188 0.472,0.44c0.009,0.252 -0.188,0.463 -0.44,0.472Zm-0.011,-0.3c0.086,-0.003 0.154,-0.075 0.151,-0.161c-0.003,-0.086 -0.075,-0.154 -0.161,-0.151c-0.086,0.003 -0.154,0.075 -0.151,0.161c0.003,0.086 0.075,0.154 0.161,0.151Z"/><path d="M23.948,8.51c0.169,-0.006 0.301,-0.148 0.295,-0.317c-0.006,-0.169 -0.148,-0.301 -0.317,-0.295c-0.169,0.006 -0.301,0.148 -0.295,0.317c0.006,0.169 0.148,0.301 0.317,0.295Z" style="fill:#feecff;"/><path d="M23.954,8.659c-0.252,0.009 -0.463,-0.188 -0.472,-0.44c-0.009,-0.252 0.188,-0.463 0.44,-0.472c0.252,-0.009 0.463,0.188 0.472,0.44c0.009,0.252 -0.188,0.463 -0.44,0.472Zm-0.011,-0.3c0.086,-0.003 0.154,-0.075 0.151,-0.161c-0.003,-0.086 -0.075,-0.154 -0.161,-0.151c-0.086,0.003 -0.154,0.075 -0.151,0.161c0.003,0.086 0.075,0.154 0.161,0.151Z"/><path d="M6.582,2.38c0.169,-0.006 0.301,-0.148 0.295,-0.317c-0.006,-0.169 -0.148,-0.301 -0.317,-0.295c-0.169,0.006 -0.301,0.148 -0.295,0.317c0.006,0.169 0.148,0.301 0.317,0.295Z" style="fill:#fff;"/><path d="M6.587,2.53c-0.252,0.009 -0.463,-0.188 -0.472,-0.44c-0.009,-0.252 0.188,-0.463 0.44,-0.472c0.252,-0.009 0.463,0.188 0.472,0.44c0.009,0.252 -0.188,0.463 -0.44,0.472Zm-0.011,-0.3c0.086,-0.003 0.154,-0.075 0.151,-0.161c-0.003,-0.086 -0.075,-0.154 -0.161,-0.151c-0.086,0.003 -0.154,0.075 -0.151,0.161c0.003,0.086 0.075,0.154 0.161,0.151Z"/><path d="M30.971,28.273c0.169,-0.006 0.301,-0.148 0.295,-0.317c-0.006,-0.169 -0.148,-0.301 -0.317,-0.295c-0.169,0.006 -0.301,0.148 -0.295,0.317c0.006,0.169 0.148,0.301 0.317,0.295Z" style="fill:#fff;"/><path d="M30.976,28.423c-0.252,0.009 -0.463,-0.188 -0.472,-0.44c-0.009,-0.252 0.188,-0.463 0.44,-0.472c0.252,-0.009 0.463,0.188 0.472,0.44c0.009,0.252 -0.188,0.463 -0.44,0.472Zm-0.011,-0.3c0.086,-0.003 0.154,-0.075 0.151,-0.161c-0.003,-0.086 -0.075,-0.154 -0.161,-0.151c-0.086,0.003 -0.154,0.075 -0.151,0.161c0.003,0.086 0.075,0.154 0.161,0.151Z"/><path d="M51.138,46.352c-0.388,-0.278 -0.477,-0.818 -0.2,-1.206c0.278,-0.388 0.818,-0.477 1.206,-0.2c0.388,0.278 0.477,0.818 0.2,1.206c-0.278,0.388 -0.818,0.477 -1.206,0.2Zm0.175,-0.244c0.253,0.181 0.606,0.123 0.787,-0.13c0.181,-0.253 0.123,-0.606 -0.13,-0.787c-0.253,-0.181 -0.606,-0.123 -0.787,0.13c-0.181,0.253 -0.123,0.606 0.13,0.787Z"/><path d="M42.859,38.987c-0.137,-0.098 -0.169,-0.29 -0.071,-0.427c0.098,-0.137 0.29,-0.169 0.427,-0.071c0.137,0.098 0.169,0.29 0.071,0.427c-0.098,0.137 -0.29,0.169 -0.427,0.071Z" style="fill:#fff;"/><path d="M42.772,39.109c-0.205,-0.147 -0.252,-0.432 -0.105,-0.636c0.147,-0.205 0.432,-0.252 0.636,-0.105c0.205,0.147 0.252,0.432 0.105,0.636c-0.147,0.205 -0.432,0.252 -0.636,0.105Zm0.175,-0.244c0.07,0.05 0.168,0.034 0.218,-0.036c0.05,-0.07 0.034,-0.168 -0.036,-0.218c-0.07,-0.05 -0.168,-0.034 -0.218,0.036c-0.05,0.07 -0.034,0.168 0.036,0.218Z"/><path d="M37.233,42.991c-0.137,-0.098 -0.169,-0.29 -0.071,-0.427c0.098,-0.137 0.29,-0.169 0.427,-0.071c0.137,0.098 0.169,0.29 0.071,0.427c-0.098,0.137 -0.29,0.169 -0.427,0.071Z" style="fill:#dbf6ff;"/><path d="M37.146,43.113c-0.205,-0.147 -0.252,-0.432 -0.105,-0.636c0.147,-0.205 0.432,-0.252 0.636,-0.105c0.205,0.147 0.252,0.432 0.105,0.636c-0.147,0.205 -0.432,0.252 -0.636,0.105Zm0.175,-0.244c0.07,0.05 0.168,0.034 0.218,-0.036c0.05,-0.07 0.034,-0.168 -0.036,-0.218c-0.07,-0.05 -0.168,-0.034 -0.218,0.036c-0.05,0.07 -0.034,0.168 0.036,0.218Z"/><path d="M55.091,47.491c-0.137,-0.098 -0.169,-0.29 -0.071,-0.427c0.098,-0.137 0.29,-0.169 0.427,-0.071c0.137,0.098 0.169,0.29 0.071,0.427c-0.098,0.137 -0.29,0.169 -0.427,0.071Z" style="fill:#fff;"/><path d="M55.004,47.613c-0.205,-0.147 -0.252,-0.432 -0.105,-0.636c0.147,-0.205 0.432,-0.252 0.636,-0.105c0.205,0.147 0.252,0.432 0.105,0.636c-0.147,0.205 -0.432,0.252 -0.636,0.105Zm0.175,-0.244c0.07,0.05 0.168,0.034 0.218,-0.036c0.05,-0.07 0.034,-0.168 -0.036,-0.218c-0.07,-0.05 -0.168,-0.034 -0.218,0.036c-0.05,0.07 -0.034,0.168 0.036,0.218Z"/><path d="M59.504,25.113c-0.205,-0.147 -0.252,-0.432 -0.105,-0.636c0.147,-0.205 0.432,-0.252 0.636,-0.105c0.205,0.147 0.252,0.432 0.105,0.636c-0.147,0.205 -0.432,0.252 -0.636,0.105Zm0.175,-0.244c0.07,0.05 0.168,0.034 0.218,-0.036c0.05,-0.07 0.034,-0.168 -0.036,-0.218c-0.07,-0.05 -0.168,-0.034 -0.218,0.036c-0.05,0.07 -0.034,0.168 0.036,0.218Z"/><path d="M57.622,55.58c-0.365,-0.149 -0.782,0.027 -0.931,0.392c-0.149,0.365 0.027,0.782 0.392,0.931c0.365,0.149 0.782,-0.027 0.931,-0.392c0.149,-0.365 -0.027,-0.782 -0.392,-0.931Z" style="fill:#dbf6ff;"/><path d="M57.679,55.441c0.442,0.18 0.654,0.685 0.474,1.126c-0.18,0.442 -0.685,0.654 -1.126,0.474c-0.442,-0.18 -0.654,-0.685 -0.474,-1.126c0.18,-0.442 0.685,-0.654 1.126,-0.474Zm-0.113,0.278c-0.288,-0.118 -0.618,0.021 -0.735,0.31c-0.118,0.288 0.021,0.618 0.31,0.735c0.288,0.118 0.618,-0.021 0.735,-0.31c0.118,-0.288 -0.021,-0.618 -0.31,-0.735Z"/><path d="M50.883,48.867c-0.156,-0.064 -0.335,0.012 -0.399,0.168c-0.064,0.156 0.012,0.335 0.168,0.399c0.156,0.064 0.335,-0.012 0.399,-0.168c0.064,-0.156 -0.012,-0.335 -0.168,-0.399Z" style="fill:#fff;"/><path d="M50.939,48.728c0.233,0.095 0.345,0.361 0.25,0.594c-0.095,0.233 -0.361,0.345 -0.594,0.25c-0.233,-0.095 -0.345,-0.361 -0.25,-0.594c0.095,-0.233 0.361,-0.345 0.594,-0.25Zm-0.113,0.278c-0.08,-0.033 -0.171,0.006 -0.203,0.086c-0.033,0.08 0.006,0.171 0.086,0.203c0.08,0.033 0.171,-0.006 0.203,-0.086c0.033,-0.08 -0.006,-0.171 -0.086,-0.203Z"/></g><path d="M-7.285,53.932c-1.944,1.053 -4.283,1.378 -6.576,0.73c-4.668,-1.32 -7.387,-6.182 -6.067,-10.851c1.036,-3.664 4.254,-6.127 7.848,-6.379c2.661,-4.79 8.355,-7.31 13.854,-5.754c0.841,0.238 1.637,0.56 2.38,0.953c2.901,-2.129 6.719,-2.948 10.447,-1.894c3.065,0.867 5.519,2.844 7.049,5.373c1.636,-0.241 3.348,-0.149 5.041,0.33c3.129,0.885 5.622,2.927 7.144,5.532c1.888,-0.939 4.116,-1.206 6.303,-0.588c4.052,1.146 6.635,4.961 6.383,9.001c0.792,-0 1.597,0.107 2.396,0.333c3.782,1.069 6.284,4.463 6.396,8.195c1.345,-0.744 2.973,-0.978 4.567,-0.527c3.21,0.908 5.078,4.25 4.171,7.46c-0.908,3.21 -4.25,5.078 -7.46,4.171c-2.136,-0.604 -3.678,-2.287 -4.203,-4.291c-2.169,1.937 -5.252,2.759 -8.255,1.909c-4.052,-1.146 -6.635,-4.961 -6.383,-9.001c-0.792,0 -1.597,-0.107 -2.396,-0.333c-1.262,-0.357 -2.381,-0.972 -3.317,-1.773c-2.996,3.051 -7.523,4.417 -11.924,3.172c-3.065,-0.867 -5.519,-2.844 -7.049,-5.373c-1.636,0.241 -3.348,0.149 -5.041,-0.33c-0.841,-0.238 -1.637,-0.56 -2.38,-0.953c-2.901,2.129 -6.719,2.948 -10.447,1.894c-0.88,-0.249 -1.709,-0.589 -2.48,-1.007Z" style="fill:#fff;"/><path d="M-7.285,54.215c-1.975,1.032 -4.333,1.341 -6.644,0.687c-4.801,-1.358 -7.597,-6.358 -6.239,-11.159c1.053,-3.722 4.295,-6.239 7.936,-6.549c2.743,-4.813 8.507,-7.331 14.074,-5.756c0.807,0.228 1.572,0.532 2.29,0.901c2.945,-2.105 6.786,-2.902 10.537,-1.841c3.072,0.869 5.542,2.83 7.108,5.343c1.62,-0.217 3.31,-0.113 4.982,0.36c3.114,0.881 5.61,2.885 7.173,5.449c1.896,-0.883 4.105,-1.117 6.273,-0.504c4.08,1.154 6.712,4.938 6.577,8.995c0.73,0.021 1.468,0.132 2.202,0.339c3.757,1.062 6.285,4.355 6.558,8.037c1.328,-0.63 2.881,-0.8 4.406,-0.369c3.342,0.945 5.289,4.426 4.343,7.768c-0.945,3.342 -4.426,5.289 -7.768,4.343c-2.089,-0.591 -3.633,-2.172 -4.266,-4.091c-2.21,1.808 -5.239,2.545 -8.193,1.71c-4.08,-1.154 -6.712,-4.938 -6.577,-8.995c-0.73,-0.021 -1.468,-0.132 -2.202,-0.339c-1.219,-0.345 -2.308,-0.924 -3.233,-1.675c-3.058,2.999 -7.594,4.323 -12.007,3.075c-3.072,-0.869 -5.542,-2.83 -7.108,-5.343c-1.62,0.217 -3.31,0.113 -4.982,-0.36c-0.807,-0.228 -1.572,-0.532 -2.29,-0.901c-2.945,2.105 -6.786,2.902 -10.537,1.841c-0.853,-0.241 -1.659,-0.567 -2.413,-0.965Zm0.119,-0.503c0.756,0.41 1.568,0.743 2.429,0.987c3.651,1.032 7.39,0.231 10.231,-1.854c0.077,-0.057 0.18,-0.064 0.265,-0.019c0.727,0.386 1.506,0.701 2.33,0.934c1.658,0.469 3.335,0.56 4.937,0.323c0.1,-0.015 0.198,0.032 0.25,0.118c1.498,2.476 3.901,4.413 6.903,5.262c4.31,1.219 8.743,-0.119 11.677,-3.107c0.092,-0.094 0.241,-0.1 0.341,-0.015c0.909,0.778 1.996,1.376 3.222,1.722c0.777,0.22 1.559,0.324 2.328,0.324c0.069,-0 0.135,0.028 0.182,0.079c0.047,0.05 0.072,0.118 0.067,0.187c-0.245,3.925 2.265,7.631 6.202,8.745c2.918,0.825 5.913,0.027 8.02,-1.855c0.065,-0.058 0.155,-0.078 0.239,-0.053c0.083,0.025 0.148,0.092 0.17,0.176c0.503,1.921 1.982,3.534 4.03,4.114c3.077,0.87 6.281,-0.921 7.151,-3.998c0.87,-3.077 -0.921,-6.281 -3.998,-7.151c-1.529,-0.432 -3.089,-0.208 -4.378,0.505c-0.076,0.042 -0.169,0.042 -0.245,-0.002c-0.076,-0.043 -0.124,-0.123 -0.126,-0.21c-0.109,-3.626 -2.54,-6.923 -6.214,-7.962c-0.777,-0.22 -1.559,-0.324 -2.328,-0.324c-0.069,0 -0.135,-0.028 -0.182,-0.079c-0.047,-0.05 -0.072,-0.118 -0.067,-0.187c0.245,-3.925 -2.265,-7.631 -6.202,-8.745c-2.124,-0.601 -4.289,-0.341 -6.123,0.571c-0.118,0.059 -0.261,0.016 -0.327,-0.098c-1.491,-2.551 -3.931,-4.551 -6.996,-5.418c-1.658,-0.469 -3.335,-0.56 -4.937,-0.323c-0.1,0.015 -0.198,-0.032 -0.25,-0.118c-1.498,-2.476 -3.901,-4.413 -6.903,-5.262c-3.651,-1.032 -7.39,-0.231 -10.231,1.854c-0.077,0.057 -0.18,0.064 -0.265,0.019c-0.727,-0.386 -1.506,-0.701 -2.33,-0.934c-5.385,-1.523 -10.962,0.945 -13.567,5.635c-0.041,0.074 -0.117,0.122 -0.201,0.128c-3.491,0.245 -6.618,2.637 -7.625,6.197c-1.283,4.536 1.358,9.259 5.894,10.542c2.228,0.63 4.501,0.313 6.389,-0.709c0.074,-0.04 0.164,-0.04 0.238,0Z"/><path d="M46.579,53.074c1.045,-0.32 2.454,0.515 3.289,2.008c0.913,1.633 0.795,3.44 -0.264,4.032c-0.684,0.382 -1.594,0.165 -2.398,-0.477c-1.045,0.32 -2.454,-0.515 -3.289,-2.008c-0.913,-1.633 -0.795,-3.44 0.264,-4.032c0.684,-0.382 1.594,-0.165 2.398,0.477Z" style="fill:#dbf6ff;"/><path d="M-8.037,20.382c-1.635,-0.664 -3.106,-1.786 -4.202,-3.33c-3.071,-4.321 -2.056,-10.323 2.266,-13.394c3.292,-2.34 7.56,-2.307 10.764,-0.249c4.155,-2.053 9.308,-0.845 12.077,3.053c2.512,3.535 2.29,8.194 -0.24,11.454c1.201,0.673 2.275,1.616 3.125,2.812c2.651,3.73 2.257,8.712 -0.679,11.98c0.271,0.562 0.465,1.147 0.585,1.742c3.244,-1.792 7.392,-0.901 9.59,2.191c2.362,3.324 1.581,7.941 -1.743,10.303c-3.324,2.362 -7.941,1.581 -10.303,-1.743c-0.619,-0.871 -1.022,-1.832 -1.221,-2.817c-3.244,1.792 -7.392,0.901 -9.59,-2.191c-1.456,-2.049 -1.718,-4.588 -0.926,-6.788c-0.502,-0.456 -0.963,-0.973 -1.372,-1.549c-0.859,-1.209 -1.398,-2.549 -1.635,-3.92c-1.993,-0.242 -3.88,-1.29 -5.134,-3.054c-0.969,-1.364 -1.409,-2.946 -1.362,-4.5Z" style="fill:#fff;"/><path d="M-8.291,20.547c-1.614,-0.689 -3.063,-1.817 -4.153,-3.35c-3.151,-4.434 -2.109,-10.592 2.325,-13.743c3.337,-2.372 7.651,-2.368 10.924,-0.33c4.24,-2.02 9.452,-0.766 12.265,3.193c2.519,3.545 2.358,8.193 -0.074,11.524c1.133,0.679 2.146,1.597 2.96,2.742c2.686,3.78 2.325,8.813 -0.587,12.167c0.197,0.432 0.35,0.876 0.462,1.327c3.307,-1.644 7.415,-0.685 9.621,2.419c2.442,3.437 1.635,8.21 -1.802,10.652c-3.437,2.442 -8.21,1.635 -10.652,-1.802c-0.572,-0.805 -0.966,-1.684 -1.189,-2.589c-3.307,1.644 -7.415,0.685 -9.621,-2.419c-1.47,-2.069 -1.763,-4.623 -1.012,-6.86c-0.468,-0.44 -0.9,-0.933 -1.286,-1.477c-0.844,-1.187 -1.387,-2.498 -1.644,-3.841c-1.992,-0.291 -3.867,-1.363 -5.124,-3.133c-0.966,-1.36 -1.424,-2.929 -1.411,-4.48Zm0.503,-0.158c-0.046,1.502 0.379,3.03 1.316,4.348c1.211,1.704 3.035,2.716 4.96,2.95c0.11,0.013 0.197,0.097 0.216,0.206c0.23,1.335 0.756,2.641 1.592,3.818c0.398,0.561 0.848,1.064 1.337,1.509c0.075,0.068 0.101,0.174 0.067,0.27c-0.765,2.126 -0.512,4.579 0.895,6.559c2.123,2.988 6.131,3.849 9.265,2.117c0.07,-0.039 0.154,-0.042 0.226,-0.008c0.072,0.033 0.124,0.099 0.14,0.178c0.191,0.952 0.581,1.879 1.179,2.721c2.282,3.212 6.743,3.966 9.954,1.684c3.212,-2.282 3.966,-6.743 1.684,-9.954c-2.123,-2.988 -6.131,-3.849 -9.265,-2.117c-0.07,0.039 -0.154,0.042 -0.226,0.008c-0.072,-0.033 -0.124,-0.099 -0.14,-0.178c-0.115,-0.574 -0.303,-1.139 -0.565,-1.682c-0.044,-0.091 -0.029,-0.2 0.039,-0.276c2.86,-3.183 3.243,-8.035 0.662,-11.668c-0.828,-1.165 -1.874,-2.083 -3.044,-2.738c-0.064,-0.036 -0.108,-0.097 -0.123,-0.168c-0.014,-0.071 0.003,-0.145 0.048,-0.203c2.464,-3.175 2.68,-7.713 0.233,-11.156c-2.697,-3.796 -7.716,-4.973 -11.763,-2.973c-0.079,0.039 -0.172,0.034 -0.246,-0.014c-3.12,-2.005 -7.277,-2.037 -10.484,0.242c-4.209,2.991 -5.198,8.836 -2.207,13.045c1.068,1.503 2.501,2.596 4.093,3.243c0.097,0.039 0.159,0.135 0.156,0.239Z"/><path d="M15.775,38.86c0.358,-1.349 2.215,-2.315 4.398,-2.214c2.389,0.111 4.269,1.459 4.197,3.007c-0.047,1 -0.897,1.84 -2.136,2.281c-0.358,1.349 -2.215,2.315 -4.398,2.214c-2.389,-0.111 -4.269,-1.459 -4.197,-3.007c0.047,-1 0.897,-1.84 2.136,-2.281Z" style="fill:#dbf6ff;"/><path d="M0.048,8.696c1.08,-0.795 3.052,-0.4 4.625,0.991c1.721,1.522 2.318,3.663 1.331,4.778c-0.637,0.72 -1.779,0.838 -2.972,0.421c-1.08,0.795 -3.052,0.4 -4.625,-0.991c-1.721,-1.522 -2.318,-3.663 -1.331,-4.778c0.637,-0.72 1.779,-0.838 2.972,-0.421Z" style="fill:#dbf6ff;"/></g><g id="big-foam-right" serif:id="big foam right"><path d="M397.721,64.384c1.407,1.279 3.316,2.066 5.418,2.066c4.319,0 7.826,-3.322 7.826,-7.414c0,-4.092 -3.507,-7.414 -7.826,-7.414c-0.248,0 -0.492,0.011 -0.734,0.032c-0.676,-3.443 -3.866,-6.053 -7.694,-6.053c-3.215,0 -5.98,1.84 -7.183,4.469c-1.091,-0.547 -2.334,-0.857 -3.653,-0.857c-0.248,0 -0.492,0.011 -0.734,0.032c-0.676,-3.443 -3.866,-6.053 -7.694,-6.053c-4.319,0 -7.826,3.322 -7.826,7.414c0,1.226 0.315,2.382 0.871,3.401c-1.288,1.322 -2.076,3.088 -2.076,5.027c0,4.092 3.507,7.414 7.826,7.414c2.616,0 4.934,-1.218 6.355,-3.089c0.997,0.437 2.107,0.68 3.277,0.68c0.818,0 1.607,-0.119 2.348,-0.34c1.435,1.676 3.627,2.748 6.08,2.748c2.102,0 4.012,-0.787 5.418,-2.066Z" style="fill:#fff;"/><g id="soap-back1" serif:id="soap back"><path d="M389.259,25.217c-0.386,0.078 -0.637,0.455 -0.559,0.841c0.078,0.386 0.455,0.637 0.841,0.559c0.386,-0.078 0.637,-0.455 0.559,-0.841c-0.078,-0.386 -0.455,-0.637 -0.841,-0.559Z" style="fill:#fff;"/><path d="M389.229,25.07c-0.468,0.094 -0.77,0.551 -0.676,1.018c0.094,0.468 0.551,0.77 1.018,0.676c0.468,-0.094 0.77,-0.551 0.676,-1.018c-0.094,-0.468 -0.551,-0.77 -1.018,-0.676Zm0.059,0.294c0.305,-0.062 0.603,0.136 0.665,0.441c0.062,0.305 -0.136,0.603 -0.441,0.665c-0.305,0.062 -0.603,-0.136 -0.665,-0.441c-0.062,-0.305 0.136,-0.603 0.441,-0.665Z"/><path d="M360.477,20.828c-0.386,0.078 -0.637,0.455 -0.559,0.841c0.078,0.386 0.455,0.637 0.841,0.559c0.386,-0.078 0.637,-0.455 0.559,-0.841c-0.078,-0.386 -0.455,-0.637 -0.841,-0.559Z" style="fill:#feecff;"/><path d="M360.447,20.681c-0.468,0.094 -0.77,0.551 -0.676,1.018c0.094,0.468 0.551,0.77 1.018,0.676c0.468,-0.094 0.77,-0.551 0.676,-1.018c-0.094,-0.468 -0.551,-0.77 -1.018,-0.676Zm0.059,0.294c0.305,-0.062 0.603,0.136 0.665,0.441c0.062,0.305 -0.136,0.603 -0.441,0.665c-0.305,0.062 -0.603,-0.136 -0.665,-0.441c-0.062,-0.305 0.136,-0.603 0.441,-0.665Z"/><path d="M357.849,28.436c-0.386,0.078 -0.637,0.455 -0.559,0.841c0.078,0.386 0.455,0.637 0.841,0.559c0.386,-0.078 0.637,-0.455 0.559,-0.841c-0.078,-0.386 -0.455,-0.637 -0.841,-0.559Z" style="fill:#fff;"/><path d="M357.82,28.289c-0.468,0.094 -0.77,0.551 -0.676,1.018c0.094,0.468 0.551,0.77 1.018,0.676c0.468,-0.094 0.77,-0.551 0.676,-1.018c-0.094,-0.468 -0.551,-0.77 -1.018,-0.676Zm0.059,0.294c0.305,-0.062 0.603,0.136 0.665,0.441c0.062,0.305 -0.136,0.603 -0.441,0.665c-0.305,0.062 -0.603,-0.136 -0.665,-0.441c-0.062,-0.305 0.136,-0.603 0.441,-0.665Z"/><path d="M339.849,32.436c-0.386,0.078 -0.637,0.455 -0.559,0.841c0.078,0.386 0.455,0.637 0.841,0.559c0.386,-0.078 0.637,-0.455 0.559,-0.841c-0.078,-0.386 -0.455,-0.637 -0.841,-0.559Z" style="fill:#fff;"/><path d="M339.82,32.289c-0.468,0.094 -0.77,0.551 -0.676,1.018c0.094,0.468 0.551,0.77 1.018,0.676c0.468,-0.094 0.77,-0.551 0.676,-1.018c-0.094,-0.468 -0.551,-0.77 -1.018,-0.676Zm0.059,0.294c0.305,-0.062 0.603,0.136 0.665,0.441c0.062,0.305 -0.136,0.603 -0.441,0.665c-0.305,0.062 -0.603,-0.136 -0.665,-0.441c-0.062,-0.305 0.136,-0.603 0.441,-0.665Z"/><path d="M352.776,11.557c-0.386,0.078 -0.637,0.455 -0.559,0.841c0.078,0.386 0.455,0.637 0.841,0.559c0.386,-0.078 0.637,-0.455 0.559,-0.841c-0.078,-0.386 -0.455,-0.637 -0.841,-0.559Z" style="fill:#fff;fill-opacity:0;"/><path d="M367.746,13.41c-0.468,0.094 -0.77,0.551 -0.676,1.018c0.094,0.468 0.551,0.77 1.018,0.676c0.468,-0.094 0.77,-0.551 0.676,-1.018c-0.094,-0.468 -0.551,-0.77 -1.018,-0.676Zm0.059,0.294c0.305,-0.062 0.603,0.136 0.665,0.441c0.062,0.305 -0.136,0.603 -0.441,0.665c-0.305,0.062 -0.603,-0.136 -0.665,-0.441c-0.062,-0.305 0.136,-0.603 0.441,-0.665Z"/><path d="M367.698,30.819c-0.386,0.078 -0.637,0.455 -0.559,0.841c0.078,0.386 0.455,0.637 0.841,0.559c0.386,-0.078 0.637,-0.455 0.559,-0.841c-0.078,-0.386 -0.455,-0.637 -0.841,-0.559Z" style="fill:#fff;fill-opacity:0;"/><path d="M367.669,30.672c-0.468,0.094 -0.77,0.551 -0.676,1.018c0.094,0.468 0.551,0.77 1.018,0.676c0.468,-0.094 0.77,-0.551 0.676,-1.018c-0.094,-0.468 -0.551,-0.77 -1.018,-0.676Zm0.059,0.294c0.305,-0.062 0.603,0.136 0.665,0.441c0.062,0.305 -0.136,0.603 -0.441,0.665c-0.305,0.062 -0.603,-0.136 -0.665,-0.441c-0.062,-0.305 0.136,-0.603 0.441,-0.665Z"/><path d="M356.761,24.076c-0.166,0.033 -0.273,0.195 -0.239,0.361c0.033,0.166 0.195,0.273 0.361,0.239c0.166,-0.033 0.273,-0.195 0.239,-0.361c-0.033,-0.166 -0.195,-0.273 -0.361,-0.239Z" style="fill:#fff;fill-opacity:0;"/><path d="M356.731,23.929c-0.247,0.05 -0.407,0.291 -0.357,0.537c0.05,0.247 0.291,0.407 0.537,0.357c0.247,-0.05 0.407,-0.291 0.357,-0.537c-0.05,-0.247 -0.291,-0.407 -0.537,-0.357Zm0.059,0.294c0.084,-0.017 0.167,0.038 0.184,0.122c0.017,0.084 -0.038,0.167 -0.122,0.184c-0.084,0.017 -0.167,-0.038 -0.184,-0.122c-0.017,-0.084 0.038,-0.167 0.122,-0.184Z"/><path d="M357.099,34c-0.166,0.033 -0.273,0.195 -0.239,0.361c0.033,0.166 0.195,0.273 0.361,0.239c0.166,-0.033 0.273,-0.195 0.239,-0.361c-0.033,-0.166 -0.195,-0.273 -0.361,-0.239Z" style="fill:#fff;"/><path d="M357.069,33.853c-0.247,0.05 -0.407,0.291 -0.357,0.537c0.05,0.247 0.291,0.407 0.537,0.357c0.247,-0.05 0.407,-0.291 0.357,-0.537c-0.05,-0.247 -0.291,-0.407 -0.537,-0.357Zm0.059,0.294c0.084,-0.017 0.167,0.038 0.184,0.122c0.017,0.084 -0.038,0.167 -0.122,0.184c-0.084,0.017 -0.167,-0.038 -0.184,-0.122c-0.017,-0.084 0.038,-0.167 0.122,-0.184Z"/><path d="M353.606,28.044c-0.166,0.033 -0.273,0.195 -0.239,0.361c0.033,0.166 0.195,0.273 0.361,0.239c0.166,-0.033 0.273,-0.195 0.239,-0.361c-0.033,-0.166 -0.195,-0.273 -0.361,-0.239Z" style="fill:#dbf6ff;"/><path d="M353.577,27.897c-0.247,0.05 -0.407,0.291 -0.357,0.537c0.05,0.247 0.291,0.407 0.537,0.357c0.247,-0.05 0.407,-0.291 0.357,-0.537c-0.05,-0.247 -0.291,-0.407 -0.537,-0.357Zm0.059,0.294c0.084,-0.017 0.167,0.038 0.184,0.122c0.017,0.084 -0.038,0.167 -0.122,0.184c-0.084,0.017 -0.167,-0.038 -0.184,-0.122c-0.017,-0.084 0.038,-0.167 0.122,-0.184Z"/><path d="M371.741,31.252c-0.166,0.033 -0.273,0.195 -0.239,0.361c0.033,0.166 0.195,0.273 0.361,0.239c0.166,-0.033 0.273,-0.195 0.239,-0.361c-0.033,-0.166 -0.195,-0.273 -0.361,-0.239Z" style="fill:#fff;"/><path d="M371.711,31.105c-0.247,0.05 -0.407,0.291 -0.357,0.537c0.05,0.247 0.291,0.407 0.537,0.357c0.247,-0.05 0.407,-0.291 0.357,-0.537c-0.05,-0.247 -0.291,-0.407 -0.537,-0.357Zm0.059,0.294c0.084,-0.017 0.167,0.038 0.184,0.122c0.017,0.084 -0.038,0.167 -0.122,0.184c-0.084,0.017 -0.167,-0.038 -0.184,-0.122c-0.017,-0.084 0.038,-0.167 0.122,-0.184Z"/><path d="M358.448,11.693c-0.166,0.033 -0.273,0.195 -0.239,0.361c0.033,0.166 0.195,0.273 0.361,0.239c0.166,-0.033 0.273,-0.195 0.239,-0.361c-0.033,-0.166 -0.195,-0.273 -0.361,-0.239Z" style="fill:#dbf6ff;"/><path d="M358.418,11.546c-0.247,0.05 -0.407,0.291 -0.357,0.537c0.05,0.247 0.291,0.407 0.537,0.357c0.247,-0.05 0.407,-0.291 0.357,-0.537c-0.05,-0.247 -0.291,-0.407 -0.537,-0.357Zm0.059,0.294c0.084,-0.017 0.167,0.038 0.184,0.122c0.017,0.084 -0.038,0.167 -0.122,0.184c-0.084,0.017 -0.167,-0.038 -0.184,-0.122c-0.017,-0.084 0.038,-0.167 0.122,-0.184Z"/><path d="M383.445,14.506c-0.394,-0.014 -0.703,-0.345 -0.689,-0.739c0.014,-0.394 0.345,-0.703 0.739,-0.689c0.394,0.014 0.703,0.345 0.689,0.739c-0.014,0.394 -0.345,0.703 -0.739,0.689Z" style="fill:#fff;"/><path d="M383.44,14.655c0.477,0.017 0.877,-0.357 0.894,-0.833c0.017,-0.477 -0.357,-0.877 -0.833,-0.894c-0.477,-0.017 -0.877,0.357 -0.894,0.833c-0.017,0.477 0.357,0.877 0.833,0.894Zm0.011,-0.3c-0.311,-0.011 -0.555,-0.272 -0.544,-0.584c0.011,-0.311 0.272,-0.555 0.584,-0.544c0.311,0.011 0.555,0.272 0.544,0.584c-0.011,0.311 -0.272,0.555 -0.584,0.544Z"/><path d="M379.609,7.429c-0.394,-0.014 -0.703,-0.345 -0.689,-0.739c0.014,-0.394 0.345,-0.703 0.739,-0.689c0.394,0.014 0.703,0.345 0.689,0.739c-0.014,0.394 -0.345,0.703 -0.739,0.689Z" style="fill:#feecff;"/><path d="M379.604,7.579c0.477,0.017 0.877,-0.357 0.894,-0.833c0.017,-0.477 -0.357,-0.877 -0.833,-0.894c-0.477,-0.017 -0.877,0.357 -0.894,0.833c-0.017,0.477 0.357,0.877 0.833,0.894Zm0.011,-0.3c-0.311,-0.011 -0.555,-0.272 -0.544,-0.584c0.011,-0.311 0.272,-0.555 0.584,-0.544c0.311,0.011 0.555,0.272 0.544,0.584c-0.011,0.311 -0.272,0.555 -0.584,0.544Z"/><path d="M377.363,24.91c-0.394,-0.014 -0.703,-0.345 -0.689,-0.739c0.014,-0.394 0.345,-0.703 0.739,-0.689c0.394,0.014 0.703,0.345 0.689,0.739c-0.014,0.394 -0.345,0.703 -0.739,0.689Z" style="fill:#dbf6ff;"/><path d="M377.358,25.06c0.477,0.017 0.877,-0.357 0.894,-0.833c0.017,-0.477 -0.357,-0.877 -0.833,-0.894c-0.477,-0.017 -0.877,0.357 -0.894,0.833c-0.017,0.477 0.357,0.877 0.833,0.894Zm0.011,-0.3c-0.311,-0.011 -0.555,-0.272 -0.544,-0.584c0.011,-0.311 0.272,-0.555 0.584,-0.544c0.311,0.011 0.555,0.272 0.544,0.584c-0.011,0.311 -0.272,0.555 -0.584,0.544Z"/><path d="M316.812,40.677c0.386,-0.078 0.763,0.172 0.841,0.559c0.078,0.386 -0.172,0.763 -0.559,0.841c-0.386,0.078 -0.763,-0.172 -0.841,-0.559c-0.078,-0.386 0.172,-0.763 0.559,-0.841Z" style="fill:#fff;fill-opacity:0;"/><path d="M388.931,3.618c0.477,0.017 0.877,-0.357 0.894,-0.833c0.017,-0.477 -0.357,-0.877 -0.833,-0.894c-0.477,-0.017 -0.877,0.357 -0.894,0.833c-0.017,0.477 0.357,0.877 0.833,0.894Zm0.011,-0.3c-0.311,-0.011 -0.555,-0.272 -0.544,-0.584c0.011,-0.311 0.272,-0.555 0.584,-0.544c0.311,0.011 0.555,0.272 0.544,0.584c-0.011,0.311 -0.272,0.555 -0.584,0.544Z"/><path d="M324.276,30.218c0.166,-0.033 0.327,0.074 0.361,0.239c0.033,0.166 -0.074,0.327 -0.239,0.361c-0.166,0.033 -0.327,-0.074 -0.361,-0.239c-0.033,-0.166 0.074,-0.327 0.239,-0.361Z" style="fill:#fff;fill-opacity:0;"/><path d="M379.243,12.058c0.252,0.009 0.463,-0.188 0.472,-0.44c0.009,-0.252 -0.188,-0.463 -0.44,-0.472c-0.252,-0.009 -0.463,0.188 -0.472,0.44c-0.009,0.252 0.188,0.463 0.44,0.472Zm0.011,-0.3c-0.086,-0.003 -0.154,-0.075 -0.151,-0.161c0.003,-0.086 0.075,-0.154 0.161,-0.151c0.086,0.003 0.154,0.075 0.151,0.161c-0.003,0.086 -0.075,0.154 -0.161,0.151Z"/><path d="M377.96,2.062c-0.169,-0.006 -0.301,-0.148 -0.295,-0.317c0.006,-0.169 0.148,-0.301 0.317,-0.295c0.169,0.006 0.301,0.148 0.295,0.317c-0.006,0.169 -0.148,0.301 -0.317,0.295Z" style="fill:#fff;"/><path d="M377.954,2.212c0.252,0.009 0.463,-0.188 0.472,-0.44c0.009,-0.252 -0.188,-0.463 -0.44,-0.472c-0.252,-0.009 -0.463,0.188 -0.472,0.44c-0.009,0.252 0.188,0.463 0.44,0.472Zm0.011,-0.3c-0.086,-0.003 -0.154,-0.075 -0.151,-0.161c0.003,-0.086 0.075,-0.154 0.161,-0.151c0.086,0.003 0.154,0.075 0.151,0.161c-0.003,0.086 -0.075,0.154 -0.161,0.151Z"/><path d="M375.488,8.51c-0.169,-0.006 -0.301,-0.148 -0.295,-0.317c0.006,-0.169 0.148,-0.301 0.317,-0.295c0.169,0.006 0.301,0.148 0.295,0.317c-0.006,0.169 -0.148,0.301 -0.317,0.295Z" style="fill:#feecff;"/><path d="M375.482,8.659c0.252,0.009 0.463,-0.188 0.472,-0.44c0.009,-0.252 -0.188,-0.463 -0.44,-0.472c-0.252,-0.009 -0.463,0.188 -0.472,0.44c-0.009,0.252 0.188,0.463 0.44,0.472Zm0.011,-0.3c-0.086,-0.003 -0.154,-0.075 -0.151,-0.161c0.003,-0.086 0.075,-0.154 0.161,-0.151c0.086,0.003 0.154,0.075 0.151,0.161c-0.003,0.086 -0.075,0.154 -0.161,0.151Z"/><path d="M392.854,2.38c-0.169,-0.006 -0.301,-0.148 -0.295,-0.317c0.006,-0.169 0.148,-0.301 0.317,-0.295c0.169,0.006 0.301,0.148 0.295,0.317c-0.006,0.169 -0.148,0.301 -0.317,0.295Z" style="fill:#fff;"/><path d="M392.849,2.53c0.252,0.009 0.463,-0.188 0.472,-0.44c0.009,-0.252 -0.188,-0.463 -0.44,-0.472c-0.252,-0.009 -0.463,0.188 -0.472,0.44c-0.009,0.252 0.188,0.463 0.44,0.472Zm0.011,-0.3c-0.086,-0.003 -0.154,-0.075 -0.151,-0.161c0.003,-0.086 0.075,-0.154 0.161,-0.151c0.086,0.003 0.154,0.075 0.151,0.161c-0.003,0.086 -0.075,0.154 -0.161,0.151Z"/><path d="M368.465,28.273c-0.169,-0.006 -0.301,-0.148 -0.295,-0.317c0.006,-0.169 0.148,-0.301 0.317,-0.295c0.169,0.006 0.301,0.148 0.295,0.317c-0.006,0.169 -0.148,0.301 -0.317,0.295Z" style="fill:#fff;"/><path d="M368.46,28.423c0.252,0.009 0.463,-0.188 0.472,-0.44c0.009,-0.252 -0.188,-0.463 -0.44,-0.472c-0.252,-0.009 -0.463,0.188 -0.472,0.44c-0.009,0.252 0.188,0.463 0.44,0.472Zm0.011,-0.3c-0.086,-0.003 -0.154,-0.075 -0.151,-0.161c0.003,-0.086 0.075,-0.154 0.161,-0.151c0.086,0.003 0.154,0.075 0.151,0.161c-0.003,0.086 -0.075,0.154 -0.161,0.151Z"/><path d="M348.298,46.352c0.388,-0.278 0.477,-0.818 0.2,-1.206c-0.278,-0.388 -0.818,-0.477 -1.206,-0.2c-0.388,0.278 -0.477,0.818 -0.2,1.206c0.278,0.388 0.818,0.477 1.206,0.2Zm-0.175,-0.244c-0.253,0.181 -0.606,0.123 -0.787,-0.13c-0.181,-0.253 -0.123,-0.606 0.13,-0.787c0.253,-0.181 0.606,-0.123 0.787,0.13c0.181,0.253 0.123,0.606 -0.13,0.787Z"/><path d="M356.577,38.987c0.137,-0.098 0.169,-0.29 0.071,-0.427c-0.098,-0.137 -0.29,-0.169 -0.427,-0.071c-0.137,0.098 -0.169,0.29 -0.071,0.427c0.098,0.137 0.29,0.169 0.427,0.071Z" style="fill:#fff;"/><path d="M356.664,39.109c0.205,-0.147 0.252,-0.432 0.105,-0.636c-0.147,-0.205 -0.432,-0.252 -0.636,-0.105c-0.205,0.147 -0.252,0.432 -0.105,0.636c0.147,0.205 0.432,0.252 0.636,0.105Zm-0.175,-0.244c-0.07,0.05 -0.168,0.034 -0.218,-0.036c-0.05,-0.07 -0.034,-0.168 0.036,-0.218c0.07,-0.05 0.168,-0.034 0.218,0.036c0.05,0.07 0.034,0.168 -0.036,0.218Z"/><path d="M362.203,42.991c0.137,-0.098 0.169,-0.29 0.071,-0.427c-0.098,-0.137 -0.29,-0.169 -0.427,-0.071c-0.137,0.098 -0.169,0.29 -0.071,0.427c0.098,0.137 0.29,0.169 0.427,0.071Z" style="fill:#dbf6ff;"/><path d="M362.29,43.113c0.205,-0.147 0.252,-0.432 0.105,-0.636c-0.147,-0.205 -0.432,-0.252 -0.636,-0.105c-0.205,0.147 -0.252,0.432 -0.105,0.636c0.147,0.205 0.432,0.252 0.636,0.105Zm-0.175,-0.244c-0.07,0.05 -0.168,0.034 -0.218,-0.036c-0.05,-0.07 -0.034,-0.168 0.036,-0.218c0.07,-0.05 0.168,-0.034 0.218,0.036c0.05,0.07 0.034,0.168 -0.036,0.218Z"/><path d="M344.345,47.491c0.137,-0.098 0.169,-0.29 0.071,-0.427c-0.098,-0.137 -0.29,-0.169 -0.427,-0.071c-0.137,0.098 -0.169,0.29 -0.071,0.427c0.098,0.137 0.29,0.169 0.427,0.071Z" style="fill:#fff;"/><path d="M344.432,47.613c0.205,-0.147 0.252,-0.432 0.105,-0.636c-0.147,-0.205 -0.432,-0.252 -0.636,-0.105c-0.205,0.147 -0.252,0.432 -0.105,0.636c0.147,0.205 0.432,0.252 0.636,0.105Zm-0.175,-0.244c-0.07,0.05 -0.168,0.034 -0.218,-0.036c-0.05,-0.07 -0.034,-0.168 0.036,-0.218c0.07,-0.05 0.168,-0.034 0.218,0.036c0.05,0.07 0.034,0.168 -0.036,0.218Z"/><path d="M339.932,25.113c0.205,-0.147 0.252,-0.432 0.105,-0.636c-0.147,-0.205 -0.432,-0.252 -0.636,-0.105c-0.205,0.147 -0.252,0.432 -0.105,0.636c0.147,0.205 0.432,0.252 0.636,0.105Zm-0.175,-0.244c-0.07,0.05 -0.168,0.034 -0.218,-0.036c-0.05,-0.07 -0.034,-0.168 0.036,-0.218c0.07,-0.05 0.168,-0.034 0.218,0.036c0.05,0.07 0.034,0.168 -0.036,0.218Z"/><path d="M341.814,55.58c0.365,-0.149 0.782,0.027 0.931,0.392c0.149,0.365 -0.027,0.782 -0.392,0.931c-0.365,0.149 -0.782,-0.027 -0.931,-0.392c-0.149,-0.365 0.027,-0.782 0.392,-0.931Z" style="fill:#dbf6ff;"/><path d="M341.757,55.441c-0.442,0.18 -0.654,0.685 -0.474,1.126c0.18,0.442 0.685,0.654 1.126,0.474c0.442,-0.18 0.654,-0.685 0.474,-1.126c-0.18,-0.442 -0.685,-0.654 -1.126,-0.474Zm0.113,0.278c0.288,-0.118 0.618,0.021 0.735,0.31c0.118,0.288 -0.021,0.618 -0.31,0.735c-0.288,0.118 -0.618,-0.021 -0.735,-0.31c-0.118,-0.288 0.021,-0.618 0.31,-0.735Z"/><path d="M348.553,48.867c0.156,-0.064 0.335,0.012 0.399,0.168c0.064,0.156 -0.012,0.335 -0.168,0.399c-0.156,0.064 -0.335,-0.012 -0.399,-0.168c-0.064,-0.156 0.012,-0.335 0.168,-0.399Z" style="fill:#fff;"/><path d="M348.497,48.728c-0.233,0.095 -0.345,0.361 -0.25,0.594c0.095,0.233 0.361,0.345 0.594,0.25c0.233,-0.095 0.345,-0.361 0.25,-0.594c-0.095,-0.233 -0.361,-0.345 -0.594,-0.25Zm0.113,0.278c0.08,-0.033 0.171,0.006 0.203,0.086c0.033,0.08 -0.006,0.171 -0.086,0.203c-0.08,0.033 -0.171,-0.006 -0.203,-0.086c-0.033,-0.08 0.006,-0.171 0.086,-0.203Z"/></g><path d="M406.721,53.932c1.944,1.053 4.283,1.378 6.576,0.73c4.668,-1.32 7.387,-6.182 6.067,-10.851c-1.036,-3.664 -4.254,-6.127 -7.848,-6.379c-2.661,-4.79 -8.355,-7.31 -13.854,-5.754c-0.841,0.238 -1.637,0.56 -2.38,0.953c-2.901,-2.129 -6.719,-2.948 -10.447,-1.894c-3.065,0.867 -5.519,2.844 -7.049,5.373c-1.636,-0.241 -3.348,-0.149 -5.041,0.33c-3.129,0.885 -5.622,2.927 -7.144,5.532c-1.888,-0.939 -4.116,-1.206 -6.303,-0.588c-4.052,1.146 -6.635,4.961 -6.383,9.001c-0.792,-0 -1.597,0.107 -2.396,0.333c-3.782,1.069 -6.284,4.463 -6.396,8.195c-1.345,-0.744 -2.973,-0.978 -4.567,-0.527c-3.21,0.908 -5.078,4.25 -4.171,7.46c0.908,3.21 4.25,5.078 7.46,4.171c2.136,-0.604 3.678,-2.287 4.203,-4.291c2.169,1.937 5.252,2.759 8.255,1.909c4.052,-1.146 6.635,-4.961 6.383,-9.001c0.792,0 1.597,-0.107 2.396,-0.333c1.262,-0.357 2.381,-0.972 3.317,-1.773c2.996,3.051 7.523,4.417 11.924,3.172c3.065,-0.867 5.519,-2.844 7.049,-5.373c1.636,0.241 3.348,0.149 5.041,-0.33c0.841,-0.238 1.637,-0.56 2.38,-0.953c2.901,2.129 6.719,2.948 10.447,1.894c0.88,-0.249 1.709,-0.589 2.48,-1.007Z" style="fill:#fff;"/><path d="M406.721,54.215c-0.754,0.398 -1.56,0.724 -2.413,0.965c-3.751,1.061 -7.591,0.264 -10.536,-1.841c-0.718,0.369 -1.484,0.673 -2.29,0.901c-1.672,0.473 -3.362,0.577 -4.982,0.36c-1.567,2.513 -4.037,4.474 -7.108,5.343c-4.413,1.248 -8.95,-0.075 -12.007,-3.075c-0.925,0.751 -2.015,1.331 -3.233,1.675c-0.734,0.208 -1.473,0.318 -2.202,0.339c0.134,4.057 -2.497,7.841 -6.577,8.995c-2.954,0.835 -5.983,0.099 -8.193,-1.71c-0.633,1.919 -2.177,3.5 -4.266,4.091c-3.342,0.945 -6.823,-1.001 -7.768,-4.343c-0.945,-3.342 1.001,-6.823 4.343,-7.768c1.524,-0.431 3.077,-0.261 4.406,0.369c0.272,-3.682 2.801,-6.975 6.558,-8.037c0.734,-0.208 1.473,-0.318 2.202,-0.339c-0.134,-4.057 2.497,-7.841 6.577,-8.995c2.168,-0.613 4.377,-0.379 6.273,0.504c1.563,-2.564 4.059,-4.568 7.173,-5.449c1.672,-0.473 3.362,-0.577 4.982,-0.36c1.567,-2.513 4.037,-4.474 7.108,-5.343c3.751,-1.061 7.591,-0.264 10.536,1.841c0.718,-0.369 1.484,-0.673 2.29,-0.901c5.568,-1.574 11.331,0.944 14.074,5.756c3.641,0.31 6.883,2.827 7.936,6.55c1.358,4.801 -1.438,9.802 -6.239,11.159c-2.312,0.654 -4.669,0.345 -6.644,-0.687Zm0.119,-0.503c1.888,1.023 4.162,1.339 6.389,0.709c4.536,-1.283 7.177,-6.006 5.894,-10.542c-1.007,-3.56 -4.133,-5.953 -7.625,-6.197c-0.084,-0.006 -0.16,-0.054 -0.201,-0.128c-2.606,-4.691 -8.182,-7.158 -13.567,-5.635c-0.824,0.233 -1.603,0.548 -2.33,0.934c-0.085,0.045 -0.188,0.037 -0.265,-0.019c-2.841,-2.085 -6.58,-2.887 -10.231,-1.854c-3.002,0.849 -5.405,2.785 -6.903,5.262c-0.052,0.086 -0.151,0.133 -0.25,0.118c-1.602,-0.236 -3.278,-0.146 -4.937,0.323c-3.065,0.867 -5.505,2.867 -6.996,5.418c-0.066,0.114 -0.209,0.156 -0.327,0.098c-1.834,-0.912 -3.999,-1.172 -6.123,-0.571c-3.937,1.113 -6.447,4.819 -6.202,8.745c0.004,0.069 -0.02,0.136 -0.067,0.187c-0.047,0.05 -0.113,0.079 -0.182,0.079c-0.769,-0 -1.551,0.104 -2.328,0.324c-3.674,1.039 -6.105,4.336 -6.214,7.962c-0.003,0.087 -0.05,0.167 -0.126,0.21c-0.076,0.043 -0.168,0.044 -0.245,0.002c-1.29,-0.713 -2.85,-0.938 -4.378,-0.505c-3.077,0.87 -4.868,4.075 -3.998,7.151c0.87,3.077 4.075,4.868 7.151,3.998c2.048,-0.579 3.526,-2.192 4.03,-4.114c0.022,-0.084 0.086,-0.151 0.17,-0.176c0.083,-0.025 0.174,-0.005 0.239,0.053c2.107,1.882 5.103,2.68 8.02,1.855c3.937,-1.113 6.447,-4.819 6.202,-8.745c-0.004,-0.069 0.02,-0.136 0.067,-0.187c0.047,-0.05 0.113,-0.079 0.182,-0.079c0.769,0 1.551,-0.104 2.328,-0.324c1.226,-0.347 2.313,-0.945 3.222,-1.722c0.1,-0.085 0.249,-0.079 0.341,0.015c2.934,2.988 7.367,4.326 11.677,3.107c3.002,-0.849 5.405,-2.785 6.903,-5.262c0.052,-0.086 0.151,-0.133 0.25,-0.118c1.602,0.236 3.278,0.146 4.937,-0.323c0.824,-0.233 1.603,-0.548 2.33,-0.934c0.085,-0.045 0.188,-0.037 0.265,0.019c2.841,2.085 6.58,2.887 10.231,1.854c0.861,-0.244 1.674,-0.577 2.429,-0.987c0.074,-0.04 0.164,-0.04 0.238,-0Z"/><path d="M352.857,53.074c-1.045,-0.32 -2.454,0.515 -3.289,2.008c-0.913,1.633 -0.795,3.44 0.264,4.032c0.684,0.382 1.594,0.165 2.398,-0.477c1.045,0.32 2.454,-0.515 3.289,-2.008c0.913,-1.633 0.795,-3.44 -0.264,-4.032c-0.684,-0.382 -1.594,-0.165 -2.398,0.477Z" style="fill:#dbf6ff;"/><path d="M407.473,20.382c1.635,-0.664 3.106,-1.786 4.202,-3.33c3.071,-4.321 2.056,-10.323 -2.266,-13.394c-3.292,-2.34 -7.56,-2.307 -10.764,-0.249c-4.155,-2.053 -9.308,-0.845 -12.077,3.053c-2.512,3.535 -2.29,8.194 0.24,11.454c-1.201,0.673 -2.275,1.616 -3.125,2.812c-2.651,3.73 -2.257,8.712 0.679,11.98c-0.271,0.562 -0.465,1.147 -0.585,1.742c-3.244,-1.792 -7.392,-0.901 -9.59,2.191c-2.362,3.324 -1.581,7.941 1.743,10.303c3.324,2.362 7.941,1.581 10.303,-1.743c0.619,-0.871 1.022,-1.832 1.221,-2.817c3.244,1.792 7.392,0.901 9.59,-2.191c1.456,-2.049 1.718,-4.588 0.926,-6.788c0.502,-0.456 0.963,-0.973 1.372,-1.549c0.859,-1.209 1.398,-2.549 1.635,-3.92c1.993,-0.242 3.88,-1.29 5.134,-3.054c0.969,-1.364 1.409,-2.946 1.362,-4.5Z" style="fill:#fff;"/><path d="M407.727,20.547c0.013,1.551 -0.445,3.12 -1.411,4.48c-1.257,1.769 -3.132,2.842 -5.124,3.132c-0.258,1.344 -0.801,2.654 -1.645,3.841c-0.386,0.544 -0.818,1.037 -1.286,1.477c0.75,2.238 0.458,4.791 -1.012,6.861c-2.206,3.104 -6.314,4.063 -9.621,2.42c-0.223,0.905 -0.617,1.783 -1.189,2.589c-2.442,3.437 -7.215,4.244 -10.652,1.802c-3.437,-2.442 -4.244,-7.215 -1.802,-10.652c2.206,-3.104 6.314,-4.063 9.621,-2.42c0.111,-0.451 0.265,-0.895 0.462,-1.326c-2.912,-3.355 -3.273,-8.388 -0.587,-12.168c0.813,-1.145 1.827,-2.063 2.96,-2.742c-2.432,-3.331 -2.593,-7.978 -0.074,-11.524c2.814,-3.959 8.025,-5.214 12.265,-3.193c3.273,-2.038 7.587,-2.041 10.925,0.33c4.434,3.151 5.476,9.309 2.325,13.743c-1.09,1.534 -2.539,2.661 -4.153,3.35Zm-0.347,-0.397c1.592,-0.647 3.024,-1.74 4.093,-3.243c2.991,-4.209 2.002,-10.054 -2.207,-13.045c-3.207,-2.279 -7.363,-2.247 -10.484,-0.242c-0.074,0.047 -0.167,0.053 -0.246,0.014c-4.046,-1.999 -9.065,-0.822 -11.763,2.973c-2.447,3.443 -2.23,7.981 0.233,11.156c0.045,0.058 0.062,0.132 0.048,0.203c-0.014,0.071 -0.059,0.133 -0.123,0.168c-1.17,0.655 -2.216,1.574 -3.044,2.738c-2.582,3.633 -2.198,8.485 0.662,11.668c0.068,0.075 0.083,0.184 0.039,0.276c-0.262,0.543 -0.45,1.108 -0.565,1.682c-0.016,0.078 -0.068,0.144 -0.14,0.178c-0.072,0.033 -0.156,0.031 -0.226,-0.008c-3.134,-1.732 -7.142,-0.87 -9.265,2.117c-2.282,3.212 -1.528,7.672 1.684,9.954c3.212,2.282 7.672,1.528 9.954,-1.684c0.598,-0.842 0.988,-1.769 1.179,-2.721c0.016,-0.078 0.068,-0.144 0.14,-0.178c0.072,-0.033 0.156,-0.031 0.226,0.008c3.134,1.732 7.142,0.87 9.265,-2.117c1.407,-1.979 1.66,-4.433 0.895,-6.559c-0.034,-0.095 -0.008,-0.202 0.067,-0.27c0.489,-0.445 0.938,-0.948 1.337,-1.509c0.837,-1.177 1.362,-2.483 1.592,-3.818c0.019,-0.109 0.107,-0.192 0.216,-0.206c1.925,-0.234 3.749,-1.246 4.96,-2.95c0.937,-1.318 1.362,-2.846 1.316,-4.348c-0.003,-0.104 0.059,-0.2 0.156,-0.239Z"/><path d="M383.661,38.86c-0.358,-1.349 -2.215,-2.315 -4.398,-2.214c-2.389,0.111 -4.269,1.459 -4.197,3.007c0.047,1 0.897,1.84 2.136,2.281c0.358,1.349 2.215,2.315 4.398,2.214c2.389,-0.111 4.269,-1.459 4.197,-3.007c-0.047,-1 -0.897,-1.84 -2.136,-2.281Z" style="fill:#dbf6ff;"/><path d="M399.388,8.696c-1.08,-0.795 -3.052,-0.4 -4.625,0.991c-1.721,1.522 -2.318,3.663 -1.331,4.778c0.637,0.72 1.779,0.838 2.972,0.421c1.08,0.795 3.052,0.4 4.625,-0.991c1.721,-1.522 2.318,-3.663 1.331,-4.778c-0.637,-0.72 -1.779,-0.838 -2.972,-0.421Z" style="fill:#dbf6ff;"/></g><path d="M226.73,19.406c0,0 -0.469,0.899 -1.393,0.893c-0.727,-0.004 -2.982,0.67 -3.704,0.183c-0.585,-0.394 -0.497,-1.104 -0.497,-1.104l5.595,0.027Z" style="fill:#954e2a;fill-opacity:0.19;"/><path d="M191.363,27.484c0,0 -2.762,2.587 -4.533,3.47c-1.731,0.864 -3.636,1.157 -5.029,0.778c-0.68,-0.185 0.851,-1.702 0.851,-1.702c0,0 4.211,-0.505 6.079,-1.263c1.795,-0.728 2.632,-1.284 2.632,-1.284Z" style="fill:#954e2a;fill-opacity:0.19;"/></g></svg>