<?xml version="1.0" encoding="UTF-8" standalone="no"?><!DOCTYPE svg PUBLIC "-//W3C//DTD SVG 1.1//EN" "http://www.w3.org/Graphics/SVG/1.1/DTD/svg11.dtd"><svg width="100%" height="100%" viewBox="0 0 400 58" version="1.1" xmlns="http://www.w3.org/2000/svg" xmlns:xlink="http://www.w3.org/1999/xlink" xml:space="preserve" xmlns:serif="http://www.serif.com/" style="fill-rule:evenodd;clip-rule:evenodd;stroke-linecap:round;stroke-linejoin:round;stroke-miterlimit:1.5;"><rect id="workout" x="0" y="0" width="400" height="57.5" style="fill:none;"/><clipPath id="_clip1"><rect id="workout1" serif:id="workout" x="0" y="0" width="400" height="57.5"/></clipPath><g clip-path="url(#_clip1)"><g id="grid"><rect x="147.734" y="12.887" width="2.923" height="0.299"/><rect x="156.504" y="12.887" width="2.923" height="0.299"/><rect x="154.311" y="12.887" width="0.974" height="0.299"/><rect x="151.632" y="12.887" width="0.487" height="0.299"/><rect x="161.375" y="12.887" width="0.487" height="0.299"/><rect x="240.544" y="12.887" width="8.039" height="0.299"/><rect x="236.402" y="12.887" width="3.167" height="0.299"/><rect x="163.568" y="12.887" width="71.86" height="0.299"/><rect x="154.311" y="20.195" width="77.219" height="0.299"/><rect x="237.377" y="20.195" width="6.09" height="0.299"/><rect x="236.402" y="20.195" width="0.487" height="0.299"/><rect x="244.685" y="20.195" width="1.218" height="0.299"/><rect x="246.633" y="20.195" width="0.487" height="0.299"/><rect x="232.992" y="20.195" width="1.705" height="0.299"/><rect x="151.145" y="27.502" width="101.335" height="0.299"/><rect x="156.016" y="34.81" width="86.963" height="0.299"/><rect x="163.324" y="42.118" width="69.181" height="0.299"/><rect x="178.671" y="49.426" width="45.552" height="0.299"/><path d="M179.949,54.048l-0.299,0l0,-41.069l0.299,-0l0,41.069Z"/><path d="M187.257,56.484l-0.299,0l0,-54.846l0.299,0l0,54.846Z"/><path d="M194.565,51.369l-0.299,0l0,-40.18l0.299,-0l0,40.18Z"/><path d="M201.873,55.266l-0.299,0l0,-39.9l0.299,0l0,39.9Z"/><path d="M209.181,54.536l-0.299,0l0,-45.138l0.299,0l0,45.138Z"/><path d="M216.489,56.484l-0.299,0l0,-50.668l0.299,-0l0,50.668Z"/><path d="M223.309,51.369l-0.299,0l0,-50.924l0.299,0l0,50.924Z"/><path d="M230.617,43.574l-0.299,0l0,-35.37l0.299,-0l0,35.37Z"/><path d="M237.925,39.676l-0.299,0l0,-26.697l0.299,0l0,26.697Z"/><path d="M245.233,32.125l-0.299,0l0,-26.308l0.299,-0l0,26.308Z"/><path d="M158.27,37.728l-0.299,0l0,-31.911l0.299,0l0,31.911Z"/><path d="M165.577,48.446l-0.299,0l0,-31.288l0.299,0l0,31.288Z"/><path d="M172.885,45.279l-0.299,0l0,-39.462l0.299,-0l0,39.462Z"/><circle cx="245.105" cy="20.309" r="0.545"/><circle cx="245.105" cy="13.048" r="0.545"/><circle cx="245.107" cy="27.749" r="0.542"/><circle cx="237.726" cy="20.309" r="0.545"/><circle cx="237.726" cy="13.048" r="0.545"/><circle cx="237.729" cy="27.749" r="0.542"/><circle cx="237.729" cy="35.01" r="0.542"/><circle cx="230.465" cy="20.309" r="0.545"/><circle cx="230.465" cy="13.048" r="0.545"/><circle cx="230.467" cy="27.749" r="0.542"/><circle cx="230.464" cy="35.01" r="0.542"/><circle cx="230.464" cy="42.272" r="0.542"/><circle cx="223.202" cy="35.01" r="0.542"/><circle cx="223.202" cy="42.272" r="0.542"/><circle cx="223.202" cy="49.651" r="0.542"/><circle cx="216.292" cy="35.01" r="0.542"/><circle cx="216.292" cy="42.272" r="0.542"/><circle cx="216.292" cy="49.651" r="0.542"/><circle cx="209.03" cy="35.01" r="0.542"/><circle cx="209.03" cy="42.272" r="0.542"/><circle cx="209.03" cy="49.651" r="0.542"/><circle cx="201.769" cy="35.01" r="0.542"/><circle cx="201.769" cy="42.272" r="0.542"/><circle cx="201.769" cy="49.651" r="0.542"/><circle cx="194.39" cy="35.01" r="0.542"/><circle cx="194.39" cy="42.272" r="0.542"/><circle cx="194.39" cy="49.651" r="0.542"/><circle cx="187.128" cy="35.01" r="0.542"/><circle cx="187.128" cy="42.272" r="0.542"/><circle cx="187.128" cy="49.651" r="0.542"/><circle cx="179.867" cy="35.01" r="0.542"/><circle cx="179.867" cy="42.272" r="0.542"/><circle cx="172.722" cy="35.01" r="0.542"/><circle cx="172.722" cy="42.272" r="0.542"/><circle cx="165.461" cy="35.01" r="0.542"/><circle cx="158.082" cy="35.01" r="0.542"/><circle cx="165.461" cy="42.272" r="0.542"/><circle cx="179.867" cy="49.651" r="0.542"/><circle cx="223.203" cy="20.309" r="0.545"/><circle cx="223.203" cy="13.048" r="0.545"/><circle cx="223.205" cy="27.749" r="0.542"/><circle cx="187.129" cy="20.309" r="0.545"/><circle cx="187.129" cy="13.048" r="0.545"/><circle cx="187.132" cy="27.749" r="0.542"/><circle cx="179.751" cy="20.309" r="0.545"/><circle cx="179.751" cy="13.048" r="0.545"/><circle cx="179.753" cy="27.749" r="0.542"/><circle cx="172.723" cy="20.309" r="0.545"/><circle cx="172.723" cy="13.048" r="0.545"/><circle cx="172.726" cy="27.749" r="0.542"/><circle cx="165.462" cy="20.309" r="0.545"/><circle cx="165.464" cy="27.749" r="0.542"/><circle cx="158.083" cy="20.309" r="0.545"/><circle cx="158.083" cy="13.048" r="0.545"/><circle cx="158.085" cy="27.749" r="0.542"/><circle cx="216.293" cy="20.309" r="0.545"/><circle cx="216.293" cy="13.048" r="0.545"/><circle cx="216.295" cy="27.749" r="0.542"/></g><g id="particles"><path d="M235.243,13.169c-0.393,0.034 -0.739,-0.256 -0.774,-0.649c-0.034,-0.393 0.256,-0.739 0.649,-0.774c0.393,-0.034 0.739,0.256 0.774,0.649c0.034,0.393 -0.256,0.739 -0.649,0.774Z" style="fill:#fff;"/><path d="M235.257,13.319c-0.475,0.042 -0.895,-0.31 -0.936,-0.785c-0.042,-0.475 0.31,-0.895 0.785,-0.936c0.475,-0.042 0.895,0.31 0.936,0.785c0.042,0.475 -0.31,0.895 -0.785,0.936Zm-0.026,-0.299c0.31,-0.027 0.54,-0.301 0.513,-0.611c-0.027,-0.31 -0.301,-0.54 -0.611,-0.513c-0.31,0.027 -0.54,0.301 -0.513,0.611c0.027,0.31 0.301,0.54 0.611,0.513Z"/><path d="M208.879,25.521c-0.393,0.034 -0.739,-0.256 -0.774,-0.649c-0.034,-0.393 0.256,-0.739 0.649,-0.774c0.393,-0.034 0.739,0.256 0.774,0.649c0.034,0.393 -0.256,0.739 -0.649,0.774Z" style="fill:#feecff;"/><path d="M208.892,25.671c-0.475,0.042 -0.895,-0.31 -0.936,-0.785c-0.042,-0.475 0.31,-0.895 0.785,-0.936c0.475,-0.042 0.895,0.31 0.936,0.785c0.042,0.475 -0.31,0.895 -0.785,0.936Zm-0.026,-0.299c0.31,-0.027 0.54,-0.301 0.513,-0.611c-0.027,-0.31 -0.301,-0.54 -0.611,-0.513c-0.31,0.027 -0.54,0.301 -0.513,0.611c0.027,0.31 0.301,0.54 0.611,0.513Z"/><path d="M204.206,18.967c-0.393,0.034 -0.739,-0.256 -0.774,-0.649c-0.034,-0.393 0.256,-0.739 0.649,-0.774c0.393,-0.034 0.739,0.256 0.774,0.649c0.034,0.393 -0.256,0.739 -0.649,0.774Z" style="fill:#fff;"/><path d="M204.22,19.116c-0.475,0.042 -0.895,-0.31 -0.936,-0.785c-0.042,-0.475 0.31,-0.895 0.785,-0.936c0.475,-0.042 0.895,0.31 0.936,0.785c0.042,0.475 -0.31,0.895 -0.785,0.936Zm-0.026,-0.299c0.31,-0.027 0.54,-0.301 0.513,-0.611c-0.027,-0.31 -0.301,-0.54 -0.611,-0.513c-0.31,0.027 -0.54,0.301 -0.513,0.611c0.027,0.31 0.301,0.54 0.611,0.513Z"/><path d="M185.81,20.222c-0.393,0.034 -0.739,-0.256 -0.774,-0.649c-0.034,-0.393 0.256,-0.739 0.649,-0.774c0.393,-0.034 0.739,0.256 0.774,0.649c0.034,0.393 -0.256,0.739 -0.649,0.774Z" style="fill:#fff;"/><path d="M185.823,20.372c-0.475,0.042 -0.895,-0.31 -0.936,-0.785c-0.042,-0.475 0.31,-0.895 0.785,-0.936c0.475,-0.042 0.895,0.31 0.936,0.785c0.042,0.475 -0.31,0.895 -0.785,0.936Zm-0.026,-0.299c0.31,-0.027 0.54,-0.301 0.513,-0.611c-0.027,-0.31 -0.301,-0.54 -0.611,-0.513c-0.31,0.027 -0.54,0.301 -0.513,0.611c0.027,0.31 0.301,0.54 0.611,0.513Z"/><path d="M204.115,36.592c-0.393,0.034 -0.739,-0.256 -0.774,-0.649c-0.034,-0.393 0.256,-0.739 0.649,-0.774c0.393,-0.034 0.739,0.256 0.774,0.649c0.034,0.393 -0.256,0.739 -0.649,0.774Z" style="fill:#fff;fill-opacity:0;"/><path d="M217.95,30.58c-0.475,0.042 -0.879,-0.312 -0.936,-0.785c-0.117,-0.969 0.635,-1.925 0.635,-1.925c0,0 0.97,0.805 1.087,1.774c0.057,0.474 -0.31,0.895 -0.785,0.936Zm-0.026,-0.299c0.31,-0.027 0.54,-0.301 0.513,-0.611c-0.027,-0.31 -0.761,-1.501 -0.761,-1.501c0,0 -0.39,1.29 -0.363,1.6c0.027,0.31 0.301,0.54 0.611,0.513Z"/><path d="M212.979,13.895c-0.393,0.034 -0.739,-0.256 -0.774,-0.649c-0.034,-0.393 0.256,-0.739 0.649,-0.774c0.393,-0.034 0.739,0.256 0.774,0.649c0.034,0.393 -0.256,0.739 -0.649,0.774Z" style="fill:#fff;fill-opacity:0;"/><path d="M212.992,14.044c-0.475,0.042 -0.895,-0.31 -0.936,-0.785c-0.042,-0.475 0.31,-0.895 0.785,-0.936c0.475,-0.042 0.895,0.31 0.936,0.785c0.042,0.475 -0.31,0.895 -0.785,0.936Zm-0.026,-0.299c0.31,-0.027 0.54,-0.301 0.513,-0.611c-0.027,-0.31 -0.301,-0.54 -0.611,-0.513c-0.31,0.027 -0.54,0.301 -0.513,0.611c0.027,0.31 0.301,0.54 0.611,0.513Z"/><path d="M204.396,23.457c-0.168,0.015 -0.317,-0.11 -0.332,-0.278c-0.015,-0.168 0.11,-0.317 0.278,-0.332c0.168,-0.015 0.317,0.11 0.332,0.278c0.015,0.168 -0.11,0.317 -0.278,0.332Z" style="fill:#fff;fill-opacity:0;"/><path d="M204.409,23.606c-0.251,0.022 -0.472,-0.164 -0.494,-0.414c-0.022,-0.251 0.164,-0.472 0.414,-0.494c0.251,-0.022 0.472,0.164 0.494,0.414c0.022,0.251 -0.164,0.472 -0.414,0.494Zm-0.026,-0.299c0.086,-0.008 0.149,-0.083 0.142,-0.169c-0.008,-0.086 -0.083,-0.149 -0.169,-0.142c-0.086,0.008 -0.149,0.083 -0.142,0.169c0.008,0.086 0.083,0.149 0.169,0.142Z"/><path d="M201.913,13.842c-0.168,0.015 -0.317,-0.11 -0.332,-0.278c-0.015,-0.168 0.11,-0.317 0.278,-0.332c0.168,-0.015 0.317,0.11 0.332,0.278c0.015,0.168 -0.11,0.317 -0.278,0.332Z" style="fill:#fff;"/><path d="M201.926,13.992c-0.251,0.022 -0.472,-0.164 -0.494,-0.414c-0.022,-0.251 0.164,-0.472 0.414,-0.494c0.251,-0.022 0.472,0.164 0.494,0.414c0.022,0.251 -0.164,0.472 -0.414,0.494Zm-0.026,-0.299c0.086,-0.008 0.149,-0.083 0.142,-0.169c-0.008,-0.086 -0.083,-0.149 -0.169,-0.142c-0.086,0.008 -0.149,0.083 -0.142,0.169c0.008,0.086 0.083,0.149 0.169,0.142Z"/><path d="M200.248,20.544c-0.168,0.015 -0.317,-0.11 -0.332,-0.278c-0.015,-0.168 0.128,-1.32 0.128,-1.32c0,0 0.467,1.099 0.482,1.267c0.015,0.168 -0.11,0.317 -0.278,0.332Z" style="fill:#dbf6ff;"/><path d="M200.261,20.693c-0.251,0.022 -0.462,-0.165 -0.494,-0.414c-0.097,-0.745 0.264,-1.483 0.264,-1.483c0,0 0.547,0.658 0.644,1.403c0.033,0.25 -0.164,0.472 -0.414,0.494Zm-0.026,-0.299c0.086,-0.008 0.149,-0.083 0.142,-0.169c-0.008,-0.086 -0.319,-1.131 -0.319,-1.131c0,0 0.001,1.072 0.008,1.158c0.008,0.086 0.083,0.149 0.169,0.142Z"/><path d="M216.734,12.336c-0.168,0.015 -0.317,-0.11 -0.332,-0.278c-0.015,-0.168 0.11,-0.317 0.278,-0.332c0.168,-0.015 0.317,0.11 0.332,0.278c0.015,0.168 -0.11,0.317 -0.278,0.332Z" style="fill:#fff;"/><path d="M216.747,12.486c-0.251,0.022 -0.472,-0.164 -0.494,-0.414c-0.022,-0.251 0.164,-0.472 0.414,-0.494c0.251,-0.022 0.472,0.164 0.494,0.414c0.022,0.251 -0.164,0.472 -0.414,0.494Zm-0.026,-0.299c0.086,-0.008 0.149,-0.083 0.142,-0.169c-0.008,-0.086 -0.083,-0.149 -0.169,-0.142c-0.086,0.008 -0.149,0.083 -0.142,0.169c0.008,0.086 0.083,0.149 0.169,0.142Z"/><path d="M209.517,34.857c-0.168,0.015 -0.317,-0.11 -0.332,-0.278c-0.015,-0.168 0.11,-0.317 0.278,-0.332c0.168,-0.015 0.317,0.11 0.332,0.278c0.015,0.168 -0.11,0.317 -0.278,0.332Z" style="fill:#dbf6ff;"/><path d="M209.53,35.006c-0.251,0.022 -0.472,-0.164 -0.494,-0.414c-0.022,-0.251 0.164,-0.472 0.414,-0.494c0.251,-0.022 0.472,0.164 0.494,0.414c0.022,0.251 -0.164,0.472 -0.414,0.494Zm-0.026,-0.299c0.086,-0.008 0.149,-0.083 0.142,-0.169c-0.008,-0.086 -0.083,-0.149 -0.169,-0.142c-0.086,0.008 -0.149,0.083 -0.142,0.169c0.008,0.086 0.083,0.149 0.169,0.142Z"/><path d="M232.697,25.088c-0.374,0.125 -0.576,0.529 -0.452,0.903c0.125,0.374 0.529,0.576 0.903,0.452c0.374,-0.125 0.576,-0.529 0.452,-0.903c-0.125,-0.374 -0.529,-0.576 -0.903,-0.452Z" style="fill:#fff;"/><path d="M232.5,23.957c0,0 1.092,1.083 1.243,1.535c0.151,0.452 -0.094,0.942 -0.546,1.093c-0.452,0.151 -0.942,-0.094 -1.093,-0.546c-0.151,-0.452 0.396,-2.082 0.396,-2.082Zm0.095,0.285c0,0 -0.305,1.407 -0.207,1.702c0.098,0.295 0.418,0.455 0.714,0.357c0.295,-0.098 0.455,-0.418 0.357,-0.714c-0.098,-0.295 -0.864,-1.345 -0.864,-1.345Z"/><path d="M231.02,32.961c-0.374,0.125 -0.576,0.529 -0.452,0.903c0.125,0.374 0.529,0.576 0.903,0.452c0.374,-0.125 0.576,-0.529 0.452,-0.903c-0.125,-0.374 -0.529,-0.576 -0.903,-0.452Z" style="fill:#feecff;"/><path d="M230.973,32.819c0.452,-0.151 0.942,0.094 1.093,0.546c0.151,0.452 -0.094,0.942 -0.546,1.093c-0.452,0.151 -0.942,-0.094 -1.093,-0.546c-0.151,-0.452 0.094,-0.942 0.546,-1.093Zm0.095,0.285c-0.295,0.098 -0.455,0.418 -0.357,0.714c0.098,0.295 0.418,0.455 0.714,0.357c0.295,-0.098 0.455,-0.418 0.357,-0.714c-0.098,-0.295 -0.418,-0.455 -0.714,-0.357Z"/><path d="M223.921,16.829c-0.374,0.125 -0.576,0.529 -0.452,0.903c0.125,0.374 0.529,0.576 0.903,0.452c0.374,-0.125 0.576,-0.529 0.452,-0.903c-0.125,-0.374 -0.529,-0.576 -0.903,-0.452Z" style="fill:#dbf6ff;"/><path d="M223.873,16.687c0.452,-0.151 0.942,0.094 1.093,0.546c0.151,0.452 -0.094,0.942 -0.546,1.093c-0.452,0.151 -0.942,-0.094 -1.093,-0.546c-0.151,-0.452 0.094,-0.942 0.546,-1.093Zm0.095,0.285c-0.295,0.098 -0.455,0.418 -0.357,0.714c0.098,0.295 0.418,0.455 0.714,0.357c0.295,-0.098 0.455,-0.418 0.357,-0.714c-0.098,-0.295 -0.418,-0.455 -0.714,-0.357Z"/><path d="M161.382,18.835c0.393,-0.034 0.683,-0.381 0.649,-0.774c-0.034,-0.393 -0.381,-0.683 -0.774,-0.649c-0.393,0.034 -0.683,0.381 -0.649,0.774c0.034,0.393 0.381,0.683 0.774,0.649Z" style="fill:#fff;fill-opacity:0;"/><path d="M241.039,33.979c0.452,-0.151 0.942,0.094 1.093,0.546c0.151,0.452 -0.094,0.942 -0.546,1.093c-0.452,0.151 -0.942,-0.094 -1.093,-0.546c-0.151,-0.452 0.094,-0.942 0.546,-1.093Zm0.095,0.285c-0.295,0.098 -0.455,0.418 -0.357,0.714c0.098,0.295 0.418,0.455 0.714,0.357c0.295,-0.098 0.455,-0.418 0.357,-0.714c-0.098,-0.295 -0.418,-0.455 -0.714,-0.357Z"/><path d="M171.501,26.755c0.168,-0.015 0.293,-0.163 0.278,-0.332c-0.015,-0.168 -0.163,-0.293 -0.332,-0.278c-0.168,0.015 -0.293,0.163 -0.278,0.332c0.015,0.168 0.163,0.293 0.332,0.278Z" style="fill:#fff;fill-opacity:0;"/><path d="M229.359,28.624c0.239,-0.08 0.497,0.05 0.577,0.288c0.08,0.239 -0.05,0.497 -0.288,0.577c-0.239,0.08 -0.497,-0.05 -0.577,-0.288c-0.08,-0.239 0.05,-0.497 0.288,-0.577Zm0.095,0.285c-0.082,0.027 -0.126,0.116 -0.099,0.197c0.027,0.082 0.116,0.126 0.197,0.099c0.082,-0.027 0.126,-0.116 0.099,-0.197c-0.027,-0.082 -0.116,-0.126 -0.197,-0.099Z"/><path d="M230.956,38.575c-0.16,0.053 -0.247,0.227 -0.194,0.387c0.053,0.16 0.227,0.247 0.387,0.194c0.16,-0.053 0.247,-0.227 0.194,-0.387c-0.053,-0.16 -0.227,-0.247 -0.387,-0.194Z" style="fill:#fff;"/><path d="M230.909,38.433c0.239,-0.08 0.497,0.05 0.577,0.288c0.08,0.239 -0.05,0.497 -0.288,0.577c-0.239,0.08 -0.497,-0.05 -0.577,-0.288c-0.08,-0.239 0.05,-0.497 0.288,-0.577Zm0.095,0.285c-0.082,0.027 -0.126,0.116 -0.099,0.197c0.027,0.082 0.116,0.126 0.197,0.099c0.082,-0.027 0.126,-0.116 0.099,-0.197c-0.027,-0.082 -0.116,-0.126 -0.197,-0.099Z"/><path d="M225.744,31.675c0,0 0.149,1.695 0.171,1.863c0.022,0.168 0.175,0.286 0.343,0.264c0.168,-0.022 0.286,-0.175 0.264,-0.343c-0.022,-0.168 -0.778,-1.784 -0.778,-1.784Z" style="fill:#feecff;"/><path d="M225.725,31.526c0,0 0.935,1.165 0.946,1.914c0.004,0.252 -0.144,0.479 -0.394,0.511c-0.25,0.032 -0.42,-0.159 -0.511,-0.394c-0.489,-1.27 -0.041,-2.031 -0.041,-2.031Zm0.038,0.298c0,0 0.29,1.609 0.301,1.695c0.011,0.085 0.089,0.146 0.175,0.135c0.085,-0.011 0.146,-0.089 0.135,-0.175c-0.011,-0.085 -0.61,-1.655 -0.61,-1.655Z"/><path d="M245.152,34.057c-0.16,0.053 -0.247,0.227 -0.194,0.387c0.053,0.16 0.227,0.247 0.387,0.194c0.16,-0.053 0.247,-0.227 0.194,-0.387c-0.053,-0.16 -0.227,-0.247 -0.387,-0.194Z" style="fill:#fff;"/><path d="M245.105,33.915c0.239,-0.08 0.497,0.05 0.577,0.288c0.08,0.239 -0.05,0.497 -0.288,0.577c-0.239,0.08 -0.497,-0.05 -0.577,-0.288c-0.08,-0.239 0.05,-0.497 0.288,-0.577Zm0.095,0.285c-0.082,0.027 -0.126,0.116 -0.099,0.197c0.027,0.082 0.116,0.126 0.197,0.099c0.082,-0.027 0.126,-0.116 0.099,-0.197c-0.027,-0.082 -0.116,-0.126 -0.197,-0.099Z"/><path d="M214.435,16.12c-0.16,0.053 -0.247,0.227 -0.194,0.387c0.053,0.16 0.227,0.247 0.387,0.194c0.16,-0.053 0.247,-0.227 0.194,-0.387c-0.053,-0.16 -0.227,-0.247 -0.387,-0.194Z" style="fill:#fff;"/><path d="M214.387,15.978c0.239,-0.08 0.497,0.05 0.577,0.288c0.08,0.239 -0.05,0.497 -0.288,0.577c-0.239,0.08 -0.497,-0.05 -0.577,-0.288c-0.08,-0.239 0.05,-0.497 0.288,-0.577Zm0.095,0.285c-0.082,0.027 -0.126,0.116 -0.099,0.197c0.027,0.082 0.116,0.126 0.197,0.099c0.082,-0.027 0.126,-0.116 0.099,-0.197c-0.027,-0.082 -0.116,-0.126 -0.197,-0.099Z"/><path d="M189.977,4.485c0.451,0.157 0.689,0.649 0.533,1.1c-0.157,0.451 -0.649,0.689 -1.1,0.533c-0.451,-0.157 -0.689,-0.649 -0.533,-1.1c0.157,-0.451 0.649,-0.689 1.1,-0.533Zm-0.098,0.283c-0.294,-0.102 -0.616,0.054 -0.718,0.348c-0.102,0.294 0.054,0.616 0.348,0.718c0.294,0.102 0.616,-0.054 0.718,-0.348c0.102,-0.294 -0.054,-0.616 -0.348,-0.718Z"/><path d="M200.002,9.207c0.16,0.055 0.244,0.23 0.189,0.39c-0.055,0.16 -0.23,0.244 -0.39,0.189c-0.16,-0.055 -0.244,-0.23 -0.189,-0.39c0.055,-0.16 0.23,-0.244 0.39,-0.189Z" style="fill:#fff;"/><path d="M200.051,9.065c0.238,0.083 0.364,0.343 0.281,0.581c-0.083,0.238 -0.343,0.364 -0.581,0.281c-0.238,-0.083 -0.364,-0.343 -0.281,-0.581c0.083,-0.238 0.343,-0.364 0.581,-0.281Zm-0.098,0.283c-0.081,-0.028 -0.17,0.015 -0.199,0.096c-0.028,0.081 0.015,0.17 0.096,0.199c0.081,0.028 0.17,-0.015 0.199,-0.096c0.028,-0.081 -0.015,-0.17 -0.096,-0.199Z"/><path d="M204.265,3.775c0.16,0.055 0.244,0.23 0.189,0.39c-0.055,0.16 -0.23,0.244 -0.39,0.189c-0.16,-0.055 -0.244,-0.23 -0.189,-0.39c0.055,-0.16 0.23,-0.244 0.39,-0.189Z" style="fill:#dbf6ff;"/><path d="M204.314,3.634c0.238,0.083 0.364,0.343 0.281,0.581c-0.083,0.238 -0.343,0.364 -0.581,0.281c-0.238,-0.083 -0.364,-0.343 -0.281,-0.581c0.083,-0.238 0.343,-0.364 0.581,-0.281Zm-0.098,0.283c-0.081,-0.028 -0.17,0.015 -0.199,0.096c-0.028,0.081 0.015,0.17 0.096,0.199c0.081,0.028 0.17,-0.015 0.199,-0.096c0.028,-0.081 -0.015,-0.17 -0.096,-0.199Z"/><path d="M185.863,4.51c0.16,0.055 0.244,0.23 0.189,0.39c-0.055,0.16 -0.23,0.244 -0.39,0.189c-0.16,-0.055 -0.244,-0.23 -0.189,-0.39c0.055,-0.16 0.23,-0.244 0.39,-0.189Z" style="fill:#fff;"/><path d="M185.913,4.369c0.238,0.083 0.364,0.343 0.281,0.581c-0.083,0.238 -0.343,0.364 -0.581,0.281c-0.238,-0.083 -0.364,-0.343 -0.281,-0.581c0.083,-0.238 0.343,-0.364 0.581,-0.281Zm-0.098,0.283c-0.081,-0.028 -0.17,0.015 -0.199,0.096c-0.028,0.081 0.015,0.17 0.096,0.199c0.081,0.028 0.17,-0.015 0.199,-0.096c0.028,-0.081 -0.015,-0.17 -0.096,-0.199Z"/><path d="M187.961,27.223c0.238,0.083 0.364,0.343 0.281,0.581c-0.083,0.238 -0.343,0.364 -0.581,0.281c-0.238,-0.083 -0.364,-0.343 -0.281,-0.581c0.083,-0.238 0.343,-0.364 0.581,-0.281Zm-0.098,0.283c-0.081,-0.028 -0.17,0.015 -0.199,0.096c-0.028,0.081 0.015,0.17 0.096,0.199c0.081,0.028 0.17,-0.015 0.199,-0.096c0.028,-0.081 -0.015,-0.17 -0.096,-0.199Z"/><path d="M189.511,2c0.168,0.017 0.318,-0.106 0.335,-0.274c0.017,-0.168 -0.106,-0.318 -0.274,-0.335c-0.168,-0.017 -0.318,0.106 -0.335,0.274c-0.017,0.168 0.106,0.318 0.274,0.335Z" style="fill:#fff;"/><path d="M189.496,2.149c-0.25,-0.025 -0.433,-0.249 -0.408,-0.499c0.025,-0.25 0.249,-0.433 0.499,-0.408c0.25,0.025 0.433,0.249 0.408,0.499c-0.025,0.25 -0.249,0.433 -0.499,0.408Zm0.03,-0.298c0.086,0.009 0.162,-0.054 0.171,-0.14c0.009,-0.086 -0.054,-0.162 -0.14,-0.171c-0.086,-0.009 -0.162,0.054 -0.171,0.14c-0.009,0.086 0.054,0.162 0.14,0.171Z"/></g><g id="particles1" serif:id="particles"><path d="M211.004,43.785c-0.391,-0.05 -0.668,-0.408 -0.618,-0.799c0.05,-0.391 0.408,-0.668 0.799,-0.618c0.391,0.05 0.668,0.408 0.618,0.799c-0.05,0.391 -0.408,0.668 -0.799,0.618Z" style="fill:#fff;"/><path d="M210.985,43.934c-0.473,-0.061 -0.808,-0.494 -0.747,-0.967c0.061,-0.473 0.494,-0.808 0.967,-0.747c0.473,0.061 0.808,0.494 0.747,0.967c-0.061,0.473 -0.494,0.808 -0.967,0.747Zm0.038,-0.298c0.309,0.04 0.592,-0.179 0.631,-0.488c0.04,-0.309 -0.179,-0.592 -0.488,-0.631c-0.309,-0.04 -0.592,0.179 -0.631,0.488c-0.04,0.309 0.179,0.592 0.488,0.631Z"/><path d="M182.61,50.224c-0.391,-0.05 -0.668,-0.408 -0.618,-0.799c0.05,-0.391 0.408,-0.668 0.799,-0.618c0.391,0.05 0.668,0.408 0.618,0.799c-0.05,0.391 -0.408,0.668 -0.799,0.618Z" style="fill:#feecff;"/><path d="M182.591,50.373c-0.473,-0.061 -0.808,-0.494 -0.747,-0.967c0.061,-0.473 0.494,-0.808 0.967,-0.747c0.473,0.061 0.808,0.494 0.747,0.967c-0.061,0.473 -0.494,0.808 -0.967,0.747Zm0.038,-0.298c0.309,0.04 0.592,-0.179 0.631,-0.488c0.04,-0.309 -0.179,-0.592 -0.488,-0.631c-0.309,-0.04 -0.592,0.179 -0.631,0.488c-0.04,0.309 0.179,0.592 0.488,0.631Z"/><path d="M179.445,42.823c-0.391,-0.05 -0.668,-0.408 -0.618,-0.799c0.05,-0.391 0.408,-0.668 0.799,-0.618c0.391,0.05 0.668,0.408 0.618,0.799c-0.05,0.391 -0.408,0.668 -0.799,0.618Z" style="fill:#fff;"/><path d="M179.425,42.972c-0.473,-0.061 -0.808,-0.494 -0.747,-0.967c0.061,-0.473 0.494,-0.808 0.967,-0.747c0.473,0.061 0.808,0.494 0.747,0.967c-0.061,0.473 -0.494,0.808 -0.967,0.747Zm0.038,-0.298c0.309,0.04 0.592,-0.179 0.631,-0.488c0.04,-0.309 -0.179,-0.592 -0.488,-0.631c-0.309,-0.04 -0.592,0.179 -0.631,0.488c-0.04,0.309 0.179,0.592 0.488,0.631Z"/><path d="M161.204,40.122c-0.391,-0.05 -0.668,-0.408 -0.618,-0.799c0.05,-0.391 0.408,-0.668 0.799,-0.618c0.391,0.05 0.668,0.408 0.618,0.799c-0.05,0.391 -0.408,0.668 -0.799,0.618Z" style="fill:#fff;"/><path d="M161.185,40.271c-0.473,-0.061 -0.808,-0.494 -0.747,-0.967c0.061,-0.473 0.494,-0.808 0.967,-0.747c0.473,0.061 0.808,0.494 0.747,0.967c-0.061,0.473 -0.494,0.808 -0.967,0.747Zm0.038,-0.298c0.309,0.04 0.592,-0.179 0.631,-0.488c0.04,-0.309 -0.179,-0.592 -0.488,-0.631c-0.309,-0.04 -0.592,0.179 -0.631,0.488c-0.04,0.309 0.179,0.592 0.488,0.631Z"/><path d="M175.593,60.022c-0.391,-0.05 -0.668,-0.408 -0.618,-0.799c0.05,-0.391 0.408,-0.668 0.799,-0.618c0.391,0.05 0.668,0.408 0.618,0.799c-0.05,0.391 -0.408,0.668 -0.799,0.618Z" style="fill:#fff;fill-opacity:0;"/><path d="M190.392,57.102c-0.473,-0.061 -0.793,-0.492 -0.747,-0.967c0.093,-0.972 1.032,-1.745 1.032,-1.745c0,0 0.776,0.993 0.683,1.965c-0.045,0.475 -0.494,0.808 -0.967,0.747Zm0.038,-0.298c0.309,0.04 0.592,-0.179 0.631,-0.488c0.04,-0.309 -0.423,-1.629 -0.423,-1.629c0,0 -0.656,1.177 -0.696,1.486c-0.04,0.309 0.179,0.592 0.488,0.631Z"/><path d="M189.098,39.741c-0.391,-0.05 -0.668,-0.408 -0.618,-0.799c0.05,-0.391 0.408,-0.668 0.799,-0.618c0.391,0.05 0.668,0.408 0.618,0.799c-0.05,0.391 -0.408,0.668 -0.799,0.618Z" style="fill:#fff;fill-opacity:0;"/><path d="M189.079,39.89c-0.473,-0.061 -0.808,-0.494 -0.747,-0.967c0.061,-0.473 0.494,-0.808 0.967,-0.747c0.473,0.061 0.808,0.494 0.747,0.967c-0.061,0.473 -0.494,0.808 -0.967,0.747Zm0.038,-0.298c0.309,0.04 0.592,-0.179 0.631,-0.488c0.04,-0.309 -0.179,-0.592 -0.488,-0.631c-0.309,-0.04 -0.592,0.179 -0.631,0.488c-0.04,0.309 0.179,0.592 0.488,0.631Z"/><path d="M178.671,47.25c-0.168,-0.021 -0.286,-0.175 -0.265,-0.343c0.021,-0.168 0.175,-0.286 0.343,-0.265c0.168,0.021 0.286,0.175 0.265,0.343c-0.021,0.168 -0.175,0.286 -0.343,0.265Z" style="fill:#fff;fill-opacity:0;"/><path d="M178.652,47.399c-0.25,-0.032 -0.426,-0.261 -0.394,-0.51c0.032,-0.25 0.261,-0.426 0.51,-0.394c0.25,0.032 0.426,0.261 0.394,0.51c-0.032,0.25 -0.261,0.426 -0.51,0.394Zm0.038,-0.298c0.085,0.011 0.164,-0.05 0.175,-0.135c0.011,-0.085 -0.05,-0.164 -0.135,-0.175c-0.085,-0.011 -0.164,0.05 -0.175,0.135c-0.011,0.085 0.05,0.164 0.135,0.175Z"/><path d="M178.298,37.327c-0.168,-0.021 -0.286,-0.175 -0.265,-0.343c0.021,-0.168 0.175,-0.286 0.343,-0.265c0.168,0.021 0.286,0.175 0.265,0.343c-0.021,0.168 -0.175,0.286 -0.343,0.265Z" style="fill:#fff;"/><path d="M178.279,37.476c-0.25,-0.032 -0.426,-0.261 -0.394,-0.51c0.032,-0.25 0.261,-0.426 0.51,-0.394c0.25,0.032 0.426,0.261 0.394,0.51c-0.032,0.25 -0.261,0.426 -0.51,0.394Zm0.038,-0.298c0.085,0.011 0.164,-0.05 0.175,-0.135c0.011,-0.085 -0.05,-0.164 -0.135,-0.175c-0.085,-0.011 -0.164,0.05 -0.175,0.135c-0.011,0.085 0.05,0.164 0.135,0.175Z"/><path d="M175.241,43.518c-0.168,-0.021 -0.286,-0.175 -0.265,-0.343c0.021,-0.168 0.407,-1.263 0.407,-1.263c0,0 0.222,1.173 0.2,1.34c-0.021,0.168 -0.175,0.286 -0.343,0.265Z" style="fill:#dbf6ff;"/><path d="M175.222,43.667c-0.25,-0.032 -0.416,-0.26 -0.394,-0.51c0.064,-0.749 0.575,-1.392 0.575,-1.392c0,0 0.394,0.76 0.33,1.508c-0.022,0.251 -0.261,0.426 -0.51,0.394Zm0.038,-0.298c0.085,0.011 0.164,-0.05 0.175,-0.135c0.011,-0.085 -0.07,-1.173 -0.07,-1.173c0,0 -0.228,1.047 -0.239,1.133c-0.011,0.085 0.05,0.164 0.135,0.175Z"/><path d="M193.099,39.02c-0.168,-0.021 -0.286,-0.175 -0.265,-0.343c0.021,-0.168 0.175,-0.286 0.343,-0.265c0.168,0.021 0.286,0.175 0.265,0.343c-0.021,0.168 -0.175,0.286 -0.343,0.265Z" style="fill:#fff;"/><path d="M193.08,39.169c-0.25,-0.032 -0.426,-0.261 -0.394,-0.51c0.032,-0.25 0.261,-0.426 0.51,-0.394c0.25,0.032 0.426,0.261 0.394,0.51c-0.032,0.25 -0.261,0.426 -0.51,0.394Zm0.038,-0.298c0.085,0.011 0.164,-0.05 0.175,-0.135c0.011,-0.085 -0.05,-0.164 -0.135,-0.175c-0.085,-0.011 -0.164,0.05 -0.175,0.135c-0.011,0.085 0.05,0.164 0.135,0.175Z"/><path d="M181.24,59.48c-0.168,-0.021 -0.286,-0.175 -0.265,-0.343c0.021,-0.168 0.175,-0.286 0.343,-0.265c0.168,0.021 0.286,0.175 0.265,0.343c-0.021,0.168 -0.175,0.286 -0.343,0.265Z" style="fill:#dbf6ff;"/><path d="M181.221,59.629c-0.25,-0.032 -0.426,-0.261 -0.394,-0.51c0.032,-0.25 0.261,-0.426 0.51,-0.394c0.25,0.032 0.426,0.261 0.394,0.51c-0.032,0.25 -0.261,0.426 -0.51,0.394Zm0.038,-0.298c0.085,0.011 0.164,-0.05 0.175,-0.135c0.011,-0.085 -0.05,-0.164 -0.135,-0.175c-0.085,-0.011 -0.164,0.05 -0.175,0.135c-0.011,0.085 0.05,0.164 0.135,0.175Z"/><path d="M205.972,54.886c-0.392,0.042 -0.676,0.394 -0.634,0.786c0.042,0.392 0.394,0.676 0.786,0.634c0.392,-0.042 0.676,-0.394 0.634,-0.786c-0.042,-0.392 -0.394,-0.676 -0.786,-0.634Z" style="fill:#fff;"/><path d="M206.02,53.739c0,0 0.836,1.291 0.887,1.765c0.051,0.474 -0.293,0.901 -0.767,0.951c-0.474,0.051 -0.901,-0.293 -0.951,-0.767c-0.051,-0.474 0.832,-1.949 0.832,-1.949Zm0.032,0.298c0,0 -0.599,1.309 -0.565,1.619c0.033,0.31 0.311,0.534 0.621,0.501c0.31,-0.033 0.534,-0.311 0.501,-0.621c-0.033,-0.31 -0.557,-1.499 -0.557,-1.499Z"/><path d="M199.161,44.943c-0.392,0.042 -0.676,0.394 -0.634,0.786c0.042,0.392 0.394,0.676 0.786,0.634c0.392,-0.042 0.676,-0.394 0.634,-0.786c-0.042,-0.392 -0.394,-0.676 -0.786,-0.634Z" style="fill:#dbf6ff;"/><path d="M199.145,44.794c0.474,-0.051 0.901,0.293 0.951,0.767c0.051,0.474 -0.293,0.901 -0.767,0.951c-0.474,0.051 -0.901,-0.293 -0.951,-0.767c-0.051,-0.474 0.293,-0.901 0.767,-0.951Zm0.032,0.298c-0.31,0.033 -0.534,0.311 -0.501,0.621c0.033,0.31 0.311,0.534 0.621,0.501c0.31,-0.033 0.534,-0.311 0.501,-0.621c-0.033,-0.31 -0.311,-0.534 -0.621,-0.501Z"/><path d="M137.636,33.552c0.391,0.05 0.749,-0.227 0.799,-0.618c0.05,-0.391 -0.227,-0.749 -0.618,-0.799c-0.391,-0.05 -0.749,0.227 -0.799,0.618c-0.05,0.391 0.227,0.749 0.618,0.799Z" style="fill:#fff;fill-opacity:0;"/><path d="M145.83,43.449c0.168,0.021 0.321,-0.097 0.343,-0.265c0.021,-0.168 -0.097,-0.321 -0.265,-0.343c-0.168,-0.021 -0.321,0.097 -0.343,0.265c-0.021,0.168 0.097,0.321 0.265,0.343Z" style="fill:#fff;fill-opacity:0;"/><path d="M201.956,57.628c0.25,-0.027 0.475,0.155 0.502,0.405c0.027,0.25 -0.155,0.475 -0.405,0.502c-0.25,0.027 -0.475,-0.155 -0.502,-0.405c-0.027,-0.25 0.155,-0.475 0.405,-0.502Zm0.032,0.298c-0.086,0.009 -0.148,0.086 -0.139,0.172c0.009,0.086 0.086,0.148 0.172,0.139c0.086,-0.009 0.148,-0.086 0.139,-0.172c-0.009,-0.086 -0.086,-0.148 -0.172,-0.139Z"/><path d="M190.045,42.226c-0.168,0.018 -0.29,0.169 -0.272,0.337c0.018,0.168 0.169,0.29 0.337,0.272c0.168,-0.018 0.29,-0.169 0.272,-0.337c-0.018,-0.168 -0.169,-0.29 -0.337,-0.272Z" style="fill:#fff;"/><path d="M190.029,42.076c0.25,-0.027 0.475,0.155 0.502,0.405c0.027,0.25 -0.155,0.475 -0.405,0.502c-0.25,0.027 -0.475,-0.155 -0.502,-0.405c-0.027,-0.25 0.155,-0.475 0.405,-0.502Zm0.032,0.298c-0.086,0.009 -0.148,0.086 -0.139,0.172c0.009,0.086 0.086,0.148 0.172,0.139c0.086,-0.009 0.148,-0.086 0.139,-0.172c-0.009,-0.086 -0.086,-0.148 -0.172,-0.139Z"/><path d="M168.635,25.637c0.407,0.249 0.535,0.782 0.286,1.188c-0.249,0.407 -0.782,0.535 -1.188,0.286c-0.407,-0.249 -0.535,-0.782 -0.286,-1.188c0.249,-0.407 0.782,-0.535 1.188,-0.286Zm-0.157,0.256c-0.266,-0.163 -0.613,-0.079 -0.776,0.186c-0.163,0.266 -0.079,0.613 0.186,0.776c0.266,0.163 0.613,0.079 0.776,-0.186c0.163,-0.266 0.079,-0.613 -0.186,-0.776Z"/><path d="M177.42,32.39c0.144,0.088 0.189,0.277 0.101,0.421c-0.088,0.144 -0.277,0.189 -0.421,0.101c-0.144,-0.088 -0.189,-0.277 -0.101,-0.421c0.088,-0.144 0.277,-0.189 0.421,-0.101Z" style="fill:#fff;"/><path d="M177.499,32.262c0.215,0.131 0.282,0.412 0.151,0.627c-0.131,0.215 -0.412,0.282 -0.627,0.151c-0.215,-0.131 -0.282,-0.412 -0.151,-0.627c0.131,-0.215 0.412,-0.282 0.627,-0.151Zm-0.157,0.256c-0.073,-0.045 -0.17,-0.022 -0.215,0.052c-0.045,0.073 -0.022,0.17 0.052,0.215c0.073,0.045 0.17,0.022 0.215,-0.052c0.045,-0.073 0.022,-0.17 -0.052,-0.215Z"/><path d="M182.745,27.994c0.144,0.088 0.189,0.277 0.101,0.421c-0.088,0.144 -0.277,0.189 -0.421,0.101c-0.144,-0.088 -0.189,-0.277 -0.101,-0.421c0.088,-0.144 0.277,-0.189 0.421,-0.101Z" style="fill:#dbf6ff;"/><path d="M182.823,27.866c0.215,0.131 0.282,0.412 0.151,0.627c-0.131,0.215 -0.412,0.282 -0.627,0.151c-0.215,-0.131 -0.282,-0.412 -0.151,-0.627c0.131,-0.215 0.412,-0.282 0.627,-0.151Zm-0.157,0.256c-0.073,-0.045 -0.17,-0.022 -0.215,0.052c-0.045,0.073 -0.022,0.17 0.052,0.215c0.073,0.045 0.17,0.022 0.215,-0.052c0.045,-0.073 0.022,-0.17 -0.052,-0.215Z"/><path d="M164.611,24.784c0.144,0.088 0.189,0.277 0.101,0.421c-0.088,0.144 -0.277,0.189 -0.421,0.101c-0.144,-0.088 -0.189,-0.277 -0.101,-0.421c0.088,-0.144 0.277,-0.189 0.421,-0.101Z" style="fill:#fff;"/><path d="M164.689,24.656c0.215,0.131 0.282,0.412 0.151,0.627c-0.131,0.215 -0.412,0.282 -0.627,0.151c-0.215,-0.131 -0.282,-0.412 -0.151,-0.627c0.131,-0.215 0.412,-0.282 0.627,-0.151Zm-0.157,0.256c-0.073,-0.045 -0.17,-0.022 -0.215,0.052c-0.045,0.073 -0.022,0.17 0.052,0.215c0.073,0.045 0.17,0.022 0.215,-0.052c0.045,-0.073 0.022,-0.17 -0.052,-0.215Z"/><path d="M161.811,47.42c0.215,0.131 0.282,0.412 0.151,0.627c-0.131,0.215 -0.412,0.282 -0.627,0.151c-0.215,-0.131 -0.282,-0.412 -0.151,-0.627c0.131,-0.215 0.412,-0.282 0.627,-0.151Zm-0.157,0.256c-0.073,-0.045 -0.17,-0.022 -0.215,0.052c-0.045,0.073 -0.022,0.17 0.052,0.215c0.073,0.045 0.17,0.022 0.215,-0.052c0.045,-0.073 0.022,-0.17 -0.052,-0.215Z"/><path d="M161.507,16.897c0.375,0.122 0.778,-0.083 0.9,-0.458c0.122,-0.375 -0.083,-0.778 -0.458,-0.9c-0.375,-0.122 -0.778,0.083 -0.9,0.458c-0.122,0.375 0.083,0.778 0.458,0.9Z" style="fill:#dbf6ff;"/><path d="M161.46,17.04c-0.453,-0.148 -0.702,-0.636 -0.554,-1.09c0.148,-0.453 0.636,-0.702 1.09,-0.554c0.453,0.148 0.702,0.636 0.554,1.09c-0.148,0.453 -0.636,0.702 -1.09,0.554Zm0.093,-0.285c0.296,0.097 0.615,-0.065 0.711,-0.361c0.097,-0.296 -0.065,-0.615 -0.361,-0.711c-0.296,-0.097 -0.615,0.065 -0.711,0.361c-0.097,0.296 0.065,0.615 0.361,0.711Z"/><path d="M168.71,23.11c0.161,0.052 0.334,-0.035 0.386,-0.196c0.052,-0.161 -0.035,-0.334 -0.196,-0.386c-0.161,-0.052 -0.334,0.035 -0.386,0.196c-0.052,0.161 0.035,0.334 0.196,0.386Z" style="fill:#fff;"/><path d="M168.663,23.253c-0.239,-0.078 -0.37,-0.336 -0.292,-0.575c0.078,-0.239 0.336,-0.37 0.575,-0.292c0.239,0.078 0.37,0.336 0.292,0.575c-0.078,0.239 -0.336,0.37 -0.575,0.292Zm0.093,-0.285c0.082,0.027 0.17,-0.018 0.197,-0.1c0.027,-0.082 -0.018,-0.17 -0.1,-0.197c-0.082,-0.027 -0.17,0.018 -0.197,0.1c-0.027,0.082 0.018,0.17 0.1,0.197Z"/></g><g id="weight"><path d="M170.24,34.199c0,0 2.15,2.137 3.778,3.755c0.475,0.472 0.742,1.113 0.744,1.782c0.002,0.669 -0.262,1.312 -0.734,1.786c-0.769,0.773 -1.666,1.676 -2.435,2.45c-0.472,0.475 -1.113,0.742 -1.782,0.744c-0.669,0.002 -1.312,-0.262 -1.786,-0.734c-3.288,-3.268 -10.254,-10.192 -13.542,-13.461c-0.475,-0.472 -0.742,-1.113 -0.744,-1.782c-0.002,-0.669 0.262,-1.312 0.734,-1.786c0.769,-0.773 1.666,-1.676 2.435,-2.45c0.472,-0.475 1.113,-0.742 1.782,-0.744c0.669,-0.002 1.312,0.262 1.786,0.734c1.915,1.903 4.68,4.652 4.68,4.652c0.674,-0.609 1.298,-1.194 1.792,-1.694c1.256,-1.271 3.352,-4.398 5.279,-6.346c1.1,-1.113 4.035,-2.571 6.046,-4.605c0.453,-0.459 0.893,-0.929 1.316,-1.402c0,0 -2.713,-2.696 -4.604,-4.577c-0.475,-0.472 -0.742,-1.113 -0.744,-1.782c-0.002,-0.669 0.262,-1.312 0.734,-1.786c0.769,-0.773 1.666,-1.676 2.435,-2.45c0.472,-0.475 1.113,-0.742 1.782,-0.744c0.669,-0.002 1.312,0.262 1.786,0.734c3.288,3.268 10.254,10.192 13.542,13.461c0.475,0.472 0.742,1.113 0.744,1.782c0.002,0.669 -0.262,1.312 -0.734,1.786c-0.769,0.773 -1.666,1.676 -2.435,2.45c-0.982,0.988 -2.58,0.993 -3.568,0.011c-1.741,-1.73 -4.124,-4.1 -4.124,-4.1c-0.382,0.364 -0.765,0.739 -1.143,1.122c-1.858,1.879 -3.744,4.788 -5.139,6.199c-1.813,1.834 -4.533,3.586 -7.021,6.104c-0.294,0.297 -0.58,0.595 -0.858,0.892Z" style="fill:#ff98bb;stroke:#000;stroke-width:0.3px;"/><path d="M164.144,28.021c0,0 0.443,0.765 1.022,1.154c0.23,0.155 -0.018,-0.251 0.236,-0.161c0.383,0.135 1.271,0.758 1.598,1.056c1.068,0.971 1.613,1.403 2.587,2.532c0.304,0.353 0.632,1.568 0.991,1.843c0.218,0.167 0.365,0.703 0.365,0.703c0,0 -3.7,-3.518 -4.7,-4.638c-0.961,-1.076 -2.099,-2.489 -2.099,-2.489Z" style="fill:#954e2a;fill-opacity:0.19;"/><path d="M177.866,13.236c0,0 0.761,0.449 1.145,1.032c0.153,0.232 -0.25,-0.02 -0.163,0.235c0.131,0.384 0.747,1.277 1.042,1.607c0.962,1.077 1.389,1.625 2.51,2.608c0.35,0.307 1.563,0.645 1.834,1.007c0.165,0.22 0.7,0.371 0.7,0.371c0,0 -3.486,-3.73 -4.597,-4.74c-1.068,-0.97 -2.471,-2.12 -2.471,-2.12Z" style="fill:#954e2a;fill-opacity:0.19;"/></g><path d="M181.635,5.68c0,0 -0.47,1.943 -1.016,2.365c-0.546,0.422 -1.332,0.321 -1.753,-0.225c-0.422,-0.546 -0.321,-1.332 0.225,-1.753c0.546,-0.422 2.545,-0.387 2.545,-0.387Z" style="fill:#dbf6ff;"/><path d="M182.217,6.994c0,0 0.727,0.89 0.731,1.286c0.004,0.397 -0.315,0.722 -0.712,0.726c-0.397,0.004 -0.722,-0.315 -0.726,-0.712c-0.004,-0.397 0.706,-1.3 0.706,-1.3Z" style="fill:#dbf6ff;"/><path d="M234.829,30.866c1.368,-0 2.522,1.016 2.697,2.372c0.387,2.868 0.974,7.637 0.974,10.271c0,2.347 -0.54,6.199 -0.927,8.661c-0.197,1.331 -1.34,2.317 -2.686,2.317c-7.886,0.003 -33.763,0.003 -41.459,0.003c-1.297,0 -2.414,-0.917 -2.667,-2.189c-0.513,-2.473 -1.261,-6.463 -1.261,-8.875c-0,-2.665 0.802,-7.476 1.32,-10.307c0.226,-1.3 1.355,-2.25 2.675,-2.25c7.759,-0.004 33.404,-0.004 41.335,-0.004Z" style="fill:#45547c;stroke:#000;stroke-width:0.3px;"/><path d="M229.208,49.366c0.633,0 1.246,-0.221 1.733,-0.624c2.051,-1.698 7.578,-6.272 7.578,-6.272c0,0 -0.02,0.539 -0.02,1.04c0,2.347 -0.54,6.199 -0.927,8.661c-0.197,1.331 -1.34,2.317 -2.686,2.317c-7.886,0.003 -33.763,0.003 -41.459,0.003c-1.297,0 -2.414,-0.917 -2.667,-2.189c-0.513,-2.473 -1.261,-6.463 -1.261,-8.875c0,-0.597 -0.082,-0.921 -0.082,-0.921c0,0 4.233,4.25 6.035,6.06c0.51,0.512 1.203,0.8 1.926,0.8l31.829,0Z" style="fill:#954e2a;fill-opacity:0.18;"/><path d="M200.5,30.5c0,0 2.33,-7 14.413,-7c11.083,0 13.087,7 13.087,7l-0,24l-4,0l-0,-24c0,0 -0.29,-3 -9.03,-3c-10.75,0 -10.47,3 -10.47,3l0,24l-4,0l0,-24Z" style="fill:#eb8a9f;stroke:#000;stroke-width:0.3px;"/><g id="Water-accent-left" serif:id="Water accent left"><path d="M10.532,3.578c0,0 10.414,3.252 17.882,10.772c8.119,8.175 1.974,12.787 11.439,16.33c6.724,2.517 12.045,2.972 15.201,5.747c3.721,3.273 4.067,10.687 6.95,15.264c2.573,4.085 8.049,6.14 8.049,6.14l-51.063,-0.186l-8.457,-54.068Z" style="fill:#8cefff;stroke:#000;stroke-width:0.5px;"/><path d="M33.818,29.866c2.619,3.947 12.156,4.192 18.332,10.735c2.42,2.563 4.315,8.632 7.656,13.132c3.471,4.675 8.344,7.736 8.344,7.736l-4.832,0.021c0,0 -4.423,-2.94 -6.876,-6.524c-2.643,-3.86 -5.401,-8.467 -7.533,-10.951c-6.026,-7.017 -13.805,-7.902 -17.528,-11.526c-5.837,-5.681 -9.08,-16.39 -14.75,-19.564c-7.913,-4.43 -4.582,-6.421 -4.582,-6.421c0,0 4.391,1.475 7.832,4.36c7.128,5.977 10.58,13.94 13.938,19Z" style="fill:#2a6a95;fill-opacity:0.18;"/><path d="M28.818,35.366c2.619,3.947 12.156,4.192 18.332,10.735c2.42,2.563 4.315,8.632 7.656,13.132c3.471,4.675 8.344,7.736 8.344,7.736l-4.832,0.021c0,0 -4.423,-2.94 -6.876,-6.524c-2.643,-3.86 -5.401,-8.467 -7.533,-10.951c-6.026,-7.017 -13.805,-7.902 -17.528,-11.526c-5.837,-5.681 -9.08,-16.39 -14.75,-19.564c-7.913,-4.43 -4.582,-6.421 -4.582,-6.421c0,0 4.391,1.475 7.832,4.36c7.128,5.977 10.58,13.94 13.938,19Z" style="fill:#2a6a95;fill-opacity:0.18;"/><path d="M7.5,0c0,0 5.086,4.155 6.629,8.483c1.495,4.192 -0.162,12.769 6.45,20.413c4.88,5.642 12.13,9.736 17.613,16.158c6.68,7.822 6.308,12.947 6.308,12.947l-44.5,0l0,-58l7.5,0Z" style="fill:#8cefff;stroke:#000;stroke-width:0.5px;"/><path d="M15.318,29.866c2.619,3.947 13.156,11.692 19.332,18.235c4.934,5.227 6,9.868 6,9.868l-5.832,0.021c0,0 -0.297,-3.686 -4.409,-8.474c-6.026,-7.017 -17.805,-16.402 -19.528,-20.026c-3.498,-7.355 -0.58,-19.39 -6.25,-22.564c-7.913,-4.43 -4.582,-6.421 -4.582,-6.421c0,0 4.391,1.475 7.832,4.36c7.128,5.977 4.08,19.94 7.438,25Z" style="fill:#2a6a95;fill-opacity:0.18;"/><path d="M7.818,33.866c2.619,3.947 13.156,11.692 19.332,18.235c4.934,5.227 6,9.868 6,9.868l-5.832,0.021c0,0 -0.297,-3.686 -4.409,-8.474c-6.026,-7.017 -17.805,-16.402 -19.528,-20.026c-3.498,-7.355 -0.58,-19.39 -6.25,-22.564c-7.913,-4.43 -4.582,-6.421 -4.582,-6.421c0,0 4.391,1.475 7.832,4.36c7.128,5.977 4.08,19.94 7.438,25Z" style="fill:#2a6a95;fill-opacity:0.18;"/><path d="M1.818,39.366c2.619,3.947 13.156,11.692 19.332,18.235c4.934,5.227 6,9.868 6,9.868l-5.832,0.021c0,0 -0.297,-3.686 -4.409,-8.474c-6.026,-7.017 -17.805,-16.402 -19.528,-20.026c-3.498,-7.355 -0.58,-19.39 -6.25,-22.564c-7.913,-4.43 -4.582,-6.421 -4.582,-6.421c0,0 4.391,1.475 7.832,4.36c7.128,5.977 4.08,19.94 7.438,25Z" style="fill:#2a6a95;fill-opacity:0.18;"/><path d="M-3.682,44.866c2.619,3.947 13.156,11.692 19.332,18.235c4.934,5.227 6,9.868 6,9.868l-5.832,0.021c0,0 -0.297,-3.686 -4.409,-8.474c-6.026,-7.017 -17.805,-16.402 -19.528,-20.026c-3.498,-7.355 -0.58,-19.39 -6.25,-22.564c-7.913,-4.43 -4.582,-6.421 -4.582,-6.421c0,0 4.391,1.475 7.832,4.36c7.128,5.977 4.08,19.94 7.438,25Z" style="fill:#2a6a95;fill-opacity:0.18;"/><g id="soap-back" serif:id="soap back"><path d="M70.662,27.647c-0.393,-0.025 -0.693,-0.364 -0.668,-0.758c0.025,-0.393 0.364,-0.693 0.758,-0.668c0.393,0.025 0.693,0.364 0.668,0.758c-0.025,0.393 -0.364,0.693 -0.758,0.668Z" style="fill:#fff;"/><path d="M70.653,27.796c-0.476,-0.03 -0.838,-0.441 -0.808,-0.917c0.03,-0.476 0.441,-0.838 0.917,-0.808c0.476,0.03 0.838,0.441 0.808,0.917c-0.03,0.476 -0.441,0.838 -0.917,0.808Zm0.019,-0.299c0.311,0.02 0.579,-0.217 0.599,-0.528c0.02,-0.311 -0.217,-0.579 -0.528,-0.599c-0.311,-0.02 -0.579,0.217 -0.599,0.528c-0.02,0.311 0.217,0.579 0.528,0.599Z"/><path d="M42.743,35.904c-0.393,-0.025 -0.693,-0.364 -0.668,-0.758c0.025,-0.393 0.364,-0.693 0.758,-0.668c0.393,0.025 0.693,0.364 0.668,0.758c-0.025,0.393 -0.364,0.693 -0.758,0.668Z" style="fill:#feecff;"/><path d="M42.734,36.053c-0.476,-0.03 -0.838,-0.441 -0.808,-0.917c0.03,-0.476 0.441,-0.838 0.917,-0.808c0.476,0.03 0.838,0.441 0.808,0.917c-0.03,0.476 -0.441,0.838 -0.917,0.808Zm0.019,-0.299c0.311,0.02 0.579,-0.217 0.599,-0.528c0.02,-0.311 -0.217,-0.579 -0.528,-0.599c-0.311,-0.02 -0.579,0.217 -0.599,0.528c-0.02,0.311 0.217,0.579 0.528,0.599Z"/><path d="M39.107,28.722c-0.393,-0.025 -0.693,-0.364 -0.668,-0.758c0.025,-0.393 0.364,-0.693 0.758,-0.668c0.393,0.025 0.693,0.364 0.668,0.758c-0.025,0.393 -0.364,0.693 -0.758,0.668Z" style="fill:#fff;"/><path d="M39.097,28.872c-0.476,-0.03 -0.838,-0.441 -0.808,-0.917c0.03,-0.476 0.441,-0.838 0.917,-0.808c0.476,0.03 0.838,0.441 0.808,0.917c-0.03,0.476 -0.441,0.838 -0.917,0.808Zm0.019,-0.299c0.311,0.02 0.579,-0.217 0.599,-0.528c0.02,-0.311 -0.217,-0.579 -0.528,-0.599c-0.311,-0.02 -0.579,0.217 -0.599,0.528c-0.02,0.311 0.217,0.579 0.528,0.599Z"/><path d="M20.731,27.203c-0.393,-0.025 -0.693,-0.364 -0.668,-0.758c0.025,-0.393 0.364,-0.693 0.758,-0.668c0.393,0.025 0.693,0.364 0.668,0.758c-0.025,0.393 -0.364,0.693 -0.758,0.668Z" style="fill:#fff;"/><path d="M20.721,27.353c-0.476,-0.03 -0.838,-0.441 -0.808,-0.917c0.03,-0.476 0.441,-0.838 0.917,-0.808c0.476,0.03 0.838,0.441 0.808,0.917c-0.03,0.476 -0.441,0.838 -0.917,0.808Zm0.019,-0.299c0.311,0.02 0.579,-0.217 0.599,-0.528c0.02,-0.311 -0.217,-0.579 -0.528,-0.599c-0.311,-0.02 -0.579,0.217 -0.599,0.528c-0.02,0.311 0.217,0.579 0.528,0.599Z"/><path d="M36.372,46.134c-0.393,-0.025 -0.693,-0.364 -0.668,-0.758c0.025,-0.393 0.364,-0.693 0.758,-0.668c0.393,0.025 0.693,0.364 0.668,0.758c-0.025,0.393 -0.364,0.693 -0.758,0.668Z" style="fill:#fff;fill-opacity:0;"/><path d="M50.953,42.265c-0.476,-0.03 -0.823,-0.44 -0.808,-0.917c0.03,-0.976 0.917,-1.808 0.917,-1.808c0,0 0.838,0.941 0.808,1.917c-0.015,0.477 -0.441,0.838 -0.917,0.808Zm0.019,-0.299c0.311,0.02 0.579,-0.217 0.599,-0.528c0.02,-0.311 -0.528,-1.599 -0.528,-1.599c0,0 -0.579,1.217 -0.599,1.528c-0.02,0.311 0.217,0.579 0.528,0.599Z"/><path d="M48.541,25.024c-0.393,-0.025 -0.693,-0.364 -0.668,-0.758c0.025,-0.393 0.364,-0.693 0.758,-0.668c0.393,0.025 0.693,0.364 0.668,0.758c-0.025,0.393 -0.364,0.693 -0.758,0.668Z" style="fill:#fff;fill-opacity:0;"/><path d="M48.532,25.174c-0.476,-0.03 -0.838,-0.441 -0.808,-0.917c0.03,-0.476 0.441,-0.838 0.917,-0.808c0.476,0.03 0.838,0.441 0.808,0.917c-0.03,0.476 -0.441,0.838 -0.917,0.808Zm0.019,-0.299c0.311,0.02 0.579,-0.217 0.599,-0.528c0.02,-0.311 -0.217,-0.579 -0.528,-0.599c-0.311,-0.02 -0.579,0.217 -0.599,0.528c-0.02,0.311 0.217,0.579 0.528,0.599Z"/><path d="M38.621,33.19c-0.169,-0.011 -0.297,-0.156 -0.286,-0.325c0.011,-0.169 0.156,-0.297 0.325,-0.286c0.169,0.011 0.297,0.156 0.286,0.325c-0.011,0.169 -0.156,0.297 -0.325,0.286Z" style="fill:#fff;fill-opacity:0;"/><path d="M38.611,33.34c-0.251,-0.016 -0.442,-0.233 -0.426,-0.484c0.016,-0.251 0.233,-0.442 0.484,-0.426c0.251,0.016 0.442,0.233 0.426,0.484c-0.016,0.251 -0.233,0.442 -0.484,0.426Zm0.019,-0.299c0.086,0.005 0.16,-0.06 0.166,-0.146c0.005,-0.086 -0.06,-0.16 -0.146,-0.166c-0.086,-0.005 -0.16,0.06 -0.166,0.146c-0.005,0.086 0.06,0.16 0.146,0.166Z"/><path d="M37.608,23.312c-0.169,-0.011 -0.297,-0.156 -0.286,-0.325c0.011,-0.169 0.156,-0.297 0.325,-0.286c0.169,0.011 0.297,0.156 0.286,0.325c-0.011,0.169 -0.156,0.297 -0.325,0.286Z" style="fill:#fff;"/><path d="M37.599,23.461c-0.251,-0.016 -0.442,-0.233 -0.426,-0.484c0.016,-0.251 0.233,-0.442 0.484,-0.426c0.251,0.016 0.442,0.233 0.426,0.484c-0.016,0.251 -0.233,0.442 -0.484,0.426Zm0.019,-0.299c0.086,0.005 0.16,-0.06 0.166,-0.146c0.005,-0.086 -0.06,-0.16 -0.146,-0.166c-0.086,-0.005 -0.16,0.06 -0.166,0.146c-0.005,0.086 0.06,0.16 0.146,0.166Z"/><path d="M34.957,29.687c-0.169,-0.011 -0.297,-0.156 -0.286,-0.325c0.011,-0.169 0.325,-1.286 0.325,-1.286c0,0 0.297,1.156 0.286,1.325c-0.011,0.169 -0.156,0.297 -0.325,0.286Z" style="fill:#dbf6ff;"/><path d="M34.947,29.837c-0.251,-0.016 -0.432,-0.232 -0.426,-0.484c0.016,-0.751 0.484,-1.426 0.484,-1.426c0,0 0.442,0.733 0.426,1.484c-0.005,0.252 -0.233,0.442 -0.484,0.426Zm0.019,-0.299c0.086,0.005 0.16,-0.06 0.166,-0.146c0.005,-0.086 -0.146,-1.166 -0.146,-1.166c0,0 -0.16,1.06 -0.166,1.146c-0.005,0.086 0.06,0.16 0.146,0.166Z"/><path d="M52.488,24.046c-0.169,-0.011 -0.297,-0.156 -0.286,-0.325c0.011,-0.169 0.156,-0.297 0.325,-0.286c0.169,0.011 0.297,0.156 0.286,0.325c-0.011,0.169 -0.156,0.297 -0.325,0.286Z" style="fill:#fff;"/><path d="M52.478,24.196c-0.251,-0.016 -0.442,-0.233 -0.426,-0.484c0.016,-0.251 0.233,-0.442 0.484,-0.426c0.251,0.016 0.442,0.233 0.426,0.484c-0.016,0.251 -0.233,0.442 -0.484,0.426Zm0.019,-0.299c0.086,0.005 0.16,-0.06 0.166,-0.146c0.005,-0.086 -0.06,-0.16 -0.146,-0.166c-0.086,-0.005 -0.16,0.06 -0.166,0.146c-0.005,0.086 0.06,0.16 0.146,0.166Z"/><path d="M41.973,45.229c-0.169,-0.011 -0.297,-0.156 -0.286,-0.325c0.011,-0.169 0.156,-0.297 0.325,-0.286c0.169,0.011 0.297,0.156 0.286,0.325c-0.011,0.169 -0.156,0.297 -0.325,0.286Z" style="fill:#dbf6ff;"/><path d="M41.964,45.379c-0.251,-0.016 -0.442,-0.233 -0.426,-0.484c0.016,-0.251 0.233,-0.442 0.484,-0.426c0.251,0.016 0.442,0.233 0.426,0.484c-0.016,0.251 -0.233,0.442 -0.484,0.426Zm0.019,-0.299c0.086,0.005 0.16,-0.06 0.166,-0.146c0.005,-0.086 -0.06,-0.16 -0.146,-0.166c-0.086,-0.005 -0.16,0.06 -0.166,0.146c-0.005,0.086 0.06,0.16 0.146,0.166Z"/><path d="M66.357,39.049c-0.388,0.067 -0.649,0.437 -0.582,0.825c0.067,0.388 0.437,0.649 0.825,0.582c0.388,-0.067 0.649,-0.437 0.582,-0.825c-0.067,-0.388 -0.437,-0.649 -0.825,-0.582Z" style="fill:#fff;"/><path d="M66.331,37.901c0,0 0.918,1.234 0.999,1.704c0.081,0.47 -0.234,0.918 -0.704,0.999c-0.47,0.081 -0.918,-0.234 -0.999,-0.704c-0.081,-0.47 0.704,-1.999 0.704,-1.999Zm0.051,0.296c0,0 -0.513,1.345 -0.46,1.652c0.053,0.307 0.345,0.513 0.652,0.46c0.307,-0.053 0.513,-0.345 0.46,-0.652c-0.053,-0.307 -0.652,-1.46 -0.652,-1.46Z"/><path d="M63.518,46.581c-0.388,0.067 -0.649,0.437 -0.582,0.825c0.067,0.388 0.437,0.649 0.825,0.582c0.388,-0.067 0.649,-0.437 0.582,-0.825c-0.067,-0.388 -0.437,-0.649 -0.825,-0.582Z" style="fill:#feecff;"/><path d="M63.492,46.433c0.47,-0.081 0.918,0.234 0.999,0.704c0.081,0.47 -0.234,0.918 -0.704,0.999c-0.47,0.081 -0.918,-0.234 -0.999,-0.704c-0.081,-0.47 0.234,-0.918 0.704,-0.999Zm0.051,0.296c-0.307,0.053 -0.513,0.345 -0.46,0.652c0.053,0.307 0.345,0.513 0.652,0.46c0.307,-0.053 0.513,-0.345 0.46,-0.652c-0.053,-0.307 -0.345,-0.513 -0.652,-0.46Z"/><path d="M58.919,29.566c-0.388,0.067 -0.649,0.437 -0.582,0.825c0.067,0.388 0.437,0.649 0.825,0.582c0.388,-0.067 0.649,-0.437 0.582,-0.825c-0.067,-0.388 -0.437,-0.649 -0.825,-0.582Z" style="fill:#dbf6ff;"/><path d="M58.893,29.419c0.47,-0.081 0.918,0.234 0.999,0.704c0.081,0.47 -0.234,0.918 -0.704,0.999c-0.47,0.081 -0.918,-0.234 -0.999,-0.704c-0.081,-0.47 0.234,-0.918 0.704,-0.999Zm0.051,0.296c-0.307,0.053 -0.513,0.345 -0.46,0.652c0.053,0.307 0.345,0.513 0.652,0.46c0.307,-0.053 0.513,-0.345 0.46,-0.652c-0.053,-0.307 -0.345,-0.513 -0.652,-0.46Z"/><path d="M73.271,49.091c0.47,-0.081 0.918,0.234 0.999,0.704c0.081,0.47 -0.234,0.918 -0.704,0.999c-0.47,0.081 -0.918,-0.234 -0.999,-0.704c-0.081,-0.47 0.234,-0.918 0.704,-0.999Zm0.051,0.296c-0.307,0.053 -0.513,0.345 -0.46,0.652c0.053,0.307 0.345,0.513 0.652,0.46c0.307,-0.053 0.513,-0.345 0.46,-0.652c-0.053,-0.307 -0.345,-0.513 -0.652,-0.46Z"/><path d="M5.603,31.515c0.169,0.011 0.314,-0.118 0.325,-0.286c0.011,-0.169 -0.118,-0.314 -0.286,-0.325c-0.169,-0.011 -0.314,0.118 -0.325,0.286c-0.011,0.169 0.118,0.314 0.286,0.325Z" style="fill:#fff;fill-opacity:0;"/><path d="M62.526,42.044c0.248,-0.043 0.484,0.124 0.527,0.372c0.043,0.248 -0.124,0.484 -0.372,0.527c-0.248,0.043 -0.484,-0.124 -0.527,-0.372c-0.043,-0.248 0.124,-0.484 0.372,-0.527Zm0.051,0.296c-0.085,0.015 -0.142,0.096 -0.127,0.18c0.015,0.085 0.096,0.142 0.18,0.127c0.085,-0.015 0.142,-0.096 0.127,-0.18c-0.015,-0.085 -0.096,-0.142 -0.18,-0.127Z"/><path d="M62.612,52.122c-0.166,0.029 -0.278,0.187 -0.249,0.354c0.029,0.166 0.187,0.278 0.354,0.249c0.166,-0.029 0.278,-0.187 0.249,-0.354c-0.029,-0.166 -0.187,-0.278 -0.354,-0.249Z" style="fill:#fff;"/><path d="M62.586,51.974c0.248,-0.043 0.484,0.124 0.527,0.372c0.043,0.248 -0.124,0.484 -0.372,0.527c-0.248,0.043 -0.484,-0.124 -0.527,-0.372c-0.043,-0.248 0.124,-0.484 0.372,-0.527Zm0.051,0.296c-0.085,0.015 -0.142,0.096 -0.127,0.18c0.015,0.085 0.096,0.142 0.18,0.127c0.085,-0.015 0.142,-0.096 0.127,-0.18c-0.015,-0.085 -0.096,-0.142 -0.18,-0.127Z"/><path d="M58.494,44.518c0,0 -0.107,1.698 -0.11,1.867c-0.004,0.169 0.13,0.309 0.299,0.313c0.169,0.004 0.309,-0.13 0.313,-0.299c0.004,-0.169 -0.502,-1.881 -0.502,-1.881Z" style="fill:#feecff;"/><path d="M58.498,44.368c0,0 0.75,1.292 0.648,2.034c-0.034,0.249 -0.214,0.451 -0.466,0.446c-0.252,-0.006 -0.392,-0.22 -0.446,-0.466c-0.293,-1.329 0.264,-2.014 0.264,-2.014Zm-0.007,0.3c0,0 0.045,1.635 0.043,1.721c-0.002,0.086 0.066,0.158 0.153,0.16c0.086,0.002 0.158,-0.066 0.16,-0.153c0.002,-0.086 -0.355,-1.728 -0.355,-1.728Z"/><path d="M77.325,49.784c-0.166,0.029 -0.278,0.187 -0.249,0.354c0.029,0.166 0.187,0.278 0.354,0.249c0.166,-0.029 0.278,-0.187 0.249,-0.354c-0.029,-0.166 -0.187,-0.278 -0.354,-0.249Z" style="fill:#fff;"/><path d="M77.3,49.637c0.248,-0.043 0.484,0.124 0.527,0.372c0.043,0.248 -0.124,0.484 -0.372,0.527c-0.248,0.043 -0.484,-0.124 -0.527,-0.372c-0.043,-0.248 0.124,-0.484 0.372,-0.527Zm0.051,0.296c-0.085,0.015 -0.142,0.096 -0.127,0.18c0.015,0.085 0.096,0.142 0.18,0.127c0.085,-0.015 0.142,-0.096 0.127,-0.18c-0.015,-0.085 -0.096,-0.142 -0.18,-0.127Z"/><path d="M49.647,27.442c-0.166,0.029 -0.278,0.187 -0.249,0.354c0.029,0.166 0.187,0.278 0.354,0.249c0.166,-0.029 0.278,-0.187 0.249,-0.354c-0.029,-0.166 -0.187,-0.278 -0.354,-0.249Z" style="fill:#fff;"/><path d="M49.621,27.294c0.248,-0.043 0.484,0.124 0.527,0.372c0.043,0.248 -0.124,0.484 -0.372,0.527c-0.248,0.043 -0.484,-0.124 -0.527,-0.372c-0.043,-0.248 0.124,-0.484 0.372,-0.527Zm0.051,0.296c-0.085,0.015 -0.142,0.096 -0.127,0.18c0.015,0.085 0.096,0.142 0.18,0.127c0.085,-0.015 0.142,-0.096 0.127,-0.18c-0.015,-0.085 -0.096,-0.142 -0.18,-0.127Z"/><path d="M27.211,12.269c0.422,0.222 0.584,0.745 0.362,1.167c-0.222,0.422 -0.745,0.584 -1.167,0.362c-0.422,-0.222 -0.584,-0.745 -0.362,-1.167c0.222,-0.422 0.745,-0.584 1.167,-0.362Zm-0.14,0.265c-0.275,-0.145 -0.617,-0.039 -0.762,0.236c-0.145,0.275 -0.039,0.617 0.236,0.762c0.275,0.145 0.617,0.039 0.762,-0.236c0.145,-0.275 0.039,-0.617 -0.236,-0.762Z"/><path d="M36.414,18.442c0.149,0.079 0.207,0.264 0.128,0.413c-0.079,0.149 -0.264,0.207 -0.413,0.128c-0.149,-0.079 -0.207,-0.264 -0.128,-0.413c0.079,-0.149 0.264,-0.207 0.413,-0.128Z" style="fill:#fff;"/><path d="M36.484,18.309c0.223,0.117 0.308,0.393 0.191,0.616c-0.117,0.223 -0.393,0.308 -0.616,0.191c-0.223,-0.117 -0.308,-0.393 -0.191,-0.616c0.117,-0.223 0.393,-0.308 0.616,-0.191Zm-0.14,0.265c-0.076,-0.04 -0.171,-0.011 -0.211,0.065c-0.04,0.076 -0.011,0.171 0.065,0.211c0.076,0.04 0.171,0.011 0.211,-0.065c0.04,-0.076 0.011,-0.171 -0.065,-0.211Z"/><path d="M41.444,13.711c0.149,0.079 0.207,0.264 0.128,0.413c-0.079,0.149 -0.264,0.207 -0.413,0.128c-0.149,-0.079 -0.207,-0.264 -0.128,-0.413c0.079,-0.149 0.264,-0.207 0.413,-0.128Z" style="fill:#dbf6ff;"/><path d="M41.514,13.579c0.223,0.117 0.308,0.393 0.191,0.616c-0.117,0.223 -0.393,0.308 -0.616,0.191c-0.223,-0.117 -0.308,-0.393 -0.191,-0.616c0.117,-0.223 0.393,-0.308 0.616,-0.191Zm-0.14,0.265c-0.076,-0.04 -0.171,-0.011 -0.211,0.065c-0.04,0.076 -0.011,0.171 0.065,0.211c0.076,0.04 0.171,0.011 0.211,-0.065c0.04,-0.076 0.011,-0.171 -0.065,-0.211Z"/><path d="M23.14,11.677c0.149,0.079 0.207,0.264 0.128,0.413c-0.079,0.149 -0.264,0.207 -0.413,0.128c-0.149,-0.079 -0.207,-0.264 -0.128,-0.413c0.079,-0.149 0.264,-0.207 0.413,-0.128Z" style="fill:#fff;"/><path d="M23.21,11.545c0.223,0.117 0.308,0.393 0.191,0.616c-0.117,0.223 -0.393,0.308 -0.616,0.191c-0.223,-0.117 -0.308,-0.393 -0.191,-0.616c0.117,-0.223 0.393,-0.308 0.616,-0.191Zm-0.14,0.265c-0.076,-0.04 -0.171,-0.011 -0.211,0.065c-0.04,0.076 -0.011,0.171 0.065,0.211c0.076,0.04 0.171,0.011 0.211,-0.065c0.04,-0.076 0.011,-0.171 -0.065,-0.211Z"/><path d="M21.807,34.447c0.223,0.117 0.308,0.393 0.191,0.616c-0.117,0.223 -0.393,0.308 -0.616,0.191c-0.223,-0.117 -0.308,-0.393 -0.191,-0.616c0.117,-0.223 0.393,-0.308 0.616,-0.191Zm-0.14,0.265c-0.076,-0.04 -0.171,-0.011 -0.211,0.065c-0.04,0.076 -0.011,0.171 0.065,0.211c0.076,0.04 0.171,0.011 0.211,-0.065c0.04,-0.076 0.011,-0.171 -0.065,-0.211Z"/><path d="M19.534,4.007c0.382,0.098 0.771,-0.133 0.869,-0.515c0.098,-0.382 -0.133,-0.771 -0.515,-0.869c-0.382,-0.098 -0.771,0.133 -0.869,0.515c-0.098,0.382 0.133,0.771 0.515,0.869Z" style="fill:#dbf6ff;"/><path d="M19.497,4.153c-0.462,-0.118 -0.741,-0.59 -0.623,-1.052c0.118,-0.462 0.59,-0.741 1.052,-0.623c0.462,0.118 0.741,0.59 0.623,1.052c-0.118,0.462 -0.59,0.741 -1.052,0.623Zm0.074,-0.291c0.302,0.077 0.609,-0.105 0.687,-0.407c0.077,-0.302 -0.105,-0.609 -0.407,-0.687c-0.302,-0.077 -0.609,0.105 -0.687,0.407c-0.077,0.302 0.105,0.609 0.407,0.687Z"/><path d="M27.123,9.743c0.164,0.042 0.331,-0.057 0.372,-0.221c0.042,-0.164 -0.057,-0.331 -0.221,-0.372c-0.164,-0.042 -0.331,0.057 -0.372,0.221c-0.042,0.164 0.057,0.331 0.221,0.372Z" style="fill:#fff;"/><path d="M27.086,9.888c-0.244,-0.062 -0.391,-0.311 -0.329,-0.555c0.062,-0.244 0.311,-0.391 0.555,-0.329c0.244,0.062 0.391,0.311 0.329,0.555c-0.062,0.244 -0.311,0.391 -0.555,0.329Zm0.074,-0.291c0.083,0.021 0.169,-0.029 0.19,-0.112c0.021,-0.083 -0.029,-0.169 -0.112,-0.19c-0.083,-0.021 -0.169,0.029 -0.19,0.112c-0.021,0.083 0.029,0.169 0.112,0.19Z"/></g><path d="M56.419,50.957c1.408,-1.064 3.125,-1.752 5.012,-1.904c5.284,-0.424 9.919,3.522 10.343,8.807c0.323,4.026 -1.891,7.675 -5.3,9.372c-0.365,4.62 -4.042,8.427 -8.808,8.809c-4.323,0.347 -8.21,-2.231 -9.714,-6.073c-1.193,0.687 -2.553,1.127 -4.016,1.244c-4.561,0.366 -8.638,-2.524 -9.941,-6.72c-0.622,-0.055 -1.224,-0.188 -1.796,-0.39c-0.122,3.704 -3.013,6.81 -6.794,7.114c-4.065,0.326 -7.63,-2.709 -7.956,-6.774c-0.326,-4.065 2.709,-7.63 6.774,-7.956c1.066,-0.085 2.097,0.06 3.044,0.395c0.122,-3.704 3.013,-6.81 6.794,-7.114c2.505,-0.201 4.82,0.875 6.305,2.681c0.649,-0.197 1.33,-0.329 2.033,-0.385c1.478,-0.119 2.906,0.105 4.204,0.604c1.229,-1.587 3.096,-2.672 5.252,-2.845c1.668,-0.134 3.252,0.298 4.562,1.136Z" style="fill:#fff;"/><path d="M56.407,50.655c1.418,-1.033 3.129,-1.7 5.005,-1.851c5.422,-0.435 10.177,3.614 10.612,9.036c0.327,4.081 -1.886,7.784 -5.312,9.551c-0.437,4.677 -4.184,8.51 -9.025,8.898c-4.335,0.348 -8.244,-2.171 -9.859,-5.966c-1.163,0.625 -2.471,1.025 -3.871,1.138c-4.622,0.371 -8.76,-2.517 -10.149,-6.737c-0.472,-0.052 -0.932,-0.148 -1.376,-0.283c-0.282,3.682 -3.21,6.719 -7.006,7.024c-4.203,0.337 -7.888,-2.801 -8.225,-7.004c-0.337,-4.203 2.801,-7.888 7.004,-8.225c0.985,-0.079 1.941,0.033 2.833,0.304c0.282,-3.682 3.21,-6.719 7.006,-7.024c2.53,-0.203 4.873,0.854 6.411,2.645c0.618,-0.177 1.262,-0.295 1.927,-0.348c1.452,-0.116 2.856,0.089 4.141,0.555c1.27,-1.562 3.152,-2.623 5.315,-2.796c1.663,-0.133 3.245,0.277 4.57,1.083Zm-0.122,0.513c-1.266,-0.809 -2.796,-1.226 -4.408,-1.097c-2.084,0.167 -3.887,1.215 -5.075,2.749c-0.068,0.087 -0.184,0.12 -0.287,0.08c-1.265,-0.486 -2.655,-0.703 -4.095,-0.588c-0.686,0.055 -1.348,0.183 -1.981,0.375c-0.097,0.029 -0.202,-0.002 -0.266,-0.08c-1.434,-1.746 -3.671,-2.785 -6.091,-2.591c-3.653,0.293 -6.446,3.294 -6.565,6.873c-0.003,0.08 -0.043,0.153 -0.109,0.198c-0.066,0.045 -0.149,0.056 -0.224,0.029c-0.915,-0.323 -1.912,-0.464 -2.941,-0.381c-3.927,0.315 -6.86,3.759 -6.545,7.687c0.315,3.927 3.759,6.86 7.687,6.545c3.653,-0.293 6.446,-3.294 6.565,-6.873c0.003,-0.08 0.043,-0.153 0.109,-0.198c0.066,-0.045 0.149,-0.056 0.224,-0.029c0.552,0.195 1.134,0.323 1.734,0.377c0.101,0.009 0.187,0.078 0.217,0.175c1.269,4.087 5.24,6.901 9.683,6.545c1.424,-0.114 2.749,-0.542 3.911,-1.211c0.063,-0.036 0.139,-0.043 0.208,-0.019c0.069,0.024 0.123,0.077 0.15,0.145c1.465,3.742 5.251,6.252 9.462,5.915c4.642,-0.372 8.223,-4.08 8.579,-8.579c0.007,-0.088 0.059,-0.165 0.138,-0.204c3.321,-1.653 5.477,-5.207 5.162,-9.128c-0.413,-5.147 -4.927,-8.99 -10.074,-8.578c-1.838,0.147 -3.51,0.818 -4.882,1.854c-0.083,0.063 -0.197,0.067 -0.285,0.011Z"/><path d="M8.054,67.417c-1.499,0.931 -3.271,1.461 -5.165,1.44c-5.301,-0.058 -9.558,-4.41 -9.499,-9.711c0.045,-4.039 2.581,-7.471 6.13,-8.851c0.784,-4.567 4.792,-8.024 9.573,-7.971c4.336,0.048 7.974,2.968 9.122,6.931c1.251,-0.575 2.645,-0.89 4.112,-0.874c4.576,0.05 8.373,3.299 9.289,7.596c0.614,0.111 1.202,0.299 1.753,0.551c0.459,-3.678 3.62,-6.508 7.413,-6.466c4.078,0.045 7.352,3.392 7.307,7.47c-0.045,4.078 -3.392,7.352 -7.47,7.307c-1.069,-0.012 -2.083,-0.25 -2.996,-0.67c-0.459,3.678 -3.62,6.508 -7.413,6.466c-2.513,-0.028 -4.721,-1.31 -6.035,-3.244c-0.665,0.138 -1.354,0.206 -2.06,0.199c-1.483,-0.016 -2.884,-0.369 -4.132,-0.984c-1.368,1.469 -3.326,2.379 -5.489,2.355c-1.673,-0.018 -3.211,-0.593 -4.44,-1.546Z" style="fill:#fff;"/><path d="M8.038,67.719c-1.506,0.9 -3.271,1.409 -5.152,1.388c-5.439,-0.06 -9.806,-4.524 -9.746,-9.964c0.045,-4.094 2.586,-7.581 6.159,-9.029c0.861,-4.618 4.94,-8.094 9.797,-8.041c4.349,0.048 8.013,2.912 9.276,6.838c1.215,-0.517 2.554,-0.796 3.958,-0.781c4.637,0.051 8.495,3.304 9.495,7.632c0.465,0.095 0.914,0.232 1.344,0.407c0.616,-3.641 3.808,-6.399 7.616,-6.358c4.216,0.046 7.601,3.507 7.554,7.723c-0.046,4.216 -3.507,7.601 -7.723,7.554c-0.988,-0.011 -1.93,-0.209 -2.793,-0.561c-0.616,3.641 -3.808,6.399 -7.616,6.358c-2.538,-0.028 -4.776,-1.294 -6.144,-3.217c-0.631,0.12 -1.284,0.179 -1.951,0.172c-1.456,-0.016 -2.836,-0.348 -4.074,-0.93c-1.407,1.44 -3.377,2.325 -5.547,2.301c-1.668,-0.018 -3.206,-0.571 -4.453,-1.494Zm0.168,-0.5c1.187,0.921 2.673,1.476 4.29,1.493c2.09,0.023 3.982,-0.857 5.304,-2.276c0.075,-0.081 0.194,-0.103 0.293,-0.054c1.215,0.599 2.58,0.942 4.024,0.958c0.688,0.008 1.359,-0.059 2.007,-0.193c0.099,-0.021 0.201,0.021 0.257,0.104c1.269,1.869 3.403,3.107 5.831,3.134c3.665,0.04 6.719,-2.694 7.162,-6.247c0.01,-0.079 0.057,-0.149 0.126,-0.187c0.07,-0.039 0.154,-0.042 0.226,-0.009c0.882,0.405 1.862,0.636 2.894,0.647c3.94,0.043 7.174,-3.12 7.217,-7.06c0.043,-3.94 -3.12,-7.174 -7.06,-7.217c-3.665,-0.04 -6.719,2.694 -7.162,6.247c-0.01,0.079 -0.057,0.149 -0.126,0.187c-0.07,0.039 -0.154,0.042 -0.226,0.009c-0.532,-0.244 -1.1,-0.425 -1.693,-0.533c-0.1,-0.018 -0.179,-0.095 -0.2,-0.194c-0.892,-4.185 -4.591,-7.349 -9.047,-7.398c-1.429,-0.016 -2.787,0.29 -4.005,0.851c-0.066,0.03 -0.142,0.031 -0.208,0c-0.066,-0.03 -0.116,-0.088 -0.136,-0.158c-1.118,-3.86 -4.661,-6.704 -8.885,-6.75c-4.656,-0.051 -8.56,3.315 -9.324,7.764c-0.015,0.087 -0.074,0.159 -0.156,0.191c-3.457,1.344 -5.928,4.687 -5.971,8.621c-0.057,5.163 4.089,9.401 9.252,9.458c1.844,0.02 3.57,-0.495 5.03,-1.402c0.089,-0.055 0.203,-0.049 0.285,0.015Z"/><path d="M63.404,60.32c-1.396,-0.034 -2.768,-1.615 -3.177,-3.762c-0.448,-2.349 0.424,-4.492 1.947,-4.782c0.983,-0.188 1.999,0.443 2.715,1.546c1.396,0.034 2.768,1.615 3.177,3.762c0.448,2.349 -0.424,4.492 -1.947,4.782c-0.983,0.188 -1.999,-0.443 -2.715,-1.546Z" style="fill:#dbf6ff;"/><path d="M5.36,51.505c-0.007,-1.341 1.472,-2.703 3.522,-3.158c2.243,-0.497 4.325,0.28 4.647,1.734c0.208,0.939 -0.369,1.932 -1.408,2.651c0.007,1.341 -1.472,2.703 -3.522,3.158c-2.243,0.497 -4.325,-0.28 -4.647,-1.734c-0.208,-0.939 0.369,-1.932 1.408,-2.651Z" style="fill:#dbf6ff;"/></g><g id="Water-accent-right" serif:id="Water accent right"><path d="M390.154,3.578c0,0 -10.414,3.252 -17.882,10.772c-8.119,8.175 -1.974,12.787 -11.439,16.33c-6.724,2.517 -12.045,2.972 -15.201,5.747c-3.721,3.273 -4.067,10.687 -6.95,15.264c-2.573,4.085 -8.049,6.14 -8.049,6.14l51.063,-0.186l8.457,-54.068Z" style="fill:#8cefff;stroke:#000;stroke-width:0.5px;"/><path d="M366.868,29.866c-2.619,3.947 -12.156,4.192 -18.332,10.735c-2.42,2.563 -4.315,8.632 -7.656,13.132c-3.471,4.675 -8.344,7.736 -8.344,7.736l4.832,0.021c0,0 4.423,-2.94 6.876,-6.524c2.643,-3.86 5.401,-8.467 7.533,-10.951c6.026,-7.017 13.805,-7.902 17.528,-11.526c5.837,-5.681 9.08,-16.39 14.75,-19.564c7.913,-4.43 4.582,-6.421 4.582,-6.421c0,0 -4.391,1.475 -7.832,4.36c-7.128,5.977 -10.58,13.94 -13.938,19Z" style="fill:#2a6a95;fill-opacity:0.18;"/><path d="M371.868,35.366c-2.619,3.947 -12.156,4.192 -18.332,10.735c-2.42,2.563 -4.315,8.632 -7.656,13.132c-3.471,4.675 -8.344,7.736 -8.344,7.736l4.832,0.021c0,0 4.423,-2.94 6.876,-6.524c2.643,-3.86 5.401,-8.467 7.533,-10.951c6.026,-7.017 13.805,-7.902 17.528,-11.526c5.837,-5.681 9.08,-16.39 14.75,-19.564c7.913,-4.43 4.582,-6.421 4.582,-6.421c0,0 -4.391,1.475 -7.832,4.36c-7.128,5.977 -10.58,13.94 -13.938,19Z" style="fill:#2a6a95;fill-opacity:0.18;"/><path d="M393.186,0c0,0 -5.086,4.155 -6.629,8.483c-1.495,4.192 0.162,12.769 -6.45,20.413c-4.88,5.642 -12.13,9.736 -17.613,16.158c-6.68,7.822 -6.308,12.947 -6.308,12.947l44.5,0l0,-58l-7.5,0Z" style="fill:#8cefff;stroke:#000;stroke-width:0.5px;"/><path d="M385.368,29.866c-2.619,3.947 -13.156,11.692 -19.332,18.235c-4.934,5.227 -6,9.868 -6,9.868l5.832,0.021c0,0 0.297,-3.686 4.409,-8.474c6.026,-7.017 17.805,-16.402 19.528,-20.026c3.498,-7.355 0.58,-19.39 6.25,-22.564c7.913,-4.43 4.582,-6.421 4.582,-6.421c0,0 -4.391,1.475 -7.832,4.36c-7.128,5.977 -4.08,19.94 -7.438,25Z" style="fill:#2a6a95;fill-opacity:0.18;"/><path d="M392.868,33.866c-2.619,3.947 -13.156,11.692 -19.332,18.235c-4.934,5.227 -6,9.868 -6,9.868l5.832,0.021c0,0 0.297,-3.686 4.409,-8.474c6.026,-7.017 17.805,-16.402 19.528,-20.026c3.498,-7.355 0.58,-19.39 6.25,-22.564c7.913,-4.43 4.582,-6.421 4.582,-6.421c0,0 -4.391,1.475 -7.832,4.36c-7.128,5.977 -4.08,19.94 -7.438,25Z" style="fill:#2a6a95;fill-opacity:0.18;"/><path d="M398.868,39.366c-2.619,3.947 -13.156,11.692 -19.332,18.235c-4.934,5.227 -6,9.868 -6,9.868l5.832,0.021c0,0 0.297,-3.686 4.409,-8.474c6.026,-7.017 17.805,-16.402 19.528,-20.026c3.498,-7.355 0.58,-19.39 6.25,-22.564c7.913,-4.43 4.582,-6.421 4.582,-6.421c0,0 -4.391,1.475 -7.832,4.36c-7.128,5.977 -4.08,19.94 -7.438,25Z" style="fill:#2a6a95;fill-opacity:0.18;"/><path d="M404.368,44.866c-2.619,3.947 -13.156,11.692 -19.332,18.235c-4.934,5.227 -6,9.868 -6,9.868l5.832,0.021c0,0 0.297,-3.686 4.409,-8.474c6.026,-7.017 17.805,-16.402 19.528,-20.026c3.498,-7.355 0.58,-19.39 6.25,-22.564c7.913,-4.43 4.582,-6.421 4.582,-6.421c0,0 -4.391,1.475 -7.832,4.36c-7.128,5.977 -4.08,19.94 -7.438,25Z" style="fill:#2a6a95;fill-opacity:0.18;"/><g id="soap-back1" serif:id="soap back"><path d="M330.024,27.647c0.393,-0.025 0.693,-0.364 0.668,-0.758c-0.025,-0.393 -0.364,-0.693 -0.758,-0.668c-0.393,0.025 -0.693,0.364 -0.668,0.758c0.025,0.393 0.364,0.693 0.758,0.668Z" style="fill:#fff;"/><path d="M330.033,27.796c0.476,-0.03 0.838,-0.441 0.808,-0.917c-0.03,-0.476 -0.441,-0.838 -0.917,-0.808c-0.476,0.03 -0.838,0.441 -0.808,0.917c0.03,0.476 0.441,0.838 0.917,0.808Zm-0.019,-0.299c-0.311,0.02 -0.579,-0.217 -0.599,-0.528c-0.02,-0.311 0.217,-0.579 0.528,-0.599c0.311,-0.02 0.579,0.217 0.599,0.528c0.02,0.311 -0.217,0.579 -0.528,0.599Z"/><path d="M357.943,35.904c0.393,-0.025 0.693,-0.364 0.668,-0.758c-0.025,-0.393 -0.364,-0.693 -0.758,-0.668c-0.393,0.025 -0.693,0.364 -0.668,0.758c0.025,0.393 0.364,0.693 0.758,0.668Z" style="fill:#feecff;"/><path d="M357.952,36.053c0.476,-0.03 0.838,-0.441 0.808,-0.917c-0.03,-0.476 -0.441,-0.838 -0.917,-0.808c-0.476,0.03 -0.838,0.441 -0.808,0.917c0.03,0.476 0.441,0.838 0.917,0.808Zm-0.019,-0.299c-0.311,0.02 -0.579,-0.217 -0.599,-0.528c-0.02,-0.311 0.217,-0.579 0.528,-0.599c0.311,-0.02 0.579,0.217 0.599,0.528c0.02,0.311 -0.217,0.579 -0.528,0.599Z"/><path d="M361.579,28.722c0.393,-0.025 0.693,-0.364 0.668,-0.758c-0.025,-0.393 -0.364,-0.693 -0.758,-0.668c-0.393,0.025 -0.693,0.364 -0.668,0.758c0.025,0.393 0.364,0.693 0.758,0.668Z" style="fill:#fff;"/><path d="M361.589,28.872c0.476,-0.03 0.838,-0.441 0.808,-0.917c-0.03,-0.476 -0.441,-0.838 -0.917,-0.808c-0.476,0.03 -0.838,0.441 -0.808,0.917c0.03,0.476 0.441,0.838 0.917,0.808Zm-0.019,-0.299c-0.311,0.02 -0.579,-0.217 -0.599,-0.528c-0.02,-0.311 0.217,-0.579 0.528,-0.599c0.311,-0.02 0.579,0.217 0.599,0.528c0.02,0.311 -0.217,0.579 -0.528,0.599Z"/><path d="M379.956,27.203c0.393,-0.025 0.693,-0.364 0.668,-0.758c-0.025,-0.393 -0.364,-0.693 -0.758,-0.668c-0.393,0.025 -0.693,0.364 -0.668,0.758c0.025,0.393 0.364,0.693 0.758,0.668Z" style="fill:#fff;"/><path d="M379.965,27.353c0.476,-0.03 0.838,-0.441 0.808,-0.917c-0.03,-0.476 -0.441,-0.838 -0.917,-0.808c-0.476,0.03 -0.838,0.441 -0.808,0.917c0.03,0.476 0.441,0.838 0.917,0.808Zm-0.019,-0.299c-0.311,0.02 -0.579,-0.217 -0.599,-0.528c-0.02,-0.311 0.217,-0.579 0.528,-0.599c0.311,-0.02 0.579,0.217 0.599,0.528c0.02,0.311 -0.217,0.579 -0.528,0.599Z"/><path d="M364.314,46.134c0.393,-0.025 0.693,-0.364 0.668,-0.758c-0.025,-0.393 -0.364,-0.693 -0.758,-0.668c-0.393,0.025 -0.693,0.364 -0.668,0.758c0.025,0.393 0.364,0.693 0.758,0.668Z" style="fill:#fff;fill-opacity:0;"/><path d="M349.734,42.265c0.476,-0.03 0.838,-0.441 0.808,-0.917c-0.03,-0.476 -0.441,-0.838 -0.917,-0.808c-0.476,0.03 -0.838,0.441 -0.808,0.917c0.03,0.476 0.441,0.838 0.917,0.808Zm-0.019,-0.299c-0.311,0.02 -0.579,-0.217 -0.599,-0.528c-0.02,-0.311 0.217,-0.579 0.528,-0.599c0.311,-0.02 0.579,0.217 0.599,0.528c0.02,0.311 -0.217,0.579 -0.528,0.599Z"/><path d="M352.145,25.024c0.393,-0.025 0.693,-0.364 0.668,-0.758c-0.025,-0.393 -0.364,-0.693 -0.758,-0.668c-0.393,0.025 -0.693,0.364 -0.668,0.758c0.025,0.393 0.364,0.693 0.758,0.668Z" style="fill:#fff;fill-opacity:0;"/><path d="M352.154,25.174c0.476,-0.03 0.838,-0.441 0.808,-0.917c-0.03,-0.476 -0.441,-0.838 -0.917,-0.808c-0.476,0.03 -0.838,0.441 -0.808,0.917c0.03,0.476 0.441,0.838 0.917,0.808Zm-0.019,-0.299c-0.311,0.02 -0.579,-0.217 -0.599,-0.528c-0.02,-0.311 0.217,-0.579 0.528,-0.599c0.311,-0.02 0.579,0.217 0.599,0.528c0.02,0.311 -0.217,0.579 -0.528,0.599Z"/><path d="M362.065,33.19c0.169,-0.011 0.297,-0.156 0.286,-0.325c-0.011,-0.169 -0.156,-0.297 -0.325,-0.286c-0.169,0.011 -0.297,0.156 -0.286,0.325c0.011,0.169 0.156,0.297 0.325,0.286Z" style="fill:#fff;fill-opacity:0;"/><path d="M362.075,33.34c0.251,-0.016 0.442,-0.233 0.426,-0.484c-0.016,-0.251 -0.484,-1.426 -0.484,-1.426c0,0 -0.442,1.233 -0.426,1.484c0.016,0.251 0.233,0.442 0.484,0.426Zm-0.019,-0.299c-0.086,0.005 -0.16,-0.06 -0.166,-0.146c-0.005,-0.086 0.146,-1.166 0.146,-1.166c0,0 0.16,1.06 0.166,1.146c0.005,0.086 -0.06,0.16 -0.146,0.166Z"/><path d="M363.078,23.312c0.169,-0.011 0.297,-0.156 0.286,-0.325c-0.011,-0.169 -0.156,-0.297 -0.325,-0.286c-0.169,0.011 -0.297,0.156 -0.286,0.325c0.011,0.169 0.156,0.297 0.325,0.286Z" style="fill:#fff;"/><path d="M363.087,23.461c0.251,-0.016 0.442,-0.233 0.426,-0.484c-0.016,-0.251 -0.233,-0.442 -0.484,-0.426c-0.251,0.016 -0.442,0.233 -0.426,0.484c0.016,0.251 0.233,0.442 0.484,0.426Zm-0.019,-0.299c-0.086,0.005 -0.16,-0.06 -0.166,-0.146c-0.005,-0.086 0.06,-0.16 0.146,-0.166c0.086,-0.005 0.16,0.06 0.166,0.146c0.005,0.086 -0.06,0.16 -0.146,0.166Z"/><path d="M365.729,29.687c0.169,-0.011 0.297,-0.156 0.286,-0.325c-0.011,-0.169 -0.156,-0.297 -0.325,-0.286c-0.169,0.011 -0.297,0.156 -0.286,0.325c0.011,0.169 0.156,0.297 0.325,0.286Z" style="fill:#dbf6ff;"/><path d="M365.739,29.837c0.251,-0.016 0.442,-0.233 0.426,-0.484c-0.016,-0.251 -0.233,-0.442 -0.484,-0.426c-0.251,0.016 -0.442,0.233 -0.426,0.484c0.016,0.251 0.233,0.442 0.484,0.426Zm-0.019,-0.299c-0.086,0.005 -0.16,-0.06 -0.166,-0.146c-0.005,-0.086 0.06,-0.16 0.146,-0.166c0.086,-0.005 0.16,0.06 0.166,0.146c0.005,0.086 -0.06,0.16 -0.146,0.166Z"/><path d="M348.198,24.046c0.169,-0.011 0.297,-0.156 0.286,-0.325c-0.011,-0.169 -0.156,-0.297 -0.325,-0.286c-0.169,0.011 -0.297,0.156 -0.286,0.325c0.011,0.169 0.156,0.297 0.325,0.286Z" style="fill:#fff;"/><path d="M348.208,24.196c0.251,-0.016 0.442,-0.233 0.426,-0.484c-0.016,-0.251 -0.233,-0.442 -0.484,-0.426c-0.251,0.016 -0.442,0.233 -0.426,0.484c0.016,0.251 0.233,0.442 0.484,0.426Zm-0.019,-0.299c-0.086,0.005 -0.16,-0.06 -0.166,-0.146c-0.005,-0.086 0.06,-0.16 0.146,-0.166c0.086,-0.005 0.16,0.06 0.166,0.146c0.005,0.086 -0.06,0.16 -0.146,0.166Z"/><path d="M358.713,45.229c0.169,-0.011 0.297,-0.156 0.286,-0.325c-0.011,-0.169 -0.156,-0.297 -0.325,-0.286c-0.169,0.011 -0.297,0.156 -0.286,0.325c0.011,0.169 0.156,0.297 0.325,0.286Z" style="fill:#dbf6ff;"/><path d="M358.722,45.379c0.251,-0.016 0.442,-0.233 0.426,-0.484c-0.016,-0.251 -0.233,-0.442 -0.484,-0.426c-0.251,0.016 -0.442,0.233 -0.426,0.484c0.016,0.251 0.233,0.442 0.484,0.426Zm-0.019,-0.299c-0.086,0.005 -0.16,-0.06 -0.166,-0.146c-0.005,-0.086 0.06,-0.16 0.146,-0.166c0.086,-0.005 0.16,0.06 0.166,0.146c0.005,0.086 -0.06,0.16 -0.146,0.166Z"/><path d="M334.329,39.049c0.388,0.067 0.649,0.437 0.582,0.825c-0.067,0.388 -0.437,0.649 -0.825,0.582c-0.388,-0.067 -0.649,-0.437 -0.582,-0.825c0.067,-0.388 0.437,-0.649 0.825,-0.582Z" style="fill:#fff;"/><path d="M334.855,36.401c0,0 -1.418,2.734 -1.499,3.204c-0.081,0.47 0.234,0.918 0.704,0.999c0.47,0.081 0.918,-0.234 0.999,-0.704c0.081,-0.47 -0.204,-3.499 -0.204,-3.499Zm-0.051,0.296c0,0 0.013,2.845 -0.04,3.152c-0.053,0.307 -0.345,0.513 -0.652,0.46c-0.307,-0.053 -0.513,-0.345 -0.46,-0.652c0.053,-0.307 1.152,-2.96 1.152,-2.96Z"/><path d="M337.168,46.581c0.388,0.067 0.649,0.437 0.582,0.825c-0.067,0.388 -0.437,0.649 -0.825,0.582c-0.388,-0.067 -0.649,-0.437 -0.582,-0.825c0.067,-0.388 0.437,-0.649 0.825,-0.582Z" style="fill:#feecff;"/><path d="M337.194,46.433c-0.47,-0.081 -0.918,0.234 -0.999,0.704c-0.081,0.47 0.234,0.918 0.704,0.999c0.47,0.081 0.918,-0.234 0.999,-0.704c0.081,-0.47 -0.234,-0.918 -0.704,-0.999Zm-0.051,0.296c0.307,0.053 0.513,0.345 0.46,0.652c-0.053,0.307 -0.345,0.513 -0.652,0.46c-0.307,-0.053 -0.513,-0.345 -0.46,-0.652c0.053,-0.307 0.345,-0.513 0.652,-0.46Z"/><path d="M341.767,29.566c0.388,0.067 0.649,0.437 0.582,0.825c-0.067,0.388 -0.437,0.649 -0.825,0.582c-0.388,-0.067 -0.649,-0.437 -0.582,-0.825c0.067,-0.388 0.437,-0.649 0.825,-0.582Z" style="fill:#dbf6ff;"/><path d="M341.793,29.419c-0.47,-0.081 -0.918,0.234 -0.999,0.704c-0.081,0.47 0.234,0.918 0.704,0.999c0.47,0.081 0.918,-0.234 0.999,-0.704c0.081,-0.47 -0.234,-0.918 -0.704,-0.999Zm-0.051,0.296c0.307,0.053 0.513,0.345 0.46,0.652c-0.053,0.307 -0.345,0.513 -0.652,0.46c-0.307,-0.053 -0.513,-0.345 -0.46,-0.652c0.053,-0.307 0.345,-0.513 0.652,-0.46Z"/><path d="M327.415,49.091c-0.47,-0.081 -0.918,0.234 -0.999,0.704c-0.081,0.47 0.234,0.918 0.704,0.999c0.47,0.081 0.918,-0.234 0.999,-0.704c0.081,-0.47 -0.234,-0.918 -0.704,-0.999Zm-0.051,0.296c0.307,0.053 0.513,0.345 0.46,0.652c-0.053,0.307 -0.345,0.513 -0.652,0.46c-0.307,-0.053 -0.513,-0.345 -0.46,-0.652c0.053,-0.307 0.345,-0.513 0.652,-0.46Z"/><path d="M395.083,31.515c-0.169,0.011 -0.314,-0.118 -0.325,-0.286c-0.011,-0.169 0.118,-0.314 0.286,-0.325c0.169,-0.011 0.314,0.118 0.325,0.286c0.011,0.169 -0.118,0.314 -0.286,0.325Z" style="fill:#fff;fill-opacity:0;"/><path d="M338.16,42.044c-0.248,-0.043 -0.484,0.124 -0.527,0.372c-0.043,0.248 0.124,0.484 0.372,0.527c0.248,0.043 0.484,-0.124 0.527,-0.372c0.043,-0.248 -0.124,-0.484 -0.372,-0.527Zm-0.051,0.296c0.085,0.015 0.142,0.096 0.127,0.18c-0.015,0.085 -0.096,0.142 -0.18,0.127c-0.085,-0.015 -0.142,-0.096 -0.127,-0.18c0.015,-0.085 0.096,-0.142 0.18,-0.127Z"/><path d="M338.074,52.122c0.166,0.029 0.278,0.187 0.249,0.354c-0.029,0.166 -0.187,0.278 -0.354,0.249c-0.166,-0.029 -0.278,-0.187 -0.249,-0.354c0.029,-0.166 0.187,-0.278 0.354,-0.249Z" style="fill:#fff;"/><path d="M338.1,51.974c-0.248,-0.043 -0.484,0.124 -0.527,0.372c-0.043,0.248 0.124,0.484 0.372,0.527c0.248,0.043 0.484,-0.124 0.527,-0.372c0.043,-0.248 -0.124,-0.484 -0.372,-0.527Zm-0.051,0.296c0.085,0.015 0.142,0.096 0.127,0.18c-0.015,0.085 -0.096,0.142 -0.18,0.127c-0.085,-0.015 -0.142,-0.096 -0.127,-0.18c0.015,-0.085 0.096,-0.142 0.18,-0.127Z"/><path d="M341.398,45.07c0,0 0.278,1.187 0.249,1.354c-0.029,0.166 -0.187,0.278 -0.354,0.249c-0.166,-0.029 -0.278,-0.187 -0.249,-0.354c0.029,-0.166 0.354,-1.249 0.354,-1.249Z" style="fill:#feecff;"/><path d="M341.424,44.922c0,0 -0.484,1.124 -0.527,1.372c-0.043,0.248 0.124,0.484 0.372,0.527c0.248,0.043 0.484,-0.124 0.527,-0.372c0.043,-0.248 -0.372,-1.527 -0.372,-1.527Zm-0.051,0.296c0,0 0.142,1.096 0.127,1.18c-0.015,0.085 -0.096,0.142 -0.18,0.127c-0.085,-0.015 -0.142,-0.096 -0.127,-0.18c0.015,-0.085 0.18,-1.127 0.18,-1.127Z"/><path d="M323.361,49.784c0.166,0.029 0.278,0.187 0.249,0.354c-0.029,0.166 -0.187,0.278 -0.354,0.249c-0.166,-0.029 -0.278,-0.187 -0.249,-0.354c0.029,-0.166 0.187,-0.278 0.354,-0.249Z" style="fill:#fff;"/><path d="M323.386,49.637c-0.248,-0.043 -0.484,0.124 -0.527,0.372c-0.043,0.248 0.124,0.484 0.372,0.527c0.248,0.043 0.484,-0.124 0.527,-0.372c0.043,-0.248 -0.124,-0.484 -0.372,-0.527Zm-0.051,0.296c0.085,0.015 0.142,0.096 0.127,0.18c-0.015,0.085 -0.096,0.142 -0.18,0.127c-0.085,-0.015 -0.142,-0.096 -0.127,-0.18c0.015,-0.085 0.096,-0.142 0.18,-0.127Z"/><path d="M351.039,27.442c0.166,0.029 0.278,0.187 0.249,0.354c-0.029,0.166 -0.187,0.278 -0.354,0.249c-0.166,-0.029 -0.278,-0.187 -0.249,-0.354c0.029,-0.166 0.187,-0.278 0.354,-0.249Z" style="fill:#fff;"/><path d="M351.065,27.294c-0.248,-0.043 -0.484,0.124 -0.527,0.372c-0.043,0.248 0.124,0.484 0.372,0.527c0.248,0.043 0.484,-0.124 0.527,-0.372c0.043,-0.248 -0.124,-0.484 -0.372,-0.527Zm-0.051,0.296c0.085,0.015 0.142,0.096 0.127,0.18c-0.015,0.085 -0.096,0.142 -0.18,0.127c-0.085,-0.015 -0.142,-0.096 -0.127,-0.18c0.015,-0.085 0.096,-0.142 0.18,-0.127Z"/><path d="M373.475,12.269c-0.422,0.222 -0.584,0.745 -0.362,1.167c0.222,0.422 0.745,0.584 1.167,0.362c0.422,-0.222 1.362,-1.667 1.362,-1.667c0,0 -1.745,-0.084 -2.167,0.138Zm0.14,0.265c0.275,-0.145 1.762,-0.264 1.762,-0.264c0,0 -0.961,1.117 -1.236,1.262c-0.275,0.145 -0.617,0.039 -0.762,-0.236c-0.145,-0.275 -0.039,-0.617 0.236,-0.762Z"/><path d="M364.272,18.442c-0.149,0.079 -0.207,0.264 -0.128,0.413c0.079,0.149 0.264,0.207 0.413,0.128c0.149,-0.079 0.207,-0.264 0.128,-0.413c-0.079,-0.149 -0.264,-0.207 -0.413,-0.128Z" style="fill:#fff;"/><path d="M364.202,18.309c-0.223,0.117 -0.308,0.393 -0.191,0.616c0.117,0.223 0.393,0.308 0.616,0.191c0.223,-0.117 0.308,-0.393 0.191,-0.616c-0.117,-0.223 -0.393,-0.308 -0.616,-0.191Zm0.14,0.265c0.076,-0.04 0.171,-0.011 0.211,0.065c0.04,0.076 0.011,0.171 -0.065,0.211c-0.076,0.04 -0.171,0.011 -0.211,-0.065c-0.04,-0.076 -0.011,-0.171 0.065,-0.211Z"/><path d="M359.242,13.711c-0.149,0.079 -0.207,0.264 -0.128,0.413c0.079,0.149 0.264,0.207 0.413,0.128c0.149,-0.079 0.207,-0.264 0.128,-0.413c-0.079,-0.149 -0.264,-0.207 -0.413,-0.128Z" style="fill:#dbf6ff;"/><path d="M359.172,13.579c-0.223,0.117 -0.308,0.393 -0.191,0.616c0.117,0.223 0.393,0.308 0.616,0.191c0.223,-0.117 0.308,-0.393 0.191,-0.616c-0.117,-0.223 -0.393,-0.308 -0.616,-0.191Zm0.14,0.265c0.076,-0.04 0.171,-0.011 0.211,0.065c0.04,0.076 0.011,0.171 -0.065,0.211c-0.076,0.04 -0.171,0.011 -0.211,-0.065c-0.04,-0.076 -0.011,-0.171 0.065,-0.211Z"/><path d="M377.546,11.677c-0.149,0.079 -0.207,0.264 -0.128,0.413c0.079,0.149 0.264,0.207 0.413,0.128c0.149,-0.079 0.207,-0.264 0.128,-0.413c-0.079,-0.149 -0.264,-0.207 -0.413,-0.128Z" style="fill:#fff;"/><path d="M377.476,11.545c-0.223,0.117 -0.308,0.393 -0.191,0.616c0.117,0.223 0.393,0.308 0.616,0.191c0.223,-0.117 0.308,-0.393 0.191,-0.616c-0.117,-0.223 -0.393,-0.308 -0.616,-0.191Zm0.14,0.265c0.076,-0.04 0.171,-0.011 0.211,0.065c0.04,0.076 0.011,0.171 -0.065,0.211c-0.076,0.04 -0.171,0.011 -0.211,-0.065c-0.04,-0.076 -0.011,-0.171 0.065,-0.211Z"/><path d="M378.879,34.447c-0.223,0.117 -0.308,0.393 -0.191,0.616c0.117,0.223 0.393,0.308 0.616,0.191c0.223,-0.117 0.308,-0.393 0.191,-0.616c-0.117,-0.223 -0.393,-0.308 -0.616,-0.191Zm0.14,0.265c0.076,-0.04 0.171,-0.011 0.211,0.065c0.04,0.076 0.011,0.171 -0.065,0.211c-0.076,0.04 -0.171,0.011 -0.211,-0.065c-0.04,-0.076 -0.011,-0.171 0.065,-0.211Z"/><path d="M381.152,4.007c-0.382,0.098 -0.771,-0.133 -0.869,-0.515c-0.098,-0.382 0.133,-0.771 0.515,-0.869c0.382,-0.098 0.771,0.133 0.869,0.515c0.098,0.382 -0.133,0.771 -0.515,0.869Z" style="fill:#dbf6ff;"/><path d="M381.189,4.153c0.462,-0.118 0.741,-0.59 0.623,-1.052c-0.118,-0.462 -0.59,-0.741 -1.052,-0.623c-0.462,0.118 -0.741,0.59 -0.623,1.052c0.118,0.462 0.59,0.741 1.052,0.623Zm-0.074,-0.291c-0.302,0.077 -0.609,-0.105 -0.687,-0.407c-0.077,-0.302 0.105,-0.609 0.407,-0.687c0.302,-0.077 0.609,0.105 0.687,0.407c0.077,0.302 -0.105,0.609 -0.407,0.687Z"/><path d="M373.563,9.743c-0.164,0.042 -0.331,-0.057 -0.372,-0.221c-0.042,-0.164 0.057,-0.331 0.221,-0.372c0.164,-0.042 0.331,0.057 0.372,0.221c0.042,0.164 -0.057,0.331 -0.221,0.372Z" style="fill:#fff;"/><path d="M373.6,9.888c0.244,-0.062 0.391,-0.311 0.329,-0.555c-0.062,-0.244 -0.311,-0.391 -0.555,-0.329c-0.244,0.062 -0.391,0.311 -0.329,0.555c0.062,0.244 0.311,0.391 0.555,0.329Zm-0.074,-0.291c-0.083,0.021 -0.169,-0.029 -0.19,-0.112c-0.021,-0.083 0.029,-0.169 0.112,-0.19c0.083,-0.021 0.169,0.029 0.19,0.112c0.021,0.083 -0.029,0.169 -0.112,0.19Z"/></g><path d="M344.267,50.957c-1.408,-1.064 -3.125,-1.752 -5.012,-1.904c-5.284,-0.424 -9.919,3.522 -10.343,8.807c-0.323,4.026 1.891,7.675 5.3,9.372c0.365,4.62 4.042,8.427 8.808,8.809c4.323,0.347 8.21,-2.231 9.714,-6.073c1.193,0.687 2.553,1.127 4.016,1.244c4.561,0.366 8.638,-2.524 9.941,-6.72c0.622,-0.055 1.224,-0.188 1.796,-0.39c0.122,3.704 3.013,6.81 6.794,7.114c4.065,0.326 7.63,-2.709 7.956,-6.774c0.326,-4.065 -2.709,-7.63 -6.774,-7.956c-1.066,-0.085 -2.097,0.06 -3.044,0.395c-0.122,-3.704 -3.013,-6.81 -6.794,-7.114c-2.505,-0.201 -4.82,0.875 -6.305,2.681c-0.649,-0.197 -1.33,-0.329 -2.033,-0.385c-1.478,-0.119 -2.906,0.105 -4.204,0.604c-1.229,-1.587 -3.096,-2.672 -5.252,-2.845c-1.668,-0.134 -3.252,0.298 -4.562,1.136Z" style="fill:#fff;"/><path d="M344.279,50.655c-1.418,-1.033 -3.129,-1.7 -5.005,-1.851c-5.422,-0.435 -10.177,3.614 -10.612,9.036c-0.327,4.081 1.886,7.784 5.312,9.551c0.437,4.677 4.184,8.51 9.025,8.898c4.335,0.348 8.244,-2.171 9.859,-5.966c1.163,0.625 2.471,1.025 3.871,1.138c4.622,0.371 8.76,-2.517 10.149,-6.737c0.472,-0.052 0.932,-0.148 1.376,-0.283c0.282,3.682 3.21,6.719 7.006,7.024c4.203,0.337 7.888,-2.801 8.225,-7.004c0.337,-4.203 -2.801,-7.888 -7.004,-8.225c-0.985,-0.079 -1.941,0.033 -2.833,0.304c-0.282,-3.682 -3.21,-6.719 -7.006,-7.024c-2.53,-0.203 -4.873,0.854 -6.411,2.645c-0.618,-0.177 -1.262,-0.295 -1.927,-0.348c-1.452,-0.116 -2.856,0.089 -4.141,0.555c-1.27,-1.562 -3.152,-2.623 -5.315,-2.796c-1.663,-0.133 -3.245,0.277 -4.57,1.083Zm0.122,0.513c1.266,-0.809 2.796,-1.226 4.408,-1.097c2.084,0.167 3.887,1.215 5.075,2.749c0.068,0.087 0.184,0.12 0.287,0.08c1.265,-0.486 2.655,-0.703 4.095,-0.588c0.686,0.055 1.348,0.183 1.981,0.375c0.097,0.029 0.202,-0.002 0.266,-0.08c1.434,-1.746 3.671,-2.785 6.091,-2.591c3.653,0.293 6.446,3.294 6.565,6.873c0.003,0.08 0.043,0.153 0.109,0.198c0.066,0.045 0.149,0.056 0.224,0.029c0.915,-0.323 1.912,-0.464 2.941,-0.381c3.927,0.315 6.86,3.759 6.545,7.687c-0.315,3.927 -3.759,6.86 -7.687,6.545c-3.653,-0.293 -6.446,-3.294 -6.565,-6.873c-0.003,-0.08 -0.043,-0.153 -0.109,-0.198c-0.066,-0.045 -0.149,-0.056 -0.224,-0.029c-0.552,0.195 -1.134,0.323 -1.734,0.377c-0.101,0.009 -0.187,0.078 -0.217,0.175c-1.269,4.087 -5.24,6.901 -9.683,6.545c-1.424,-0.114 -2.749,-0.542 -3.911,-1.211c-0.063,-0.036 -0.139,-0.043 -0.208,-0.019c-0.069,0.024 -0.123,0.077 -0.15,0.145c-1.465,3.742 -5.251,6.252 -9.462,5.915c-4.642,-0.372 -8.223,-4.08 -8.579,-8.579c-0.007,-0.088 -0.059,-0.165 -0.138,-0.204c-3.321,-1.653 -5.477,-5.207 -5.162,-9.128c0.413,-5.147 4.927,-8.99 10.074,-8.578c1.838,0.147 3.51,0.818 4.882,1.854c0.083,0.063 0.197,0.067 0.285,0.011Z"/><path d="M392.632,67.417c1.499,0.931 3.271,1.461 5.165,1.44c5.301,-0.058 9.558,-4.41 9.499,-9.711c-0.045,-4.039 -2.581,-7.471 -6.13,-8.851c-0.784,-4.567 -4.792,-8.024 -9.573,-7.971c-4.336,0.048 -7.974,2.968 -9.122,6.931c-1.251,-0.575 -2.645,-0.89 -4.112,-0.874c-4.576,0.05 -8.373,3.299 -9.289,7.596c-0.614,0.111 -1.202,0.299 -1.753,0.551c-0.459,-3.678 -3.62,-6.508 -7.413,-6.466c-4.078,0.045 -7.352,3.392 -7.307,7.47c0.045,4.078 3.392,7.352 7.47,7.307c1.069,-0.012 2.083,-0.25 2.996,-0.67c0.459,3.678 3.62,6.508 7.413,6.466c2.513,-0.028 4.721,-1.31 6.035,-3.244c0.665,0.138 1.354,0.206 2.06,0.199c1.483,-0.016 2.884,-0.369 4.132,-0.984c1.368,1.469 3.326,2.379 5.489,2.355c1.673,-0.018 3.211,-0.593 4.44,-1.546Z" style="fill:#fff;"/><path d="M392.648,67.719c1.506,0.9 3.271,1.409 5.152,1.388c5.439,-0.06 9.806,-4.524 9.746,-9.964c-0.045,-4.094 -2.586,-7.581 -6.159,-9.029c-0.861,-4.618 -4.94,-8.094 -9.797,-8.041c-4.349,0.048 -8.013,2.912 -9.276,6.838c-1.215,-0.517 -2.554,-0.796 -3.958,-0.781c-4.637,0.051 -8.495,3.304 -9.495,7.632c-0.465,0.095 -0.914,0.232 -1.344,0.407c-0.616,-3.641 -3.808,-6.399 -7.616,-6.358c-4.216,0.046 -7.601,3.507 -7.554,7.723c0.046,4.216 3.507,7.601 7.723,7.554c0.988,-0.011 1.93,-0.209 2.793,-0.561c0.616,3.641 3.808,6.399 7.616,6.358c2.538,-0.028 4.776,-1.294 6.144,-3.217c0.631,0.12 1.284,0.179 1.951,0.172c1.456,-0.016 2.836,-0.348 4.074,-0.93c1.407,1.44 3.377,2.325 5.547,2.301c1.668,-0.018 3.206,-0.571 4.453,-1.494Zm-0.168,-0.5c-1.187,0.921 -2.673,1.476 -4.29,1.493c-2.09,0.023 -3.982,-0.857 -5.304,-2.276c-0.075,-0.081 -0.194,-0.103 -0.293,-0.054c-1.215,0.599 -2.58,0.942 -4.024,0.958c-0.688,0.008 -1.359,-0.059 -2.007,-0.193c-0.099,-0.021 -0.201,0.021 -0.257,0.104c-1.269,1.869 -3.403,3.107 -5.831,3.134c-3.665,0.04 -6.719,-2.694 -7.162,-6.247c-0.01,-0.079 -0.057,-0.149 -0.126,-0.187c-0.07,-0.039 -0.154,-0.042 -0.226,-0.009c-0.882,0.405 -1.862,0.636 -2.894,0.647c-3.94,0.043 -7.174,-3.12 -7.217,-7.06c-0.043,-3.94 3.12,-7.174 7.06,-7.217c3.665,-0.04 6.719,2.694 7.162,6.247c0.01,0.079 0.057,0.149 0.126,0.187c0.07,0.039 0.154,0.042 0.226,0.009c0.532,-0.244 1.1,-0.425 1.693,-0.533c0.1,-0.018 0.179,-0.095 0.2,-0.194c0.892,-4.185 4.591,-7.349 9.047,-7.398c1.429,-0.016 2.787,0.29 4.005,0.851c0.066,0.03 0.142,0.031 0.208,0c0.066,-0.03 0.116,-0.088 0.136,-0.158c1.118,-3.86 4.661,-6.704 8.885,-6.75c4.656,-0.051 8.56,3.315 9.324,7.764c0.015,0.087 0.074,0.159 0.156,0.191c3.457,1.344 5.928,4.687 5.971,8.621c0.057,5.163 -4.089,9.401 -9.252,9.458c-1.844,0.02 -3.57,-0.495 -5.03,-1.402c-0.089,-0.055 -0.203,-0.049 -0.285,0.015Z"/><path d="M337.282,60.32c1.396,-0.034 2.768,-1.615 3.177,-3.762c0.448,-2.349 -0.424,-4.492 -1.947,-4.782c-0.983,-0.188 -1.999,0.443 -2.715,1.546c-1.396,0.034 -2.768,1.615 -3.177,3.762c-0.448,2.349 0.424,4.492 1.947,4.782c0.983,0.188 1.999,-0.443 2.715,-1.546Z" style="fill:#dbf6ff;"/><path d="M395.326,51.505c0.007,-1.341 -1.472,-2.703 -3.522,-3.158c-2.243,-0.497 -4.325,0.28 -4.647,1.734c-0.208,0.939 0.369,1.932 1.408,2.651c-0.007,1.341 1.472,2.703 3.522,3.158c2.243,0.497 4.325,-0.28 4.647,-1.734c0.208,-0.939 -0.369,-1.932 -1.408,-2.651Z" style="fill:#dbf6ff;"/></g></g></svg>