<?xml version="1.0" encoding="UTF-8" standalone="no"?><!DOCTYPE svg PUBLIC "-//W3C//DTD SVG 1.1//EN" "http://www.w3.org/Graphics/SVG/1.1/DTD/svg11.dtd"><svg width="100%" height="100%" viewBox="0 0 93 93" version="1.1" xmlns="http://www.w3.org/2000/svg" xmlns:xlink="http://www.w3.org/1999/xlink" xml:space="preserve" xmlns:serif="http://www.serif.com/" style="fill-rule:evenodd;clip-rule:evenodd;stroke-linecap:round;stroke-linejoin:round;stroke-miterlimit:1.5;"><rect id="Logo" x="0" y="0" width="92.5" height="92.5" style="fill:none;"/><clipPath id="_clip1"><rect id="Logo1" serif:id="Logo" x="0" y="0" width="92.5" height="92.5"/></clipPath><g clip-path="url(#_clip1)"><path d="M45.917,6.022c0.086,0.15 0.17,0.305 0.252,0.463c-0.121,-0.041 -0.246,-0.081 -0.376,-0.121l0.123,-0.342Zm4.214,1.942c-0.053,0.294 -0.112,0.598 -0.177,0.909c-0.411,-0.383 -0.779,-0.713 -1.152,-1.004c0.445,0.025 0.888,0.056 1.329,0.095Zm0,0c-0.053,0.294 -0.112,0.598 -0.177,0.909c-0.411,-0.383 -0.779,-0.713 -1.152,-1.004c0.445,0.025 0.888,0.056 1.329,0.095Zm-4.338,-1.599c0.042,-0.117 0.083,-0.231 0.123,-0.342c0.086,0.15 0.17,0.305 0.252,0.463c-0.121,-0.041 -0.246,-0.081 -0.376,-0.121Z" style="fill:#45547c;stroke:#000;stroke-width:1px;"/><path d="M50.132,7.963c-0.053,0.294 -0.112,0.598 -0.177,0.909c-0.411,-0.383 -0.779,-0.713 -1.152,-1.004c0.445,0.025 0.888,0.056 1.329,0.095Z" style="fill:#45547c;stroke:#000;stroke-width:1px;"/><path d="M50.132,7.963c21.492,1.876 38.376,19.94 38.376,41.915c0,23.222 -18.854,42.076 -42.076,42.076c-23.222,0 -42.076,-18.854 -42.076,-42.076c0,-20.052 14.057,-36.847 32.847,-41.059c-1.005,-0.835 -1.774,-2.057 -2.06,-2.939c-0.356,-1.095 0.392,-3.283 0.392,-3.283c0,0 1.628,2.59 2.651,2.886c0.946,0.274 1.804,0.358 2.633,0.385c-0.244,-0.521 -0.53,-1.051 -0.866,-1.597c-0.594,-0.966 -2.105,-3.433 -2.105,-3.433c0,0 3.096,0.41 6.517,3.209c0.557,0.455 1.083,1.15 1.554,1.974c0.182,-0.503 0.348,-0.946 0.494,-1.296c1.036,-2.484 1.903,-4.51 1.903,-4.51c0,0 1.856,-0.016 2.113,4.852c0.035,0.672 -0.08,1.704 -0.295,2.896c-0.441,-0.038 -0.884,-0.07 -1.329,-0.095c0.373,0.291 0.741,0.621 1.152,1.004c0.065,-0.311 0.124,-0.615 0.177,-0.909Z" style="fill:#45547c;stroke:#000;stroke-width:1px;"/><path d="M47.559,92.148c-8.154,0.986 -24.075,-2.813 -31.833,-12.721c-13.334,-17.031 -4.718,-22.021 -3.579,-26.432c4.675,-18.113 12.867,-18.701 21.038,-18.701c8.171,0 13.246,6.821 13.246,17.142c0,1.777 -1.298,7.165 -0.908,9.716c0.306,1.999 2.31,2.593 4.398,3.216c4.409,-0.623 8.717,-1.217 9.023,-3.216c0.39,-2.551 -0.908,-7.939 -0.908,-9.716c0,-10.321 5.075,-17.142 13.246,-17.142c8.171,0 14.805,3.704 14.805,18.701c0,4.555 6.638,9.401 -6.696,26.432c-7.757,9.908 -23.679,13.707 -31.833,12.721Z" style="fill:#fff1e0;stroke:#000;stroke-width:1px;"/><g id="beek"><path d="M40.198,64.109c0,0 7.073,-10.463 13.636,-9.74c6.564,0.723 9.74,7.792 9.74,7.792c0,0 -1.003,5.18 -9.74,5.844c-8.737,0.664 -13.636,-3.896 -13.636,-3.896Z" style="fill:#ffbd4b;stroke:#000;stroke-width:1px;"/><path d="M63.574,61.643l0.001,0.821c0,0 -7.628,-1.245 -11.44,-0.933c-3.896,0.319 -11.937,2.848 -11.937,2.848l-0.001,-0.821c0,0 7.979,-2.523 11.875,-2.842c3.832,-0.314 11.501,0.928 11.501,0.928Z"/></g><g id="eyes"><path d="M35.523,49.529c0,0 1.559,0.772 1.559,2.716c0,2.156 -1.557,0.868 -1.557,0.868c0,0 -2.546,-1.26 -3.817,-0.954c-1.299,0.312 -3.976,2.825 -3.976,2.825c0,0 -1.559,1.508 -1.559,-0.648c-0,-2.018 1.558,-2.936 1.558,-2.936c0,0 2.656,-2.509 3.955,-2.821c1.277,-0.307 3.837,0.95 3.837,0.95Z"/><path d="M27.244,52.916c0,0 0.449,0.554 0.127,1.108c-0.357,0.614 -0.72,-0.087 -0.72,-0.087c0,0 -0.734,-0.905 -1.254,-1.091c-0.532,-0.19 -1.939,-0.049 -1.939,-0.049c0,0 -0.827,0.095 -0.47,-0.519c0.334,-0.574 1.063,-0.501 1.063,-0.501c0,0 1.398,-0.144 1.931,0.046c0.523,0.187 1.263,1.094 1.263,1.094Z"/><path d="M27.18,53.56c0,0 0.609,0.371 0.492,1c-0.13,0.698 -0.707,0.16 -0.707,0.16c0,0 -0.995,-0.605 -1.548,-0.605c-0.565,0 -1.842,0.607 -1.842,0.607c0,0 -0.746,0.367 -0.617,-0.33c0.121,-0.653 0.832,-0.83 0.832,-0.83c0,0 1.268,-0.606 1.833,-0.607c0.556,-0 1.557,0.605 1.557,0.605Z"/><path d="M28.437,53.614c0,0 0.078,0.709 -0.492,1.001c-0.632,0.323 -0.559,-0.462 -0.559,-0.462c0,0 -0.128,-1.158 -0.466,-1.596c-0.345,-0.447 -1.605,-1.089 -1.605,-1.089c0,0 -0.747,-0.367 -0.115,-0.69c0.591,-0.303 1.165,0.152 1.165,0.152c0,0 1.254,0.635 1.6,1.082c0.339,0.44 0.471,1.603 0.471,1.603Z"/><path d="M76.384,49.892c0,0 -0.415,0.58 -0.061,1.113c0.393,0.591 0.714,-0.13 0.714,-0.13c0,0 0.679,-0.947 1.188,-1.163c0.52,-0.221 1.933,-0.163 1.933,-0.163c0,0 0.831,0.046 0.438,-0.546c-0.367,-0.554 -1.09,-0.438 -1.09,-0.438c0,0 -1.404,-0.061 -1.925,0.16c-0.512,0.217 -1.196,1.166 -1.196,1.166Z"/><path d="M76.486,50.531c0,0 -0.586,0.406 -0.433,1.027c0.17,0.689 0.716,0.118 0.716,0.118c0,0 0.958,-0.663 1.51,-0.695c0.564,-0.033 1.875,0.497 1.875,0.497c0,0 0.767,0.323 0.596,-0.366c-0.16,-0.645 -0.879,-0.78 -0.879,-0.78c0,0 -1.302,-0.531 -1.866,-0.498c-0.555,0.032 -1.519,0.695 -1.519,0.695Z"/><path d="M75.233,50.659c0,0 -0.036,0.712 0.55,0.97c0.65,0.285 0.53,-0.495 0.53,-0.495c0,0 0.06,-1.163 0.371,-1.62c0.318,-0.467 1.538,-1.182 1.538,-1.182c0,0 0.724,-0.41 0.074,-0.696c-0.608,-0.267 -1.154,0.221 -1.154,0.221c0,0 -1.215,0.707 -1.533,1.174c-0.313,0.459 -0.376,1.628 -0.376,1.628Z"/><path d="M67.731,49.094c0,0 -1.298,1.158 -0.782,3.033c0.572,2.079 1.732,0.424 1.732,0.424c0,0 2.121,-1.89 3.427,-1.933c1.335,-0.044 4.583,1.67 4.583,1.67c0,0 1.903,1.04 1.331,-1.038c-0.535,-1.945 -2.281,-2.418 -2.281,-2.418c0,0 -3.227,-1.714 -4.562,-1.67c-1.313,0.043 -3.448,1.933 -3.448,1.933Z"/></g></g></svg>